<svg xmlns="http://www.w3.org/2000/svg" xmlns:xlink="http://www.w3.org/1999/xlink" width="433" height="269.279" viewBox="0 0 433 269.279"><defs><clipPath id="a"><rect width="433" height="269.28" fill="none"/></clipPath><clipPath id="d"><rect width="42.57" height="23.956" fill="none"/></clipPath><clipPath id="e"><rect width="3.533" height="48.848" fill="none"/></clipPath><clipPath id="f"><rect width="3.559" height="47.227" fill="none"/></clipPath><clipPath id="j"><rect width="17.649" height="2.935" fill="none"/></clipPath><clipPath id="k"><rect width="12.174" height="6.521" fill="none"/></clipPath><clipPath id="l"><rect width="7.591" height="16.478" fill="none"/></clipPath><clipPath id="m"><rect width="32.081" height="28.217" fill="none"/></clipPath><clipPath id="n"><rect width="18.119" height="4.342" fill="none"/></clipPath><clipPath id="p"><rect width="29.692" height="19.586" fill="none"/></clipPath><clipPath id="q"><rect width="12.152" height="36.067" fill="none"/></clipPath><clipPath id="r"><rect width="17.578" height="6.327" fill="none"/></clipPath><clipPath id="s"><rect width="14.003" height="2.75" fill="none"/></clipPath><clipPath id="t"><rect width="40.598" height="28.987" fill="none"/></clipPath><clipPath id="u"><rect width="13.381" height="11.342" fill="none"/></clipPath></defs><g transform="translate(-897.791 -925.86)"><path d="M84.368,20.706c.355-2.58-3.287-4.7-6.023-4.924a15.5,15.5,0,0,1-3.9-.337c-2.678-.933-3.748-4.394-6.362-5.5-1.954-.824-4.2-.09-6.1.863s-3.766,2.154-5.882,2.289c-1.841.118-3.84-.565-5.45.335-1.2.67-1.829,2.053-2.935,2.868a7,7,0,0,1-3.837,1.041,10.806,10.806,0,0,0-3.956.646,3.126,3.126,0,0,0-1.98,3.173Z" transform="translate(882.75 922.055)" fill="#fff"/><path d="M557.942,11.115c.355-2.58-3.287-4.7-6.023-4.924a15.467,15.467,0,0,1-3.9-.337c-2.678-.933-3.748-4.394-6.362-5.5-1.954-.824-4.2-.09-6.1.863s-3.766,2.154-5.882,2.289c-1.841.118-3.84-.565-5.451.335-1.2.67-1.828,2.053-2.935,2.868a7,7,0,0,1-3.837,1.041A10.806,10.806,0,0,0,513.5,8.4a3.127,3.127,0,0,0-1.98,3.173Z" transform="translate(694.86 925.86)" fill="#fff"/><path d="M261.411,127.021c.241-1.746-2.225-3.183-4.077-3.332a10.527,10.527,0,0,1-2.637-.228c-1.813-.632-2.537-2.974-4.306-3.72a5.06,5.06,0,0,0-4.127.584,10.772,10.772,0,0,1-3.981,1.549c-1.246.08-2.6-.382-3.689.226-.813.454-1.238,1.39-1.987,1.942a4.736,4.736,0,0,1-2.6.7,7.306,7.306,0,0,0-2.677.438,2.115,2.115,0,0,0-1.34,2.148Z" transform="translate(806.552 878.449)" fill="#f5f5f5"/><path d="M673.7,69.384c.241-1.746-2.225-3.183-4.077-3.332a10.527,10.527,0,0,1-2.637-.228c-1.813-.632-2.537-2.974-4.306-3.72a5.06,5.06,0,0,0-4.127.584,10.768,10.768,0,0,1-3.982,1.549c-1.246.08-2.6-.382-3.689.226-.812.454-1.238,1.39-1.987,1.942a4.736,4.736,0,0,1-2.6.7,7.305,7.305,0,0,0-2.677.438,2.115,2.115,0,0,0-1.34,2.148Z" transform="translate(642.976 901.316)" fill="#fff"/><path d="M439.2,191.334H244.076a38.628,38.628,0,0,1-38.585-38.585V74.271a8.609,8.609,0,0,0-8.6-8.6H127.723a5.608,5.608,0,0,0-5.6,5.6v29.021a34.731,34.731,0,0,1-34.691,34.691H21.284V105.9H87.429a5.609,5.609,0,0,0,5.6-5.6V71.274a34.73,34.73,0,0,1,34.691-34.691h69.169a37.731,37.731,0,0,1,37.689,37.688V152.75a9.507,9.507,0,0,0,9.5,9.5H439.2Z" transform="translate(889.346 911.346)" fill="#bebebe"/><path d="M212.6,65.791h0a3.5,3.5,0,0,1-3.5-3.5V26.348a3.5,3.5,0,0,1,7,0V62.29a3.5,3.5,0,0,1-3.5,3.5" transform="translate(814.83 916.796)" fill="#e0e0e0"/><path d="M170.967,116.976h0a3.5,3.5,0,0,1-3.5,3.5H131.524a3.5,3.5,0,1,1,0-7h35.942a3.5,3.5,0,0,1,3.5,3.5" transform="translate(846.998 880.839)" fill="#e0e0e0"/><path d="M91.989,185.645h0a3.5,3.5,0,0,1-3.5-3.5V146.2a3.5,3.5,0,0,1,7,0v35.942a3.5,3.5,0,0,1-3.5,3.5" transform="translate(862.683 869.244)" fill="#e0e0e0"/><path d="M354.746,121.351h0a3.5,3.5,0,0,1-3.5,3.5H315.3a3.5,3.5,0,1,1,0-7h35.942a3.5,3.5,0,0,1,3.5,3.5" transform="translate(774.083 879.104)" fill="#e0e0e0"/><path d="M354.746,219.219h0a3.5,3.5,0,0,1-3.5,3.5H315.3a3.5,3.5,0,1,1,0-7h35.942a3.5,3.5,0,0,1,3.5,3.5" transform="translate(774.083 840.274)" fill="#e0e0e0"/><path d="M543.2,231.845h0a3.5,3.5,0,0,1,3.5,3.5v35.942a3.5,3.5,0,1,1-7,0V235.346a3.5,3.5,0,0,1,3.5-3.5" transform="translate(683.666 833.876)" fill="#e0e0e0"/><path d="M660,231.845h0a3.5,3.5,0,0,1,3.5,3.5v35.942a3.5,3.5,0,1,1-7,0V235.346a3.5,3.5,0,0,1,3.5-3.5" transform="translate(637.326 833.876)" fill="#e0e0e0"/><path d="M303.7,68.018h0a3.5,3.5,0,0,1-3.5-3.5V28.575a3.5,3.5,0,1,1,7,0V64.517a3.5,3.5,0,0,1-3.5,3.5" transform="translate(778.688 915.912)" fill="#e0e0e0"/><rect width="433" height="269.28" transform="translate(897.791 925.86)" fill="none"/><g transform="translate(897.791 925.86)"><g clip-path="url(#a)"><path d="M431.744,432.117c0,.087-95.295.157-212.82.157-117.566,0-212.841-.07-212.841-.157s95.276-.157,212.841-.157c117.525,0,212.82.07,212.82.157" transform="translate(-2.413 -171.38)" fill="#263238"/></g></g><g transform="translate(897.791 925.86)"><g clip-path="url(#a)"><path d="M648.091,368.525a7.189,7.189,0,0,1,3.724,4.219,12.685,12.685,0,0,1,.495,5.715c-.421,3.709-2.528,7.453-4.8,10.416-3.123-2.726-3.842-7.48-4.055-9.916-.337-3.848,1.392-11.008,4.632-10.434" transform="translate(-255.275 -146.199)" fill="#4dac4a"/><path d="M656.131,407.341a6.132,6.132,0,0,1,1.981-5.829,8.142,8.142,0,0,1,6.006-1.876,3.428,3.428,0,0,1,2.636,1.184,2.622,2.622,0,0,1,.041,2.657,5.314,5.314,0,0,1-1.967,1.938c-2.706,1.7-5.637,2.844-8.7,1.926" transform="translate(-260.264 -158.545)" fill="#4dac4a"/><path d="M649.582,421.122a4.34,4.34,0,0,1,.112-.761c.1-.536.225-1.228.377-2.059a21.536,21.536,0,0,1,2.126-6.58,13.172,13.172,0,0,1,4.722-5.017,8.955,8.955,0,0,1,1.926-.852,5.384,5.384,0,0,1,.554-.141.563.563,0,0,1,.2-.027,13.973,13.973,0,0,0-2.579,1.184,13.6,13.6,0,0,0-4.584,4.985,23.161,23.161,0,0,0-2.175,6.487c-.189.863-.343,1.562-.462,2.043a4.054,4.054,0,0,1-.214.74" transform="translate(-257.72 -160.954)" fill="#263238"/><path d="M649.678,377.777a1.564,1.564,0,0,1,.038.332c.015.247.034.564.057.956.045.83.094,2.032.141,3.518.1,2.972.171,7.079.153,11.616s-.132,8.645-.253,11.616c-.06,1.485-.12,2.687-.171,3.516-.027.392-.048.709-.065.956a1.509,1.509,0,0,1-.041.332,1.611,1.611,0,0,1-.013-.335c0-.247.008-.565.014-.957.021-.864.05-2.058.085-3.518.073-2.971.154-7.076.174-11.611s-.027-8.639-.074-11.61c-.023-1.46-.042-2.655-.055-3.519,0-.393,0-.711-.006-.958a1.608,1.608,0,0,1,.016-.334" transform="translate(-257.697 -149.883)" fill="#263238"/><path d="M639.572,408.921a14.343,14.343,0,0,0-7.832-10.507c-1.044-.5-2.406-.826-3.264-.051s-.667,2.173-.247,3.253a12.254,12.254,0,0,0,11.269,7.609" transform="translate(-249.108 -157.867)" fill="#4dac4a"/><path d="M635.123,404.582a3.711,3.711,0,0,1,.663.289,6.912,6.912,0,0,1,.749.4c.281.175.62.346.953.6a12.544,12.544,0,0,1,1.091.821,14.042,14.042,0,0,1,1.161,1.055,15.92,15.92,0,0,1,2.206,2.833,15.649,15.649,0,0,1,1.453,3.285,13.638,13.638,0,0,1,.367,1.526,11.684,11.684,0,0,1,.188,1.353,10.644,10.644,0,0,1,.052,1.124,6.384,6.384,0,0,1-.025.848,3.636,3.636,0,0,1-.08.718c-.061,0,.045-1.032-.136-2.672a12.554,12.554,0,0,0-.217-1.329,14.413,14.413,0,0,0-.385-1.495,16.27,16.27,0,0,0-1.447-3.22,16.647,16.647,0,0,0-2.152-2.8,14.977,14.977,0,0,0-1.127-1.057c-.358-.327-.727-.588-1.056-.836-1.342-.962-2.282-1.39-2.255-1.442" transform="translate(-251.984 -160.517)" fill="#263238"/></g></g><path d="M308.681,351.856l8.9,9.443v39.037h9.54V361.3l9.288-9.031Z" transform="translate(775.321 786.262)" fill="#e0e0e0"/><g transform="translate(897.791 925.86)"><g clip-path="url(#a)"><path d="M308.681,351.856l27.734.288.3,0-.216.211-9.276,9.043.043-.1c0,9.011.01,19.2.015,29.948,0,3.081,0,6.117,0,9.089v.156h-.156l-9.539,0h-.152v-.151c.025-16.038.046-29.766.062-39.037l.024.062-8.838-9.505,8.97,9.381.024.026v.036c.014,9.271.036,23,.062,39.037l-.151-.151,9.539,0-.156.156c0-2.972,0-6.008,0-9.089.005-10.749.01-20.936.015-29.948v-.06l.043-.042,9.3-9.018.085.214-27.73-.537" transform="translate(-122.469 -139.599)" fill="#263238"/><path d="M332.948,367.619a73.374,73.374,0,0,1-9.59,0,73.374,73.374,0,0,1,9.59,0" transform="translate(-128.292 -145.79)" fill="#263238"/><path d="M275.334,266.654h-.379L0,263.967l.431-48.48,259.522,2.549a8.2,8.2,0,0,0,8.276-8.2V172.839a41.387,41.387,0,0,1,41.387-41.387H433v48.481H324.913a8.2,8.2,0,0,0-8.2,8.2v37.13a41.387,41.387,0,0,1-41.376,41.387" transform="translate(0 -52.153)" fill="#455a64"/><path d="M106.507,323.759h0a3.261,3.261,0,0,1-3.261-3.261V270.7a3.261,3.261,0,0,1,6.522,0v49.8a3.261,3.261,0,0,1-3.261,3.261" transform="translate(-40.963 -106.106)" fill="#455a64"/><path d="M106.4,323.656a3.911,3.911,0,0,0,1.18-.257,3.24,3.24,0,0,0,1.993-2.61c.035-3.021-.021-7.43-.023-12.859s-.021-11.9-.034-19.084c0-3.592-.006-7.361-.009-11.269q0-2.932,0-5.961a12.942,12.942,0,0,0-.04-1.494,3.023,3.023,0,0,0-.545-1.334,3.1,3.1,0,0,0-5.037,0,3.03,3.03,0,0,0-.547,1.334,12.792,12.792,0,0,0-.041,1.493q0,3.029,0,5.963c0,3.908-.006,7.679-.009,11.272-.013,7.181-.024,13.648-.033,19.086s-.059,9.837-.024,12.858a3.239,3.239,0,0,0,1.994,2.61,3.906,3.906,0,0,0,1.179.257s-.1.005-.311,0a3.166,3.166,0,0,1-.891-.2,3.221,3.221,0,0,1-1.231-.828,3.272,3.272,0,0,1-.861-1.825c-.074-3.051-.051-7.437-.078-12.873-.01-5.437-.021-11.9-.034-19.086,0-3.592-.006-7.363-.009-11.272q0-2.932,0-5.963a12.823,12.823,0,0,1,.044-1.541,3.334,3.334,0,0,1,.6-1.47,3.411,3.411,0,0,1,5.547,0,3.337,3.337,0,0,1,.6,1.47,12.944,12.944,0,0,1,.043,1.541q0,3.027,0,5.961c0,3.908-.007,7.678-.009,11.269-.013,7.18-.024,13.647-.034,19.084-.027,5.435,0,9.823-.078,12.874a3.269,3.269,0,0,1-.861,1.826,3.215,3.215,0,0,1-1.231.828,3.173,3.173,0,0,1-.892.2c-.206,0-.311,0-.311,0" transform="translate(-40.859 -106.003)" fill="#263238"/><path d="M497.313,211.9h0a3.262,3.262,0,0,1-4.454,1.194l-53.028-30.616a3.261,3.261,0,0,1,3.261-5.648l53.027,30.616a3.26,3.26,0,0,1,1.194,4.454" transform="translate(-173.856 -69.984)" fill="#455a64"/><path d="M497.213,211.8a3.71,3.71,0,0,0,.392-1.378,3.238,3.238,0,0,0-.34-1.685,3.2,3.2,0,0,0-.66-.881,4.941,4.941,0,0,0-1.046-.706l-13.29-7.615L462.579,188.2l-11.622-6.7-6.147-3.546-1.566-.9a3.494,3.494,0,0,0-1.628-.593,3.1,3.1,0,0,0-2.807,4.851,3.482,3.482,0,0,0,1.326,1.116l1.567.9,6.145,3.551,11.616,6.717,19.659,11.389,13.24,7.7a4.88,4.88,0,0,0,1.134.553,3.181,3.181,0,0,0,1.092.131,3.229,3.229,0,0,0,1.628-.548,3.7,3.7,0,0,0,1-1.029,3.419,3.419,0,0,1-.19.317,3.269,3.269,0,0,1-3.559,1.232,5.018,5.018,0,0,1-1.165-.551l-13.29-7.615-19.692-11.331-11.625-6.7-6.148-3.547-1.567-.9a3.805,3.805,0,0,1-1.428-1.209,3.412,3.412,0,0,1,3.09-5.342,3.812,3.812,0,0,1,1.759.634l1.566.9,6.144,3.55,11.613,6.715,19.657,11.388,13.24,7.7a5.013,5.013,0,0,1,1.06.734,3.27,3.27,0,0,1,.712,3.7,3.446,3.446,0,0,1-.18.323" transform="translate(-173.756 -69.882)" fill="#263238"/><path d="M642.42,181.151h0a3.261,3.261,0,0,1-3.261-3.261v-49.8a3.261,3.261,0,1,1,6.522,0v49.8a3.261,3.261,0,0,1-3.261,3.261" transform="translate(-253.586 -49.526)" fill="#455a64"/><path d="M642.316,181.048a3.9,3.9,0,0,0,1.179-.257,3.239,3.239,0,0,0,1.994-2.61c.034-3.021-.021-7.43-.023-12.859s-.021-11.9-.034-19.084c0-3.592-.006-7.361-.009-11.269q0-2.932,0-5.961a12.933,12.933,0,0,0-.04-1.493,3.024,3.024,0,0,0-.545-1.334,3.1,3.1,0,0,0-5.037,0,3.03,3.03,0,0,0-.547,1.334A12.913,12.913,0,0,0,639.21,129q0,3.029,0,5.963c0,3.908-.006,7.679-.01,11.272-.012,7.181-.024,13.649-.034,19.085s-.058,9.838-.022,12.858a3.237,3.237,0,0,0,1.993,2.61,3.906,3.906,0,0,0,1.18.257s-.105.005-.312,0a3.158,3.158,0,0,1-.892-.2,3.219,3.219,0,0,1-1.231-.828,3.27,3.27,0,0,1-.861-1.825c-.074-3.051-.051-7.437-.078-12.873-.01-5.436-.021-11.9-.034-19.085,0-3.592-.005-7.363-.008-11.272q0-2.932,0-5.963a12.822,12.822,0,0,1,.044-1.541,3.331,3.331,0,0,1,.6-1.47,3.411,3.411,0,0,1,5.547,0,3.336,3.336,0,0,1,.6,1.47,12.808,12.808,0,0,1,.043,1.54q0,3.028,0,5.961c0,3.908-.007,7.678-.008,11.269-.013,7.18-.025,13.647-.034,19.084-.027,5.435,0,9.823-.077,12.874a3.273,3.273,0,0,1-.861,1.826,3.207,3.207,0,0,1-1.231.828,3.159,3.159,0,0,1-.891.2c-.207,0-.311,0-.311,0" transform="translate(-253.482 -49.423)" fill="#263238"/><path d="M390.133,323.759h0a3.261,3.261,0,0,1-3.261-3.261V270.7a3.261,3.261,0,0,1,6.522,0v49.8a3.261,3.261,0,0,1-3.261,3.261" transform="translate(-153.491 -106.106)" fill="#455a64"/><path d="M390.029,323.656a3.911,3.911,0,0,0,1.18-.257,3.24,3.24,0,0,0,1.993-2.61c.035-3.021-.021-7.43-.023-12.859s-.021-11.9-.034-19.084c0-3.592-.006-7.361-.009-11.269q0-2.932,0-5.961a12.944,12.944,0,0,0-.04-1.494,3.023,3.023,0,0,0-.545-1.334,3.1,3.1,0,0,0-5.037,0,3.03,3.03,0,0,0-.547,1.334,12.792,12.792,0,0,0-.041,1.493q0,3.029,0,5.963c0,3.908-.006,7.679-.009,11.272-.013,7.181-.024,13.648-.033,19.086s-.059,9.837-.024,12.858a3.239,3.239,0,0,0,1.994,2.61,3.909,3.909,0,0,0,1.179.257s-.1.005-.311,0a3.165,3.165,0,0,1-.891-.2,3.221,3.221,0,0,1-1.231-.828,3.275,3.275,0,0,1-.861-1.825c-.074-3.051-.051-7.437-.078-12.873-.01-5.437-.021-11.9-.034-19.086,0-3.592-.005-7.363-.009-11.272q0-2.932,0-5.963a12.809,12.809,0,0,1,.044-1.541,3.334,3.334,0,0,1,.6-1.47,3.411,3.411,0,0,1,5.547,0,3.336,3.336,0,0,1,.6,1.47,12.93,12.93,0,0,1,.043,1.541q0,3.027,0,5.961c0,3.908-.006,7.678-.009,11.269-.013,7.18-.024,13.647-.034,19.084-.027,5.435,0,9.823-.078,12.874a3.272,3.272,0,0,1-.86,1.826,3.22,3.22,0,0,1-1.231.828,3.173,3.173,0,0,1-.892.2c-.206,0-.311,0-.311,0" transform="translate(-153.388 -106.003)" fill="#263238"/><path d="M274.57,323.759h0a3.261,3.261,0,0,1-3.261-3.261V270.7a3.261,3.261,0,0,1,6.522,0v49.8a3.261,3.261,0,0,1-3.261,3.261" transform="translate(-107.642 -106.106)" fill="#455a64"/><path d="M274.466,323.656a3.911,3.911,0,0,0,1.18-.257,3.24,3.24,0,0,0,1.993-2.61c.035-3.021-.021-7.43-.023-12.859s-.021-11.9-.034-19.084c0-3.592-.006-7.361-.009-11.269q0-2.932,0-5.961a12.957,12.957,0,0,0-.04-1.494,3.022,3.022,0,0,0-.545-1.334,3.1,3.1,0,0,0-5.037,0,3.03,3.03,0,0,0-.547,1.334,12.785,12.785,0,0,0-.041,1.493q0,3.029,0,5.963c0,3.908-.006,7.679-.009,11.272-.013,7.181-.024,13.648-.033,19.086s-.059,9.837-.024,12.858a3.239,3.239,0,0,0,1.994,2.61,3.906,3.906,0,0,0,1.179.257s-.105.005-.311,0a3.166,3.166,0,0,1-.891-.2,3.221,3.221,0,0,1-1.231-.828,3.271,3.271,0,0,1-.861-1.825c-.074-3.051-.051-7.437-.078-12.873-.01-5.437-.021-11.9-.034-19.086,0-3.592-.006-7.363-.009-11.272q0-2.932,0-5.963a12.822,12.822,0,0,1,.044-1.541,3.334,3.334,0,0,1,.6-1.47,3.411,3.411,0,0,1,5.547,0,3.337,3.337,0,0,1,.6,1.47,12.949,12.949,0,0,1,.043,1.541q0,3.027,0,5.961c0,3.908-.007,7.678-.009,11.269-.013,7.18-.024,13.647-.034,19.084-.027,5.435,0,9.823-.078,12.874a3.269,3.269,0,0,1-.861,1.826,3.215,3.215,0,0,1-1.231.828,3.173,3.173,0,0,1-.892.2c-.206,0-.311,0-.311,0" transform="translate(-107.538 -106.003)" fill="#263238"/><g transform="translate(278.039 112.48)" opacity="0.3"><g clip-path="url(#d)"><path d="M460.9,186.457s22.784,3.7,42.57,23.956Z" transform="translate(-460.901 -186.457)"/></g></g><g transform="translate(239.902 166.249)" opacity="0.3"><g clip-path="url(#e)"><path d="M397.683,275.588s7.948,21.671,0,48.848Z" transform="translate(-397.683 -275.588)"/></g></g><g transform="translate(170.189 166.249)" opacity="0.3"><g clip-path="url(#f)"><path d="M282.221,275.588s7.848,20.05-.1,47.227Z" transform="translate(-282.12 -275.588)"/></g></g><g transform="translate(68.406 166.249)" opacity="0.3"><g clip-path="url(#f)"><path d="M113.5,275.588s7.848,20.05-.1,47.227Z" transform="translate(-113.395 -275.588)"/></g></g><g transform="translate(392.095 78.564)" opacity="0.3"><g clip-path="url(#e)"><path d="M649.97,130.235s7.948,21.671,0,48.848Z" transform="translate(-649.97 -130.235)"/></g></g><path d="M25.519,351.062l8.992,9.537v39.422h9.635V360.6l9.38-9.12Z" transform="translate(-10.125 -139.284)" fill="#e0e0e0"/><path d="M25.519,351.062l28.008.292.3,0-.217.211L44.244,360.7l.043-.1c0,9.1.01,19.389.015,30.243,0,3.112,0,6.177,0,9.178v.156h-.156l-9.634,0H34.36v-.152c.025-16.2.046-30.059.061-39.422l.025.062-8.926-9.6,9.058,9.475.025.025v.037c.014,9.362.036,23.226.062,39.422l-.151-.151,9.634,0-.156.156c0-3,0-6.066,0-9.178C43.994,379.987,44,369.7,44,360.6v-.06l.043-.042,9.393-9.107.084.214-28-.541" transform="translate(-10.125 -139.284)" fill="#263238"/><path d="M50.026,366.982a37.465,37.465,0,0,1-4.842.157,37.471,37.471,0,0,1-4.843-.157,37.461,37.461,0,0,1,4.843-.157,37.455,37.455,0,0,1,4.842.157" transform="translate(-16.005 -145.538)" fill="#263238"/><path d="M559.362,211.21l9.43,10V344.534h10.1V221.211l10.286-10Z" transform="translate(-221.927 -83.797)" fill="#e0e0e0"/><path d="M559.362,211.149l29.819-.092h.226l-.163.158-10.273,10.013.033-.078c.012,28.434.029,68.637.048,113.158v10.322H568.636v-.156c.042-55.362.076-101.634.092-123.324l.017.043-9.384-10.044,9.477,9.957.017.018v.026c.016,21.69.051,67.962.092,123.324l-.156-.156h10.1l-.157.157V334.308c.019-44.522.036-84.725.048-113.158V221.1l.033-.032,10.3-9.988.064.157-29.819-.092" transform="translate(-221.927 -83.737)" fill="#263238"/><path d="M585.061,227.909a82.295,82.295,0,0,1-10.156,0,82.279,82.279,0,0,1,10.156,0" transform="translate(-228.093 -90.36)" fill="#263238"/><path d="M345.31,354.244c0,.087-14.148.066-31.6-.045s-31.6-.272-31.6-.359,14.145-.067,31.6.045,31.594.272,31.593.359" transform="translate(-111.93 -140.364)" fill="#263238"/></g></g><g transform="translate(897.791 925.86)"><g clip-path="url(#a)"><path d="M524.928,64.243a39.615,39.615,0,0,0-1.972,25.864,39.008,39.008,0,0,0,2.642,7.035,1.523,1.523,0,0,0,2.064.541,1.541,1.541,0,0,0,.541-2.064,36.263,36.263,0,0,1-.67-29.854,1.558,1.558,0,0,0-.541-2.064,1.519,1.519,0,0,0-2.063.541" transform="translate(-206.964 -25.197)" fill="#e0e0e0"/><path d="M527.8,100.269l6.317-9.227a1.518,1.518,0,0,0-.541-2.064,1.547,1.547,0,0,0-2.064.541L525.2,98.746a1.517,1.517,0,0,0,.541,2.064,1.545,1.545,0,0,0,2.063-.541" transform="translate(-208.287 -35.225)" fill="#e0e0e0"/><path d="M523.673,90.443a55.089,55.089,0,0,0,8.436-.1,1.508,1.508,0,0,0,0-3.016,55.09,55.09,0,0,1-8.436.1,1.516,1.516,0,0,0-1.508,1.508,1.544,1.544,0,0,0,1.508,1.508" transform="translate(-207.168 -34.645)" fill="#e0e0e0"/><path d="M525.565,71.52A93.627,93.627,0,0,1,531.43,81.1a1.521,1.521,0,0,0,2.064.541,1.541,1.541,0,0,0,.541-2.064A93.628,93.628,0,0,0,528.169,70a1.508,1.508,0,1,0-2.6,1.523" transform="translate(-208.431 -27.473)" fill="#e0e0e0"/><path d="M420.389,385.1l-1.631,18.558s18.316,7.889,18.348,11.348l-36.1-1.869,1.354-29.02Z" transform="translate(-159.1 -152.399)" fill="#455a64"/><path d="M411.323,412.93a1.476,1.476,0,0,0-1.106,1.629,1.418,1.418,0,0,0,1.605,1.111,1.556,1.556,0,0,0,1.162-1.732,1.472,1.472,0,0,0-1.8-.97" transform="translate(-162.746 -163.811)" fill="#e0e0e0"/><path d="M400.9,431.634l.128-2.812,34.7,2.017s1.571.782,1.331,1.905Z" transform="translate(-159.058 -170.135)" fill="#e0e0e0"/><path d="M429.185,416.13c-.015.176-.9.21-1.8.732-.91.5-1.4,1.238-1.555,1.16-.161-.042.156-1.083,1.253-1.7s2.146-.357,2.1-.2" transform="translate(-168.933 -165.022)" fill="#263238"/><path d="M435.9,419.124c.031.173-.747.433-1.384,1.147-.658.7-.851,1.494-1.026,1.477-.167.019-.236-1.02.574-1.892s1.842-.9,1.837-.732" transform="translate(-171.946 -166.254)" fill="#263238"/><path d="M440.616,424.919c-.162.029-.362-.864.141-1.806s1.347-1.284,1.414-1.133c.092.15-.47.64-.871,1.42-.419.77-.508,1.51-.684,1.518" transform="translate(-174.743 -167.407)" fill="#263238"/><path d="M428.779,408.7c-.082.157-.878-.128-1.878-.112-1,0-1.793.29-1.877.134-.1-.133.7-.746,1.873-.748s1.976.592,1.882.726" transform="translate(-168.625 -161.863)" fill="#263238"/><path d="M412.332,67.668c-.1,2.184-.291,4.569-1.789,6.162-1.279,1.361-3.234,1.823-5.084,2.08a11.281,11.281,0,0,1-3.14.1,4.738,4.738,0,0,1-2.792-1.33,3.027,3.027,0,0,1-.77-2.9,3.278,3.278,0,0,1-3.136-1.243,4.16,4.16,0,0,1-.705-3.369,5.736,5.736,0,0,1,1.793-3,3.166,3.166,0,0,1-.9-3.684c.771-2.26,2.393-2.633,3.749-2.234a2.3,2.3,0,0,1,1.4-3.563l2.326-.451Z" transform="translate(-156.645 -21.516)" fill="#263238"/><path d="M449.97,46.931a3.4,3.4,0,0,0-3.073-4.988l-5.3,1.213q1.142,4.469,2.285,8.938A4.573,4.573,0,0,0,445,54.449a3.092,3.092,0,0,0,2.345.665,4.659,4.659,0,0,0,2.623-8.184" transform="translate(-175.203 -16.641)" fill="#263238"/><path d="M423.724,80.213a8.265,8.265,0,0,1-8.865-7.422L412.18,45.873c-.95-7.209,2.453-13.77,9.686-14.52l.673-.03a13,13,0,0,1,13.483,11.356c.788,6.253,1.58,13.171,1.69,16.54.228,6.974-6.694,8.371-6.694,8.371-.016,0,.8,4.595.985,6.635.4,4.582-3.692,5.633-8.278,5.988" transform="translate(-163.47 -12.422)" fill="#b56760"/><path d="M437.217,89.739a16.854,16.854,0,0,1-9.2-2.274s2.56,4.979,9.486,4.038Z" transform="translate(-169.818 -34.702)" fill="#8a4a43"/><path d="M448.04,59.5a1,1,0,0,1-.915,1.048.954.954,0,0,1-1.067-.852,1,1,0,0,1,.913-1.048.954.954,0,0,1,1.068.852" transform="translate(-176.972 -23.265)" fill="#263238"/><path d="M446.719,54.214c-.118.135-.9-.389-1.968-.338-1.07.036-1.831.622-1.954.5-.059-.055.056-.3.387-.56a2.736,2.736,0,0,1,1.557-.558,2.626,2.626,0,0,1,1.573.431c.341.238.463.468.4.528" transform="translate(-175.674 -21.128)" fill="#263238"/><path d="M431.308,60.6a1,1,0,0,1-.915,1.047.953.953,0,0,1-1.067-.851,1,1,0,0,1,.914-1.048.953.953,0,0,1,1.067.852" transform="translate(-170.334 -23.705)" fill="#263238"/><path d="M429.36,55.716c-.118.135-.9-.388-1.968-.338s-1.831.623-1.954.5c-.06-.056.054-.3.387-.56a2.73,2.73,0,0,1,1.556-.558,2.628,2.628,0,0,1,1.574.431c.34.238.463.468.4.528" transform="translate(-168.786 -21.724)" fill="#263238"/><path d="M438.339,63.849a7.073,7.073,0,0,1,1.725-.392c.273-.04.529-.107.566-.3a1.4,1.4,0,0,0-.219-.8l-.9-2.046a35.755,35.755,0,0,1-2.062-5.366,35.979,35.979,0,0,1,2.488,5.187q.455,1.079.869,2.06a1.584,1.584,0,0,1,.19,1.067.684.684,0,0,1-.431.42,1.842,1.842,0,0,1-.461.086,6.966,6.966,0,0,1-1.763.082" transform="translate(-173.553 -21.8)" fill="#263238"/><path d="M436.28,73.752a1.377,1.377,0,0,0-1.007-1.057,1.4,1.4,0,0,0-.889.115,1.109,1.109,0,0,0-.561.676.507.507,0,0,0-.019.144.656.656,0,0,0-.075.259,1.727,1.727,0,0,0,.528,1.487,1.243,1.243,0,0,0,.889.307,1.165,1.165,0,0,0,.794-.4,1.764,1.764,0,0,0,.341-1.527" transform="translate(-172.079 -28.831)" fill="#8a4a43"/><path d="M433.663,71.167c.174-.018.229,1.144,1.261,1.925s2.264.6,2.28.759c.019.072-.266.238-.788.276a2.9,2.9,0,0,1-1.9-.568,2.524,2.524,0,0,1-.982-1.617c-.066-.484.051-.778.13-.775" transform="translate(-171.996 -28.235)" fill="#263238"/><path d="M428.715,49.727c-.093.3-1.168.206-2.418.414-1.254.183-2.251.6-2.429.343-.08-.122.084-.4.481-.7a4.261,4.261,0,0,1,3.693-.577c.47.165.712.384.673.524" transform="translate(-168.162 -19.446)" fill="#263238"/><path d="M445.912,47.667c-.177.252-.927.033-1.815.06-.889,0-1.631.238-1.815-.009-.081-.12.026-.369.344-.614a2.627,2.627,0,0,1,2.925-.041c.325.235.439.481.361.6" transform="translate(-175.465 -18.504)" fill="#263238"/><path d="M410.405,63.646c-.121-.046-4.853-1.2-4.486,3.557s5.068,3.408,5.065,3.271-.58-6.829-.58-6.829" transform="translate(-161.04 -25.19)" fill="#b56760"/><path d="M410.2,69.833c-.022-.014-.078.065-.214.139a.829.829,0,0,1-.618.06,2.056,2.056,0,0,1-1.091-1.767,2.757,2.757,0,0,1,.141-1.2.963.963,0,0,1,.574-.684.423.423,0,0,1,.507.189c.074.128.051.226.077.232s.1-.087.043-.281a.531.531,0,0,0-.211-.284.623.623,0,0,0-.468-.086,1.166,1.166,0,0,0-.809.8,2.819,2.819,0,0,0-.185,1.348,2.158,2.158,0,0,0,1.368,1.962.888.888,0,0,0,.748-.185c.139-.129.156-.237.138-.244" transform="translate(-161.846 -26.239)" fill="#8a4a43"/><path d="M416.378,44.795a3.64,3.64,0,0,0-2.237-.685,11.119,11.119,0,0,0-5.954,1.457,5.308,5.308,0,0,0-2.289,2.249,2.645,2.645,0,0,0,.451,3.014,3.345,3.345,0,0,0,3.15,5.836,2.17,2.17,0,0,0,3.4,1.377,3.41,3.41,0,0,0,.795-.84c.818-1.24.733-3.462.364-4.9a3.171,3.171,0,0,0,2.335-1.486,6.151,6.151,0,0,0,.869-2.7,3.721,3.721,0,0,0-.889-3.316" transform="translate(-160.682 -17.497)" fill="#263238"/><path d="M412.182,23.075c-.319.094-7.936,3.033-9.043,9.191s-.264,7.877-.264,7.877a3.886,3.886,0,0,0-.718.828c-.271.433.48,2.212,1.477,1.852,7.195-4.538,16.254-6.222,26.448-7.4l7.757-1.24c2.213-.067,2.892-.757,1.894-1.168-.765-.315-7.3-1.886-7.3-1.886l-1.343-.706-3.864-3.977s.305-.677-.556-1.078-8.187-4.133-14.483-2.293" transform="translate(-159.533 -8.954)" fill="#05368d"/><g transform="translate(245.963 15.704)" opacity="0.3"><g clip-path="url(#j)"><path d="M407.729,28.969s8.29-2.622,12.361-1.352l-.474-.157,3.825,1.051a2.282,2.282,0,0,0,1.937-.056,17.019,17.019,0,0,0-5.9-2.12c-3.729-.679-9.446-.367-11.748,2.635" transform="translate(-407.729 -26.033)"/></g></g><path d="M407.535,28.951a6.138,6.138,0,0,1,.688-.61,10.68,10.68,0,0,1,2.137-1.309,12.718,12.718,0,0,1,3.562-1.056,10.661,10.661,0,0,1,4.533.214,19.184,19.184,0,0,1,2.219.806c.7.3,1.384.559,2.017.869a11.519,11.519,0,0,0,1.8.8,3.7,3.7,0,0,0,1.69.089c2.091-.277,3.309-.9,3.2-1.016a.338.338,0,0,1-.142.189,2.727,2.727,0,0,1-.609.31,11.483,11.483,0,0,1-2.432.61,3.784,3.784,0,0,1-1.733-.077,11.408,11.408,0,0,1-1.824-.8c-.624-.3-1.316-.559-2.014-.859a19.4,19.4,0,0,0-2.2-.8,10.677,10.677,0,0,0-4.48-.221,12.886,12.886,0,0,0-3.54,1.021,11.255,11.255,0,0,0-2.145,1.265c-.236.177-.414.321-.532.423s-.187.147-.187.147" transform="translate(-161.689 -10.248)" fill="#263238"/><g transform="translate(243.085 20.764)" opacity="0.3"><g clip-path="url(#k)"><path d="M403.1,39.528a19.271,19.271,0,0,0,4.08-1.351c1.558-.589,3.113-1.1,4.641-1.764,1.16-.5,2.546-1,3.206-1.993a1.782,1.782,0,0,1-.3,1.726,8.573,8.573,0,0,1-2.414,1.52,45.213,45.213,0,0,1-9.358,3.275,10.594,10.594,0,0,1,.14-1.413" transform="translate(-402.958 -34.42)"/></g></g><path d="M403.171,35.759c-.9.56-1.453.929-1.36,1.754.077.687.338,1.5,1.03,1.524a1.691,1.691,0,0,0,.614-.137l10.2-3.661a1.578,1.578,0,0,0,.9-.588,1.075,1.075,0,0,0-.576-1.392,2.948,2.948,0,0,0-1.661-.121,35.312,35.312,0,0,0-9.143,2.62" transform="translate(-159.414 -13.124)" fill="#05368d"/><path d="M414.846,34.574a1.024,1.024,0,0,0,.215-.5,1.333,1.333,0,0,0-.626-1.263,3.3,3.3,0,0,0-2.182-.157c-.837.166-1.756.361-2.712.6a28.181,28.181,0,0,0-4.776,1.591c-.591.26-1.053.5-1.374.669l-.366.2a.567.567,0,0,1-.133.061.618.618,0,0,1,.119-.084l.355-.219c.313-.182.772-.437,1.36-.709a25.775,25.775,0,0,1,4.783-1.634c.959-.238,1.879-.43,2.72-.589a3.347,3.347,0,0,1,2.254.2,1.376,1.376,0,0,1,.628,1.349.905.905,0,0,1-.162.389.486.486,0,0,1-.1.1" transform="translate(-159.848 -12.869)" fill="#263238"/><path d="M441.39,31.065l-6.632.832.832,1.781,7.166-1.207Z" transform="translate(-172.49 -12.325)" fill="#fff"/><path d="M430.6,40.8c-.01-.035,2.876-.889,6.445-1.906s6.471-1.813,6.481-1.778-2.875.888-6.446,1.906-6.47,1.813-6.481,1.778" transform="translate(-170.841 -14.725)" fill="#263238"/><path d="M483.457,69.56,467.052,87.352l-19.66,3.8,5.732,17.072,17.925-6.13a16.224,16.224,0,0,0,8.16-6.116C483.457,89.7,490.7,76.637,490.7,76.637Z" transform="translate(-177.502 -27.598)" fill="#0a4bbf"/><path d="M489.084,86.7l9.442,10.238,2.754-4.584-8.712-9.433Z" transform="translate(-194.044 -32.898)" fill="#fff"/><path d="M511,58.055s7.758-6.283,9.35-6.451,2.681-.587,3.771.335a17.617,17.617,0,0,1,3.5,4.455,6.827,6.827,0,0,1-.305,2.693,7.785,7.785,0,0,0-1.9-2.262c-.6-.455-2.9-1.115-3.232,1.064a10.571,10.571,0,0,0,0,3.6l1.285-.179.845,2.667-8.492.361-2.242,4.237-6.4-6.238Z" transform="translate(-201.222 -20.378)" fill="#b56760"/><g transform="translate(270.123 63.555)" opacity="0.3"><g clip-path="url(#l)"><path d="M447.779,105.354a14.049,14.049,0,0,1,6.469,6.67,18.082,18.082,0,0,1,.767,9.808Z" transform="translate(-447.779 -105.354)"/></g></g><path d="M406.281,275.633c-2.832,13.216-5.956,54.036-5.956,54.036l19.945.659,7.189-41.188s3.241-14.448,5.225-22.423c1.767-7.1,7.713-61.914,7.713-61.914l-34.546.8s-1.318,3.14-2.211,11.566c-.725,6.843-.686,10.664-.15,14.048a14.289,14.289,0,0,0,2.152,5.583l2.566,5.531Z" transform="translate(-158.829 -81.255)" fill="#0a4bbf"/><rect width="6.172" height="10.311" transform="translate(342.679 66.399)" fill="#e0e0e0"/><rect width="19.218" height="2.812" transform="translate(336.585 76.4)" fill="#e0e0e0"/><rect width="8.047" height="4.297" transform="translate(327.771 50.148)" fill="#e0e0e0"/><rect width="20.611" height="25.466" transform="translate(335.193 41.323)" fill="#e0e0e0"/><path d="M574.76,84.835a5.937,5.937,0,1,1-5.937-5.937,5.937,5.937,0,0,1,5.937,5.937" transform="translate(-223.324 -31.303)" fill="#fff"/><path d="M574.636,84.732c-.045,0-.017-.529-.257-1.432a5.92,5.92,0,0,0-2.169-3.182,5.791,5.791,0,0,0-5.475-.8,5.781,5.781,0,0,0-2.669,2.012,5.739,5.739,0,0,0,0,6.8,5.785,5.785,0,0,0,2.67,2.013,5.788,5.788,0,0,0,5.475-.8,5.918,5.918,0,0,0,2.169-3.182c.239-.9.212-1.435.257-1.432a1.446,1.446,0,0,1,.019.381,2.648,2.648,0,0,1-.028.462,4.108,4.108,0,0,1-.105.624,5.91,5.91,0,0,1-2.149,3.358,6,6,0,0,1-2.549,1.161,6.1,6.1,0,0,1-3.206-.246,6.1,6.1,0,0,1-2.849-2.122,6.075,6.075,0,0,1,0-7.237,6.1,6.1,0,0,1,2.849-2.121,6.093,6.093,0,0,1,3.206-.246,6,6,0,0,1,2.549,1.161,5.909,5.909,0,0,1,2.15,3.358,4.037,4.037,0,0,1,.1.625,2.592,2.592,0,0,1,.029.462,1.446,1.446,0,0,1-.019.381" transform="translate(-223.201 -31.2)" fill="#263238"/><path d="M555.532,68.4a2.606,2.606,0,0,1,.359-.018l1.082-.017,4.155-.041,15.016-.081h.157V68.4c.009,7.287.02,16.045.032,25.463.042-.039-.358.36-.192.191h-5.5l-5.3,0-9.81-.015h-.169v-.168c.034-7.585.064-13.965.084-18.468.019-2.215.034-3.967.045-5.184q.013-.872.02-1.359a3.841,3.841,0,0,1,.019-.454.745.745,0,0,1,.01.129c0,.095.006.213.01.363q.007.5.02,1.393c.011,1.226.026,2.991.045,5.222.021,4.476.05,10.819.084,18.359l-.168-.168,9.81-.015,5.3,0h5.5c.17-.168-.226.23-.185.186.011-9.418.022-18.177.031-25.463l.157.157-14.917-.081-4.19-.041-1.112-.018a3.646,3.646,0,0,1-.393-.017" transform="translate(-220.34 -27.074)" fill="#263238"/><path d="M576.81,126.523c0,.1-4.252.189-9.5.189s-9.5-.084-9.5-.189,4.25-.188,9.5-.188,9.5.084,9.5.188" transform="translate(-221.315 -50.123)" fill="#263238"/><path d="M571.713,85.832l1.65.513.623-4.4Z" transform="translate(-226.827 -32.512)" fill="#ff725e"/><path d="M534.593,93.635c1.785-1.543,2.4-2.8,3.167-5.639a51.046,51.046,0,0,0,1.616-10.349,36.092,36.092,0,0,0-1.822-14.024,7.385,7.385,0,0,0-1.544-2.532c-.807-.849-1.986-1.677-3.241-1.162-2.281.937-.576,3.591,0,4.395a19.692,19.692,0,0,1,2,6.856A69.268,69.268,0,0,1,533.294,89.1a17.563,17.563,0,0,0-.872,3.7s1.582,1.1,1.758,1.137a1.471,1.471,0,0,0,.413-.3" transform="translate(-210.918 -23.714)" fill="#e0e0e0"/><path d="M534.492,93.534a.665.665,0,0,1-.118.119c-.041.037-.093.083-.159.135a.414.414,0,0,1-.124.074.479.479,0,0,1-.158-.062c-.387-.214-.933-.572-1.645-1.053l-.026-.018,0-.029a14.844,14.844,0,0,1,.465-2.344c.227-.889.551-1.864.744-2.979a73.512,73.512,0,0,0,.956-7.91c.109-1.5.188-3.094.2-4.754a28.05,28.05,0,0,0-.323-5.146,20.769,20.769,0,0,0-.681-2.625,15.939,15.939,0,0,0-1.045-2.567,6.18,6.18,0,0,1-1.2-2.667,1.85,1.85,0,0,1,.434-1.485,2.022,2.022,0,0,1,.642-.461,2.073,2.073,0,0,1,.755-.233,2.817,2.817,0,0,1,1.91.566,6.335,6.335,0,0,1,1.389,1.356,10.172,10.172,0,0,1,1.556,3.409,34.468,34.468,0,0,1,1.253,6.926,45.638,45.638,0,0,1-.618,11.87c-.3,1.669-.642,3.165-1.009,4.462a13.821,13.821,0,0,1-1.243,3.224,7.43,7.43,0,0,1-1.371,1.7c-.183.171-.326.295-.427.375a.882.882,0,0,1-.155.116c-.011-.012.189-.182.538-.536a7.89,7.89,0,0,0,1.309-1.716,14.105,14.105,0,0,0,1.18-3.211c.349-1.294.676-2.788.959-4.453a46.209,46.209,0,0,0,.548-11.807,34.519,34.519,0,0,0-1.259-6.862,9.9,9.9,0,0,0-1.51-3.308,6.049,6.049,0,0,0-1.318-1.287,2.509,2.509,0,0,0-1.7-.512,1.761,1.761,0,0,0-.653.2,1.72,1.72,0,0,0-.549.392,1.535,1.535,0,0,0-.354,1.239,5.937,5.937,0,0,0,1.155,2.535,15.939,15.939,0,0,1,1.073,2.637,21,21,0,0,1,.685,2.665,28.074,28.074,0,0,1,.31,5.2c-.02,1.668-.107,3.262-.224,4.771a70.6,70.6,0,0,1-1.023,7.929c-.207,1.124-.546,2.107-.784,2.982a15.637,15.637,0,0,0-.5,2.3l-.024-.046c.7.494,1.236.869,1.608,1.1a.979.979,0,0,0,.122.062.439.439,0,0,0,.106-.06l.166-.121a.743.743,0,0,1,.137-.1" transform="translate(-210.817 -23.612)" fill="#263238"/><path d="M410.71,95.319l-.571,3.413c-2.05,3.723-6.9,11.021-6.23,22.206.829,13.877,2.105,39.989,2.105,39.989l-.059.361a5.943,5.943,0,0,0,1.851,5.348l.025.024,31.541.679a7.3,7.3,0,0,0,6.032-8.17l-4.97-37.043-9.585-21.868-.9-1.875-1.078-.651Z" transform="translate(-160.226 -37.818)" fill="#0a4bbf"/><path d="M404.318,144.1l.757,13.954,37.07-.261-.8-13.5Z" transform="translate(-160.413 -57.172)" fill="#fff"/><path d="M431.221,99.055a6.8,6.8,0,0,1-.065.937,23.258,23.258,0,0,0-.078,2.542l0,.144-.144-.029c-1.853-.37-4.365-.81-7.142-1.178-2.938-.393-5.61-.672-7.541-.9-.966-.113-1.747-.211-2.286-.287a4.427,4.427,0,0,1-.833-.15,4.323,4.323,0,0,1,.846.028l2.3.188c1.936.174,4.614.419,7.56.813,2.785.369,5.3.842,7.148,1.263l-.14.115a17.7,17.7,0,0,1,.182-2.56,4.073,4.073,0,0,1,.192-.922" transform="translate(-163.911 -39.3)" fill="#263238"/><path d="M457.356,124.679a5.4,5.4,0,0,1-.4-.846c-.258-.6-.595-1.392-1-2.341-.84-1.978-2.013-4.705-3.342-7.7l-3.449-7.658-1.042-2.323a5.381,5.381,0,0,1-.346-.869,5.432,5.432,0,0,1,.457.817c.276.534.663,1.314,1.133,2.281.939,1.935,2.2,4.625,3.534,7.625s2.473,5.744,3.26,7.745c.395,1,.7,1.815.907,2.381a5.313,5.313,0,0,1,.287.89" transform="translate(-177.655 -40.841)" fill="#263238"/><path d="M443.007,212.687a1.525,1.525,0,0,1-.35.062l-1.009.116c-.877.1-2.147.211-3.719.333-3.143.246-7.494.486-12.305.562s-9.17-.032-12.32-.18c-1.574-.073-2.848-.149-3.727-.217l-1.012-.084a1.528,1.528,0,0,1-.352-.051,1.5,1.5,0,0,1,.355-.013l1.014.025,3.729.118c3.148.091,7.5.161,12.306.088s9.151-.281,12.3-.47l3.724-.233,1.013-.057a1.527,1.527,0,0,1,.355,0" transform="translate(-161.959 -84.38)" fill="#263238"/><path d="M516.288,113.813l4.626-5.012a2.155,2.155,0,0,1,1.583-.693h1.61s-.506,2.633,1.4,2.853a2.465,2.465,0,0,0,2.566-1.5s2.846,1.284,2.554,3.186a4.348,4.348,0,0,1-1.17,2.633,3.768,3.768,0,0,1,.146,2.779,4.37,4.37,0,0,1-1.755,1.755,8.9,8.9,0,0,1-2.048,1.9c-.877.439-7.367.763-7.367.763l-5.657,5.808-4.164-9.136Z" transform="translate(-201.79 -42.892)" fill="#b56760"/><g transform="translate(250.239 79.22)" opacity="0.3"><g clip-path="url(#m)"><path d="M414.826,131.322s-.355,2.888,3.477,8.635,10.018,15.782,18.5,17.978,10.095,1.5,10.095,1.5l-1.4-10.44Z" transform="translate(-414.818 -131.322)"/></g></g><path d="M412.364,114.434a20.348,20.348,0,0,0,6.515,13.726c5.911,5.544,17.4,17.646,24.833,17.808,10.6.23,32.516-18.551,32.516-18.551l-4.533-11.868-27.181,13.03-13.959-18.2a13.238,13.238,0,0,0-9.637-5.246,8.29,8.29,0,0,0-6.427,2.025c-1.815,1.728-2.268,4.492-2.126,7.273" transform="translate(-163.596 -41.703)" fill="#0a4bbf"/><path d="M487.754,131.823l5.525,14.985,4.622-3.273-4.939-14.153Z" transform="translate(-193.516 -51.332)" fill="#fff"/><path d="M412.35,114.379s-.038-.31-.045-.912a13.073,13.073,0,0,1,.221-2.647,7.032,7.032,0,0,1,1.921-3.775,7.166,7.166,0,0,1,2.284-1.46,9.077,9.077,0,0,1,3.01-.6,12.767,12.767,0,0,1,6.861,1.741,13.729,13.729,0,0,1,3.166,2.523c.483.51.916,1.083,1.355,1.652l1.341,1.743,12.148,15.8-.173-.042,27.175-13.043.153-.074.061.159,3.232,8.458,1.3,3.41.04.1-.084.071a158.9,158.9,0,0,1-13.708,10.32c-2.309,1.527-4.617,2.969-6.959,4.234a42.374,42.374,0,0,1-7.13,3.171,17.751,17.751,0,0,1-3.688.8,10.788,10.788,0,0,1-1.863-.008,11.048,11.048,0,0,1-1.79-.392,24.242,24.242,0,0,1-6.208-3.2,84.5,84.5,0,0,1-9.624-7.973c-1.395-1.3-2.7-2.564-3.933-3.758l-1.8-1.735c-.583-.557-1.158-1.092-1.679-1.644a20.96,20.96,0,0,1-4.194-6.5,19.217,19.217,0,0,1-1.254-4.725c-.074-.554-.108-.98-.119-1.266s-.017-.433-.017-.433.022.145.049.43.065.708.149,1.26a19.765,19.765,0,0,0,1.3,4.688,21,21,0,0,0,4.208,6.422c.519.544,1.094,1.073,1.681,1.629l1.807,1.728c1.238,1.188,2.548,2.443,3.946,3.74a84.945,84.945,0,0,0,9.619,7.92,24.037,24.037,0,0,0,6.144,3.151,10.755,10.755,0,0,0,1.743.379,10.616,10.616,0,0,0,1.806,0,17.5,17.5,0,0,0,3.626-.8,42.23,42.23,0,0,0,7.076-3.16c2.33-1.263,4.63-2.7,6.931-4.227a159.821,159.821,0,0,0,13.674-10.3l-.045.176-1.3-3.41-3.23-8.458.214.085L444.56,128.652l-.1.049-.069-.091-12.11-15.826-1.336-1.747a21.077,21.077,0,0,0-1.336-1.641,13.571,13.571,0,0,0-3.107-2.5,12.618,12.618,0,0,0-6.755-1.748,8.957,8.957,0,0,0-2.961.573,7.063,7.063,0,0,0-2.249,1.416,6.973,6.973,0,0,0-1.923,3.7,13.816,13.816,0,0,0-.262,2.63c0,.3,0,.528,0,.681s0,.231,0,.231" transform="translate(-163.581 -41.649)" fill="#263238"/><path d="M464.964,149.9a17.126,17.126,0,0,1,.138-2.785,17.215,17.215,0,0,1,.279-2.774,16.031,16.031,0,0,1-.417,5.558" transform="translate(-184.462 -57.267)" fill="#263238"/><g transform="translate(250.096 60.268)" opacity="0.3"><g clip-path="url(#n)"><path d="M414.581,100.561c-.107.033,18.119,3.688,18.119,3.688l-.906-4.342-.259,2.967s-15.551-2.742-16.954-2.313" transform="translate(-414.581 -99.905)"/></g></g><path d="M405.771,173.614a1.551,1.551,0,0,1-.036-.36c-.01-.27-.023-.611-.04-1.031-.024-.9-.077-2.19-.159-3.788-.156-3.2-.495-7.608-.9-12.48s-.705-9.292-.8-12.5c-.053-1.6-.073-2.9-.059-3.8.008-.42.014-.762.019-1.032a1.537,1.537,0,0,1,.028-.36,1.579,1.579,0,0,1,.035.36c.011.27.024.611.04,1.031.023.895.077,2.189.159,3.788.155,3.2.495,7.609.9,12.482s.7,9.29.8,12.5c.053,1.6.073,2.9.059,3.8-.008.42-.014.763-.019,1.033a1.567,1.567,0,0,1-.028.36" transform="translate(-160.197 -54.859)" fill="#263238"/></g></g><g transform="translate(897.791 925.86)"><g clip-path="url(#a)"><path d="M213.15,405.07l17.014-5.82s11.629,15.34,14.879,14.571l-10.1-33.4-26.883,7.979Z" transform="translate(-82.549 -150.934)" fill="#455a64"/><path d="M237.119,394.308a1.424,1.424,0,0,1,1.271-1.413,1.369,1.369,0,0,1,1.412,1.248,1.5,1.5,0,0,1-1.354,1.49c-.7-.031-1.463-.775-1.325-1.461" transform="translate(-94.072 -155.879)" fill="#e0e0e0"/><path d="M252.064,380.034l-2.605.77,9.916,32.055s1.1,1.291,2.093.807Z" transform="translate(-98.973 -150.778)" fill="#e0e0e0"/><path d="M244.421,410.245c.162-.054-.011-.892.271-1.853.256-.968.837-1.6.727-1.726-.077-.141-.978.4-1.3,1.567s.162,2.093.3,2.012" transform="translate(-96.81 -161.336)" fill="#263238"/><path d="M248.739,415.773c.17-.01.233-.8.755-1.563.5-.778,1.2-1.143,1.147-1.3-.021-.161-1.01.014-1.641.975s-.417,1.935-.261,1.891" transform="translate(-98.62 -163.8)" fill="#263238"/><path d="M255.181,418.836c-.011-.159-.894-.139-1.66.549s-.892,1.559-.735,1.587c.162.051.491-.589,1.13-1.145.624-.57,1.3-.825,1.265-.992" transform="translate(-100.269 -166.141)" fill="#263238"/><path d="M237.225,411.78c.128-.113-.323-.793-.539-1.734-.235-.937-.143-1.747-.308-1.79-.147-.059-.539.824-.268,1.928s1.012,1.714,1.116,1.6" transform="translate(-93.639 -161.974)" fill="#263238"/><path d="M193.134,344.661c-.655-.181-29.469,30.73-30.125,35.837s.393,9.562,3.8,12.443,42.174-6.549,42.174-6.549l-3.667-16.241,14.014-4.715L206.8,342.515Z" transform="translate(-64.601 -135.893)" fill="#0a4bbf"/><g transform="translate(120.794 214.115)" opacity="0.3"><g clip-path="url(#p)"><path d="M201.162,356.439l-.923.992s16.516,17.326,21.583,17.089l8.109-2.747L202.5,354.936Z" transform="translate(-200.239 -354.936)"/></g></g><path d="M215.687,389.026c.024.083-5.992,1.924-13.436,4.112s-13.5,3.893-13.525,3.81,5.991-1.924,13.437-4.112,13.5-3.893,13.524-3.81" transform="translate(-74.877 -154.345)" fill="#263238"/><path d="M167.263,388.8l5.6,17.768s-16.179,11.66-15.464,15.044l34.841-9.622-7.591-28.043Z" transform="translate(-62.439 -152.33)" fill="#455a64"/><path d="M199.292,414a1.476,1.476,0,0,1,1.432,1.352,1.418,1.418,0,0,1-1.328,1.431,1.556,1.556,0,0,1-1.509-1.44,1.472,1.472,0,0,1,1.546-1.336" transform="translate(-78.511 -164.249)" fill="#e0e0e0"/><path d="M192.417,429.847l-.732-2.718L158.236,436.6s-1.365,1.1-.888,2.148Z" transform="translate(-62.388 -169.463)" fill="#e0e0e0"/><path d="M182.029,421.145c.052.169.925.011,1.913.327,1,.289,1.631.907,1.769.8.148-.077-.387-1.023-1.59-1.384s-2.172.115-2.092.261" transform="translate(-72.218 -166.931)" fill="#263238"/><path d="M176.666,425.479c.006.176.823.261,1.6.822.793.537,1.153,1.275,1.321,1.22.167-.017.01-1.046-.969-1.724s-1.993-.481-1.951-.318" transform="translate(-70.092 -168.745)" fill="#263238"/><path d="M173.81,432.081c.165-.007.166-.922-.527-1.733s-1.593-.962-1.626-.8c-.057.166.6.524,1.157,1.2.576.661.822,1.365,1,1.335" transform="translate(-68.103 -170.4)" fill="#263238"/><path d="M180.652,413.675c.114.136.829-.315,1.809-.515.976-.22,1.813-.1,1.862-.274.065-.15-.84-.578-1.991-.326s-1.8,1.005-1.68,1.115" transform="translate(-71.668 -163.652)" fill="#263238"/><g transform="translate(117.899 218.033)" opacity="0.3"><g clip-path="url(#q)"><path d="M207.591,397.131l-2.145-8.425,1.6-.744-9.745-26.53-1.86,1.619,7.659,24.3,2.74,10.144Z" transform="translate(-195.439 -361.431)"/></g></g><path d="M167.463,311.54a13.677,13.677,0,0,0-10.966,2.35,10.06,10.06,0,0,0-4.092,10.063c1.571,11,15.631,48.557,15.631,48.557l19.454-5.849c.111-.034.221-.354.16-.256-.16.256-9.871-31.03-9.626-30.663.262.393,19.633,16.022,27.684,18.9a17.849,17.849,0,0,0,20.392-6.088c1.886-2.638,2.019-14.22,0-20.341,0,0-56.145-15.917-57.192-16.309a11.577,11.577,0,0,0-1.444-.364" transform="translate(-60.413 -123.486)" fill="#0a4bbf"/><path d="M176.139,330.712a26.378,26.378,0,0,1,11.4,18.531" transform="translate(-69.883 -131.21)" fill="#0a4bbf"/><path d="M226.285,347.985s-.075.127-.234.369a11.893,11.893,0,0,1-.772,1.031,17.6,17.6,0,0,1-3.749,3.27,19.731,19.731,0,0,1-3.2,1.715,18.5,18.5,0,0,1-4.181,1.164,17.516,17.516,0,0,1-5.012.008,17.881,17.881,0,0,1-5.382-1.711c-.9-.426-1.793-.919-2.709-1.417-.9-.536-1.836-1.045-2.751-1.64-.925-.579-1.871-1.17-2.813-1.808-.953-.621-1.91-1.279-2.881-1.955-3.886-2.7-7.96-5.75-12.18-9.113l-1.584-1.284c-.264-.224-.523-.432-.794-.674l-.206-.194c.091-.007-.241-.02.2-.021.042-.156.011-.042.023-.068l.013.057.033.122.145.5,1.246,4.024q1.287,4.069,2.636,8.338l5.661,17.755.047.147-.148.044-19.705,5.93-.141.042-.051-.138c-1.276-3.426-2.606-7.077-3.929-10.776-2.815-7.892-5.5-15.624-7.853-23.168-1.182-3.77-2.288-7.495-3.159-11.2-.24-.921-.4-1.857-.571-2.786a12.424,12.424,0,0,1-.245-2.814,9.781,9.781,0,0,1,1.617-5.274,12.882,12.882,0,0,1,8.964-5.309,13.971,13.971,0,0,1,5.1.253l1.222.313,1.184.353,2.339.7,17.2,5.132,24.908,7.454,6.768,2.042,1.758.539c.4.123.6.194.6.194s-.206-.05-.605-.163l-1.766-.509-6.786-1.986-24.944-7.36-17.224-5.1-2.341-.694-1.185-.351-1.192-.3a13.706,13.706,0,0,0-5-.241,13.223,13.223,0,0,0-4.874,1.644,11.7,11.7,0,0,0-3.884,3.551,9.492,9.492,0,0,0-1.564,5.122,12.132,12.132,0,0,0,.244,2.759c.169.921.329,1.847.569,2.766.871,3.691,1.977,7.412,3.16,11.178,2.359,7.536,5.041,15.265,7.855,23.154,1.323,3.7,2.652,7.348,3.926,10.773l-.191-.1,19.708-5.92-.1.191-5.645-17.761-2.625-8.342L178,336.411l-.145-.5-.034-.127-.016-.069c.007-.046-.029.047.014-.131.319.086.217-.042.244.015l.174.157.775.659,1.579,1.284c4.209,3.366,8.274,6.423,12.148,9.128.968.677,1.921,1.336,2.871,1.959.939.639,1.881,1.232,2.8,1.812.912.6,1.848,1.106,2.739,1.644.911.5,1.8.993,2.693,1.419a17.749,17.749,0,0,0,5.324,1.715,17.38,17.38,0,0,0,4.965.013,18.471,18.471,0,0,0,4.153-1.133,19.823,19.823,0,0,0,3.191-1.684,17.965,17.965,0,0,0,3.765-3.219c.357-.438.635-.767.79-1.011s.256-.353.256-.353" transform="translate(-60.321 -123.398)" fill="#263238"/><path d="M180.225,337.576a7.979,7.979,0,0,1,1.6.9,24.469,24.469,0,0,1,3.477,2.754A21.607,21.607,0,0,1,188.2,344.6a12.83,12.83,0,0,1,.71,1.143,1.511,1.511,0,0,1,.207.45c-.043.026-.418-.565-1.1-1.463a27.717,27.717,0,0,0-2.927-3.271,32.752,32.752,0,0,0-3.387-2.8,15.744,15.744,0,0,1-1.478-1.079" transform="translate(-71.504 -133.932)" fill="#263238"/><path d="M191.23,333.985a6.75,6.75,0,0,1,.685,1.471,26.5,26.5,0,0,1,1.7,7.623,6.76,6.76,0,0,1,0,1.622,10.682,10.682,0,0,1-.224-1.6c-.121-.987-.323-2.347-.651-3.828s-.723-2.8-1.032-3.742a10.79,10.79,0,0,1-.475-1.546" transform="translate(-75.868 -132.508)" fill="#263238"/><path d="M202.511,193.1l5.805,26.776c.987,4.553,1.507,11.444-5.763,12.676-6.389.594-9.253-4.985-10.17-9.235-.435-2.016-.8-3.7-.86-3.9,0,0-6.955.837-8.91-5.8-.945-3.209-2.352-9.976-3.555-16.113a12.892,12.892,0,0,1,9.17-14.885l.642-.18c7.046-1.543,12.293,3.578,13.641,10.665" transform="translate(-70.945 -72.27)" fill="#ffbe9d"/><path d="M199.88,240.626a16.718,16.718,0,0,0,7.954-5s-.712,5.627-7.53,6.9Z" transform="translate(-79.302 -93.483)" fill="#eb996e"/><path d="M182.4,212.03c.153.106,1.033-.37,2.315-.385s2.241.417,2.375.306c.066-.049-.094-.242-.513-.443a4.4,4.4,0,0,0-1.908-.378,4.012,4.012,0,0,0-1.836.442c-.384.215-.509.413-.434.46" transform="translate(-72.359 -83.765)" fill="#263238"/><path d="M199.922,208.157c.182.025.76-.782,1.9-1.362s2.181-.624,2.253-.781c.037-.072-.189-.171-.651-.163a4.451,4.451,0,0,0-1.867.511,4.065,4.065,0,0,0-1.445,1.2c-.249.359-.273.587-.186.6" transform="translate(-79.301 -81.671)" fill="#263238"/><path d="M200.488,212.336a.763.763,0,0,0,.917.542.73.73,0,0,0,.571-.875.764.764,0,0,0-.916-.543.73.73,0,0,0-.572.876" transform="translate(-79.536 -83.889)" fill="#263238"/><path d="M184.345,216.077a.763.763,0,0,0,.917.542.73.73,0,0,0,.571-.875.764.764,0,0,0-.916-.543.73.73,0,0,0-.572.876" transform="translate(-73.131 -85.373)" fill="#263238"/><path d="M195.382,216.589a7.01,7.01,0,0,0-1.747.167c-.27.046-.531.065-.626-.1a1.384,1.384,0,0,1-.043-.824q.1-1.052.214-2.208a35.506,35.506,0,0,0,.273-5.7,35.565,35.565,0,0,0-.731,5.66q-.093,1.157-.178,2.211a1.571,1.571,0,0,0,.153,1.065.684.684,0,0,0,.537.261,1.816,1.816,0,0,0,.461-.063,6.938,6.938,0,0,0,1.686-.471" transform="translate(-76.383 -82.494)" fill="#263238"/><path d="M198.653,200.18c.16.229,1.029-.145,2.125-.311,1.093-.188,2.037-.108,2.114-.375.032-.127-.184-.324-.6-.473a3.5,3.5,0,0,0-1.681-.123,3.465,3.465,0,0,0-1.549.645c-.344.271-.483.526-.411.636" transform="translate(-78.808 -78.894)" fill="#263238"/><path d="M181.536,207.231c.16.18,1-.227,2.061-.478,1.06-.271,1.98-.3,2.05-.533.028-.112-.186-.259-.592-.346a3.827,3.827,0,0,0-1.637.061,3.945,3.945,0,0,0-1.495.709c-.329.267-.46.5-.388.587" transform="translate(-72.017 -81.656)" fill="#263238"/><path d="M219.492,208.208c.1-.081,4.2-2.64,5.332,1.956s-3.714,4.787-3.754,4.657-1.578-6.613-1.578-6.613" transform="translate(-87.083 -82.296)" fill="#ffbe9d"/><path d="M223.4,213.677c.017-.02.094.036.245.065a.825.825,0,0,0,.6-.136,2.041,2.041,0,0,0,.478-2,2.722,2.722,0,0,0-.507-1.091.95.95,0,0,0-.754-.466.419.419,0,0,0-.418.336c-.03.144.022.228,0,.242s-.118-.052-.127-.252a.524.524,0,0,1,.11-.332.621.621,0,0,1,.414-.226,1.158,1.158,0,0,1,1.012.506,2.8,2.8,0,0,1,.594,1.213,2.141,2.141,0,0,1-.678,2.274.882.882,0,0,1-.762.059c-.171-.078-.22-.176-.206-.188" transform="translate(-88.444 -83.239)" fill="#eb996e"/><path d="M200.158,224.949c-.074-.107.778-.564,1.243-1.546a5.311,5.311,0,0,0,.4-1.342c.066-.364.126-.6.179-.591s.084.235.085.617a3.489,3.489,0,0,1-.32,1.477,2.829,2.829,0,0,1-1,1.148c-.325.215-.562.273-.583.236" transform="translate(-79.411 -87.868)" fill="#263238"/><path d="M167.845,191.861a1.282,1.282,0,0,0-.543,1.159,1.507,1.507,0,0,0,1.341,1.247,1.919,1.919,0,0,0,1.7-.83,2.738,2.738,0,0,0-.457.695,1.213,1.213,0,0,0,2.061,1.236l.015-.02a12.032,12.032,0,0,1,.756.973l0,.008.049.062c.151.2.305.407.482.6l0-.015,2.222,2.722c-.288-1.923-1-4.58-1.284-6.5a10.831,10.831,0,0,0,6.85-5.034c.8-1.363,1.328-2.972,2.578-3.943,1.611-1.252,3.879-1.042,5.9-.771l-.095-.056a8.65,8.65,0,0,1,3,1.356,26.919,26.919,0,0,0,3.417,10.931c.288.5,1,1.517,1.569,1.614,1.123.189,1.187-.927,1.7-1.618a2.81,2.81,0,0,1,1.8-.852,42.2,42.2,0,0,0,.292-5.069l.311-1.774-.591-1.8c-1.3-1.438.578-2.7-.322-4.415s-2.3-3.4-4.22-3.672l-.036.026a4.978,4.978,0,0,0-4.811,1.459,6.472,6.472,0,0,0-5.8-3.957,16.02,16.02,0,0,0-8.243,2.366c-1.6,1.058-2.993,2.838-4.611,5.368-.682,1.066-.959,4.252-1.458,5.415Z" transform="translate(-66.374 -69.674)" fill="#263238"/><path d="M185.571,170.415c.344-.011,8.805.44,11.878,6.16s2.793,7.685,2.793,7.685a4.032,4.032,0,0,1,.975.586c.407.34.238,2.337-.863,2.3-8.558-2.164-18.036-.912-28.473,1.2l-8.051,1.27c-2.2.645-3.1.183-2.244-.544.654-.557,6.6-4.209,6.6-4.209l1.1-1.129,2.533-5.166s-.519-.57.2-1.241,6.748-6.711,13.551-6.92" transform="translate(-63.983 -67.612)" fill="#05368d"/><path d="M174.559,191.536s.109-.013.314-.051l.893-.173c.772-.166,1.9-.349,3.3-.556a62.952,62.952,0,0,1,11.005-.508,96.732,96.732,0,0,1,10.974,1.108c1.4.208,2.525.4,3.3.528l.9.146c.206.032.315.042.315.042s-.106-.028-.31-.069l-.893-.171c-.777-.144-1.9-.35-3.3-.571a90.375,90.375,0,0,0-10.985-1.149,60.265,60.265,0,0,0-11.024.549c-2.8.423-4.491.875-4.491.875" transform="translate(-69.256 -75.405)" fill="#263238"/><g transform="translate(112.06 104.011)" opacity="0.3"><g clip-path="url(#r)"><path d="M203.339,173.517s-9.022.079-12.63,2.64l.417-.307-3.436,2.267a2.369,2.369,0,0,1-1.93.568,17.667,17.667,0,0,1,5.14-3.99c3.461-1.869,9.2-3.4,12.438-1.178" transform="translate(-185.761 -172.417)"/></g></g><path d="M200.694,173.57a6.332,6.332,0,0,0-.875-.381,11.119,11.119,0,0,0-2.529-.6,13.206,13.206,0,0,0-3.854.1,11.083,11.083,0,0,0-4.4,1.669,19.888,19.888,0,0,0-1.93,1.509c-.592.523-1.186,1-1.71,1.506a11.975,11.975,0,0,1-1.52,1.371,3.842,3.842,0,0,1-1.638.632c-2.152.4-3.553.178-3.48.025a.352.352,0,0,0,.2.141,2.833,2.833,0,0,0,.7.11,11.9,11.9,0,0,0,2.595-.18,3.929,3.929,0,0,0,1.685-.633,11.877,11.877,0,0,0,1.543-1.374c.519-.5,1.119-.974,1.71-1.495a20.2,20.2,0,0,1,1.919-1.5,11.073,11.073,0,0,1,4.349-1.658,13.394,13.394,0,0,1,3.821-.132,11.729,11.729,0,0,1,2.523.559c.29.1.512.183.661.246s.232.084.232.084" transform="translate(-70.92 -68.435)" fill="#263238"/><g transform="translate(121.253 110.162)" opacity="0.3"><g clip-path="url(#s)"><path d="M214.409,183.818a19.984,19.984,0,0,1-4.46-.021c-1.727-.08-3.426-.086-5.147-.248-1.307-.123-2.835-.171-3.8-.935a1.849,1.849,0,0,0,.847,1.608,8.885,8.885,0,0,0,2.871.724,46.914,46.914,0,0,0,10.285.222,10.988,10.988,0,0,0-.592-1.349" transform="translate(-200.999 -182.614)"/></g></g><path d="M212.843,179.487c1.071.262,1.733.449,1.906,1.293.145.7.149,1.592-.526,1.834a1.763,1.763,0,0,1-.649.062l-11.238-.332a1.644,1.644,0,0,1-1.077-.291,1.116,1.116,0,0,1,.121-1.558,3.061,3.061,0,0,1,1.6-.654,36.685,36.685,0,0,1,9.863-.355" transform="translate(-79.743 -71.144)" fill="#05368d"/><path d="M201.385,181.941a1.063,1.063,0,0,1-.373-.423,1.38,1.38,0,0,1,.212-1.447,3.428,3.428,0,0,1,2.1-.857c.879-.1,1.848-.208,2.867-.282a29.353,29.353,0,0,1,5.224.033c.667.067,1.2.156,1.57.219l.425.077a.662.662,0,0,0,.15.018.6.6,0,0,0-.144-.045l-.42-.1c-.367-.078-.9-.183-1.569-.262a26.766,26.766,0,0,0-5.245-.074c-1.023.074-1.993.18-2.873.293a3.477,3.477,0,0,0-2.16.919,1.43,1.43,0,0,0-.186,1.533.946.946,0,0,0,.285.332.534.534,0,0,0,.136.068" transform="translate(-79.676 -70.9)" fill="#263238"/><path d="M176.851,185.769l6.81-1.311-.248,2.024-7.458,1.114Z" transform="translate(-69.81 -73.183)" fill="#fff"/><path d="M187.129,193.748c0-.038-3.123.048-6.971.192s-6.968.291-6.966.329,3.122-.048,6.972-.192,6.967-.291,6.966-.329" transform="translate(-68.714 -76.866)" fill="#263238"/><path d="M56.47,259.477H51.189v-11.51a6.226,6.226,0,0,1,6.175-6.262h5.521v5.356H57.364a.9.9,0,0,0-.894.907Z" transform="translate(-20.309 -95.896)" fill="#e0e0e0"/><path d="M64.435,250.28a2.615,2.615,0,0,1,1.794-3.162c2.732-.8,6.959-1.811,8.111-.759,1.742,1.591,5.908,5.454,5.908,5.454l8.863,2.121.53,7.953-15.6-4.469s-4.242.227-3.863-2.046c0,0-2.121-.833-1.818-2.121s2.045-1.59,2.045-1.59l-.379-2.273-5.566.975Z" transform="translate(-25.532 -97.564)" fill="#ffbe9d"/><path d="M70.619,243.588a5.34,5.34,0,1,1-5.341-5.341,5.341,5.341,0,0,1,5.341,5.341" transform="translate(-23.78 -94.524)" fill="#fff"/><path d="M65.079,249.031a5.642,5.642,0,1,1,5.642-5.642,5.648,5.648,0,0,1-5.642,5.642m0-10.681a5.039,5.039,0,1,0,5.039,5.038,5.044,5.044,0,0,0-5.039-5.038" transform="translate(-23.582 -94.326)" fill="#e0e0e0"/><path d="M74.864,251.071l-7.045-1.818s-1.894-.53-.909,1.515,3.939,1.591,5.075,2.8,1.78,3.257,6.477,4.015" transform="translate(-26.434 -98.866)" fill="#ffbe9d"/><path d="M78.363,257.489a4.789,4.789,0,0,1-.927-.116A10.035,10.035,0,0,1,75,256.587a6.689,6.689,0,0,1-1.475-1,10.765,10.765,0,0,1-1.337-1.529,3.37,3.37,0,0,0-.726-.74,3.744,3.744,0,0,0-.995-.44,18.507,18.507,0,0,1-2.289-.734,3.6,3.6,0,0,1-1.037-.72,3.323,3.323,0,0,1-.63-1.057,2.448,2.448,0,0,1-.137-.6.769.769,0,0,1,.238-.629.952.952,0,0,1,.61-.191,2.093,2.093,0,0,1,.571.078l3.636.973,2.445.683a5.274,5.274,0,0,1,.886.291,5.29,5.29,0,0,1-.916-.173l-2.47-.586-3.655-.909a1.13,1.13,0,0,0-.912.062c-.2.167-.136.563-.008.9a3.06,3.06,0,0,0,.569.95,3.324,3.324,0,0,0,.943.651,19.423,19.423,0,0,0,2.25.725,3.982,3.982,0,0,1,1.069.485,3.6,3.6,0,0,1,.785.81,10.888,10.888,0,0,0,1.286,1.514,6.623,6.623,0,0,0,1.4.99,11.36,11.36,0,0,0,2.356.864,5.917,5.917,0,0,1,.9.236" transform="translate(-26.335 -98.77)" fill="#eb996e"/><path d="M67.727,244.746l.793-.46-2.31-3.118Z" transform="translate(-26.269 -95.683)" fill="#ff725e"/><path d="M60.757,240.913c.036.039-.259.317-.566.874a5.894,5.894,0,0,0-.687,2.362,6.181,6.181,0,0,0,.281,2.448,8.593,8.593,0,0,1,.369.98,2.3,2.3,0,0,1-.577-.9,5.391,5.391,0,0,1-.386-2.553A5.2,5.2,0,0,1,60,241.671c.375-.558.737-.785.755-.758" transform="translate(-23.475 -95.581)" fill="#263238"/><path d="M104.911,255.893l29.881,3.32,25.454-5.919.233,21.069s-27.8-.985-29.618-1.137-26.577-3.405-26.577-3.405Z" transform="translate(-41.374 -100.494)" fill="#0a4bbf"/><path d="M114.8,258.668l-.162,14.1,5.324.694.116-14.211Z" transform="translate(-45.481 -102.626)" fill="#fff"/><path d="M213.409,232.018l2.233,1.876,14.939,5.018,8.616,12.731s4.016,37.885,3.794,41.2.17,3.936.17,3.936l-45.45-12.92-2.437-20.672,1.072-18.335,2.2-3.439,2.5,4.089,4.41-6.163Z" transform="translate(-77.475 -92.053)" fill="#0a4bbf"/><path d="M240.448,285.547l-45.5-1.731.839,7.409,45.5,2.818Z" transform="translate(-77.346 -112.604)" fill="#fff"/><path d="M192.519,268.8a1.115,1.115,0,0,1,.082.294c.048.231.106.513.176.855.149.744.337,1.824.551,3.162.433,2.676.916,6.39,1.395,10.495s.927,7.819,1.3,10.5c.186,1.3.339,2.377.453,3.174.047.346.086.631.117.864a1.159,1.159,0,0,1,.021.3,1.079,1.079,0,0,1-.083-.294c-.047-.231-.106-.513-.176-.855-.149-.743-.337-1.824-.552-3.162-.432-2.676-.916-6.39-1.395-10.5s-.927-7.818-1.3-10.5c-.186-1.3-.339-2.377-.452-3.174-.047-.346-.086-.631-.118-.865a1.115,1.115,0,0,1-.02-.305" transform="translate(-76.38 -106.648)" fill="#263238"/><path d="M204.848,247.023a2.341,2.341,0,0,1,.326-.43l.979-1.138,3.48-3.911.1-.109.11.1,3.118,2.8.259.234-.23.022c1.874-2.455,3.574-4.654,4.813-6.233l1.479-1.857a4.706,4.706,0,0,1,.574-.655,4.7,4.7,0,0,1-.479.727l-1.4,1.918c-1.194,1.613-2.865,3.834-4.738,6.29l-.1.136-.127-.114-.259-.235-3.1-2.82.206-.01-3.564,3.835-1.041,1.082a2.282,2.282,0,0,1-.4.365" transform="translate(-81.273 -93.573)" fill="#263238"/><path d="M201.1,253.261a8.75,8.75,0,0,1-1.951-2.129l.246,0c-.168.227-.34.472-.509.73a15.683,15.683,0,0,0-1.1,1.993l-.091.2-.122-.171a5.97,5.97,0,0,1-.794-1.245,6,6,0,0,1,.991,1.094l-.213.027a11.149,11.149,0,0,1,1.066-2.069c.173-.264.352-.514.528-.742l.128-.166.118.17c.933,1.349,1.76,2.25,1.7,2.3" transform="translate(-78.07 -99.499)" fill="#263238"/><path d="M147.819,276.252l16.822,13.642,4.059-4.874-16.426-13.868Z" transform="translate(-58.647 -107.58)" fill="#263238"/><path d="M143.03,272.016a14.979,14.979,0,0,0-5.379-3.7,9.873,9.873,0,0,0-7.072-.339l-.224-.56a10.329,10.329,0,0,1,7.541.348,15.26,15.26,0,0,1,5.609,3.882Z" transform="translate(-51.718 -105.879)" fill="#263238"/><path d="M165,283.407a20.332,20.332,0,0,1,4.375.991c1.122.58,4.372,2.743,4.372,2.743l6.571,1.241-1.57,10.848-4.4-2.18-9.686.962s-2.108-.482-2.109-1.99a3.984,3.984,0,0,1-1.877-2.841,43.627,43.627,0,0,1-2.826-4.059c-.232-.657,1.084-2.211,1.084-2.211s2.763,2.344,4.446,2.71,3.2-.3,3.344-1.375c.293-2.19-1.73-4.84-1.73-4.84" transform="translate(-62.618 -112.442)" fill="#e0e0e0"/><g transform="translate(119.759 168.152)" opacity="0.3"><g clip-path="url(#t)"><path d="M198.64,300.272s22.048,7.906,29.447,7.437c6.267-.4,9.35-3.335,9.847-7.437s1.187-21.529,1.187-21.529l-11.83,20.511-28.768-.9Z" transform="translate(-198.523 -278.743)"/></g></g><path d="M229.3,284.866a134.345,134.345,0,0,0,3.329-13.248L235.38,257.1a15.805,15.805,0,0,0-3.575-10.409,9.951,9.951,0,0,0-7.7-4c-7.136.031-6.883,13.184-6.883,13.184l-1.944,18.829-27.919-4.551-1.771,13.424,32.835,7.083a9.765,9.765,0,0,0,8.053-1.551,8.543,8.543,0,0,0,2.823-4.249" transform="translate(-73.633 -96.289)" fill="#0a4bbf"/><path d="M246.073,244.6c0,.053-.569.07-1.446.3a7.631,7.631,0,0,0-5.139,4.441c-.355.834-.455,1.4-.507,1.386a3.654,3.654,0,0,1,.3-1.468,7.153,7.153,0,0,1,5.3-4.576,3.652,3.652,0,0,1,1.5-.085" transform="translate(-94.811 -97.03)" fill="#263238"/><path d="M199.708,290.149l-.992,13.969,5.722,1.234.879-14.289Z" transform="translate(-78.841 -115.116)" fill="#fff"/><path d="M235.265,265.772s-.011.119-.049.349-.1.579-.177,1.018l-.711,3.911c-.315,1.7-.7,3.777-1.144,6.185-.23,1.2-.452,2.5-.732,3.86s-.591,2.8-.936,4.3-.726,3.077-1.165,4.706c-.217.815-.458,1.642-.717,2.481a17.41,17.41,0,0,1-.957,2.515,7.993,7.993,0,0,1-1.625,2.279,8.648,8.648,0,0,1-2.429,1.566,10.138,10.138,0,0,1-5.925.618l-25.96-5.585-7.294-1.574-.141-.03.019-.143c.613-4.635,1.208-9.125,1.777-13.423l.021-.153.152.025,27.912,4.592-.125.1,1.473-13.8c.179-1.611.318-2.864.413-3.726.049-.416.087-.736.115-.965s.049-.328.049-.328,0,.113-.018.331-.048.551-.085.969c-.082.863-.2,2.118-.356,3.732-.325,3.257-.793,7.963-1.376,13.81l-.011.114-.114-.018-27.926-4.51.173-.128c-.565,4.3-1.155,8.79-1.764,13.425l-.122-.173,7.295,1.573,25.948,5.608a9.868,9.868,0,0,0,5.76-.588,8.4,8.4,0,0,0,2.354-1.507,7.732,7.732,0,0,0,1.577-2.2,17.161,17.161,0,0,0,.951-2.475c.261-.834.5-1.656.723-2.468.444-1.623.829-3.192,1.182-4.693s.669-2.935.957-4.295.517-2.651.755-3.852c.466-2.4.867-4.477,1.2-6.175l.769-3.9c.089-.437.159-.773.208-1.013s.081-.343.081-.343" transform="translate(-73.519 -104.96)" fill="#263238"/><path d="M237.769,300.486A15.28,15.28,0,0,1,235.934,298l-1.174-1.824a1.283,1.283,0,0,0-.672-.5c0-.017.088-.058.258-.026a1.149,1.149,0,0,1,.585.384c.375.448.785,1.082,1.265,1.792a15.3,15.3,0,0,1,1.573,2.658" transform="translate(-92.874 -117.295)" fill="#263238"/><g transform="translate(124.556 143.12)" opacity="0.3"><g clip-path="url(#u)"><path d="M206.474,246.5l3.783-2.33,4.174,4.42,5.424-11.342-6.1,8-3.37-3.046Z" transform="translate(-206.474 -237.248)"/></g></g><rect width="6.874" height="17.585" transform="translate(21.646 145.902)" fill="#e0e0e0"/><path d="M44.859,222.843a8.846,8.846,0,1,1-8.845-8.946,8.9,8.9,0,0,1,8.845,8.946" transform="translate(-10.779 -84.864)" fill="#fff"/><path d="M35.816,231.891a9.248,9.248,0,1,1,9.147-9.247,9.208,9.208,0,0,1-9.147,9.247m0-17.891a8.645,8.645,0,1,0,8.544,8.644A8.6,8.6,0,0,0,35.816,214" transform="translate(-10.581 -84.665)" fill="#e0e0e0"/><path d="M40.01,224.914l1.692.491,1.371-6.287Z" transform="translate(-15.874 -86.935)" fill="#ff725e"/><path d="M43.153,242.306a3.061,3.061,0,0,1-1.191.656,8.513,8.513,0,0,1-3.252.439,10.051,10.051,0,0,1-3.21-.67,3.52,3.52,0,0,1-1.189-.655c.025-.046.481.194,1.264.446a12.226,12.226,0,0,0,3.15.565,9.9,9.9,0,0,0,3.168-.336c.788-.227,1.232-.493,1.26-.445" transform="translate(-13.612 -96.041)" fill="#263238"/><path d="M50.824,270.994c0,.087-7.862.094-17.556.015s-17.556-.212-17.555-.3,7.86-.093,17.558-.015,17.554.212,17.553.3" transform="translate(-6.234 -107.377)" fill="#263238"/></g></g><rect width="433" height="269.28" transform="translate(897.791 925.86)" fill="none"/></g></svg>