<svg xmlns="http://www.w3.org/2000/svg" xmlns:xlink="http://www.w3.org/1999/xlink" width="1240" height="543" viewBox="0 0 1240 543"><defs><clipPath id="a"><rect width="1240" height="543" rx="15" transform="translate(-2957 -9699)" fill="#edf8ff"/></clipPath></defs><g transform="translate(2957 9699)" clip-path="url(#a)"><rect width="1240" height="543" rx="15" transform="translate(-2957 -9699)" fill="#edf8ff"/><g transform="translate(5493.5 -1857.5)"><g transform="translate(-8450 -7620.64)"><path d="M1240,186.7v322.14H0V378.309C9.77,372.985,25.524,356,30.068,349.58c18.273-25.815,23.188-63.025,31.942-94.374,8.767-31.385,33.658-63.192,59.261-52.139,19.426,8.384,27,36.007,36.093,58.569,22.582,56.039,71.732,96.633,122.876,94.418,36.1-1.564,74.829-22.314,106.437-.972,35.233,23.787,70.75,121.071,123.062,85.415C552.665,411.242,528.055,326.2,564.095,289c24.025-24.8,61.233-13.3,87.962,6.964s50.811,48.5,81.632,56.243c49.256,12.377,94.784-30.835,135.487-66.874s96.686-67.559,138.7-33.838c26.41,21.194,39.663,63.856,69.229,77.505,31.3,14.45,65.863-11.038,87.423-42.273,14.764-21.389,26.014-46.024,40.77-67.391C1213.931,206.846,1224.954,189.725,1240,186.7ZM127.9,403.13c10.23-.857,20.827-8.021,23.845-19.978,3.43-13.585-3.608-27.491-10.311-39.117q-11.3-19.615-22.607-39.227c-6.516-11.306-15.8-24.039-26.866-21.092-7.273,1.937-12.324,10.626-13.643,19.564s.381,18.1,2.385,26.846C88.024,362.07,94.626,405.91,127.9,403.13ZM952.638,287.68c-2.685,1.04-83.209,42.75-60.534,60.71,7.815,6.19,18.332,2.116,26.262-3.857s15.4-13.894,24.628-15.507c18.5-3.238,36.326,20.1,53.987,12.642,8.251-3.486,14.108-14.039,13.7-24.682-.578-15.072-17.435-31.485-28.982-34.129C971.986,280.635,962.054,284.028,952.638,287.68Z" transform="translate(0 -186.699)" fill="#e2f3ff"/></g><path d="M717.773,181.491c7.967-35.289,34.159-37.6,51.18-28.675,20.595,10.8,20.973,45.448-1.192,69.363-29.45,31.775-96.154,19.654-96.1-8.138C671.689,198.719,711.312,210.112,717.773,181.491Z" transform="translate(-8080.587 -7828.402)" fill="#e2f3ff"/><g transform="translate(-7729.817 -7579.905)"><circle cx="30.911" cy="30.911" r="30.911" fill="#e2f3ff"/></g><path d="M212.485,197.51c27.929,11.307,43.412,35.038,30.121,62.081-16.083,32.725-56.711,33.23-79.416,13.42-36.451-31.806-42.14-99.663-14.7-112.124C170.359,150.952,169.841,180.247,212.485,197.51Z" transform="translate(-8377.802 -7822.64)" fill="#e2f3ff"/></g></g></svg>