<svg xmlns="http://www.w3.org/2000/svg" width="142.587" height="66.209" viewBox="0 0 142.587 66.209"><g transform="translate(142.587 66.209) rotate(180)"><path d="M123.009,12.358c-5.608,0-8.377-2.975-10.6-5.366-2.253-2.42-3.779-3.9-6.65-3.9s-4.395,1.483-6.642,3.9c-2.224,2.391-4.992,5.366-10.6,5.366s-8.377-2.975-10.6-5.366c-2.25-2.42-3.776-3.9-6.645-3.9s-4.392,1.483-6.642,3.9c-2.224,2.391-4.992,5.366-10.6,5.366s-8.374-2.977-10.6-5.368c-2.25-2.418-3.773-3.9-6.64-3.9s-4.389,1.483-6.64,3.9c-2.224,2.393-4.99,5.368-10.6,5.368S11.19,9.383,8.967,6.99c-2.25-2.418-3.773-3.9-6.64-3.9C1.042,3.089,0,2.4,0,1.545S1.042,0,2.327,0c5.6,0,8.372,2.975,10.6,5.366,2.248,2.42,3.773,3.9,6.64,3.9s4.389-1.483,6.64-3.9C28.425,2.975,31.194,0,36.8,0S45.168,2.975,47.39,5.366c2.25,2.42,3.773,3.9,6.642,3.9s4.392-1.483,6.642-3.9C62.9,2.975,65.666,0,71.272,0s8.374,2.975,10.6,5.366c2.248,2.42,3.773,3.9,6.645,3.9s4.392-1.483,6.642-3.9C97.381,2.975,100.152,0,105.758,0s8.38,2.975,10.6,5.366c2.253,2.42,3.779,3.9,6.647,3.9s4.4-1.483,6.65-3.9C131.883,2.975,134.654,0,140.262,0c1.285,0,2.324.691,2.324,1.545s-1.039,1.545-2.324,1.545c-2.872,0-4.4,1.483-6.65,3.9C131.388,9.383,128.62,12.358,123.009,12.358Z" fill="#0a3699"/><path d="M123.009,12.36c-5.608,0-8.377-2.977-10.6-5.366-2.253-2.421-3.779-3.9-6.65-3.9s-4.395,1.483-6.642,3.9c-2.224,2.391-4.992,5.368-10.6,5.368s-8.377-2.977-10.6-5.368c-2.25-2.42-3.776-3.9-6.645-3.9s-4.392,1.483-6.642,3.9c-2.224,2.391-4.992,5.368-10.6,5.368s-8.374-2.978-10.6-5.368c-2.25-2.42-3.773-3.9-6.64-3.9s-4.389,1.483-6.64,3.9c-2.224,2.391-4.99,5.368-10.6,5.368S11.19,9.383,8.967,6.992c-2.25-2.42-3.773-3.9-6.64-3.9C1.042,3.089,0,2.4,0,1.545S1.042,0,2.327,0c5.6,0,8.372,2.977,10.6,5.368,2.248,2.418,3.773,3.9,6.64,3.9s4.389-1.483,6.64-3.9C28.425,2.977,31.194,0,36.8,0S45.168,2.977,47.39,5.368c2.25,2.418,3.773,3.9,6.642,3.9s4.392-1.483,6.642-3.9C62.9,2.977,65.666,0,71.272,0s8.374,2.977,10.6,5.368c2.248,2.418,3.773,3.9,6.645,3.9s4.392-1.483,6.642-3.9C97.381,2.977,100.152,0,105.758,0s8.38,2.977,10.6,5.368c2.253,2.418,3.779,3.9,6.647,3.9s4.4-1.483,6.65-3.9C131.883,2.977,134.654,0,140.262,0c1.285,0,2.324.692,2.324,1.545s-1.039,1.545-2.324,1.545c-2.872,0-4.4,1.483-6.65,3.9C131.388,9.383,128.62,12.36,123.009,12.36Z" transform="translate(0 13.463)" fill="#0a3699"/><path d="M123.009,12.358c-5.608,0-8.377-2.975-10.6-5.366-2.253-2.42-3.779-3.9-6.65-3.9s-4.395,1.483-6.642,3.9c-2.224,2.391-4.992,5.366-10.6,5.366s-8.377-2.975-10.6-5.366c-2.25-2.42-3.776-3.9-6.645-3.9s-4.392,1.483-6.642,3.9c-2.224,2.391-4.992,5.366-10.6,5.366s-8.374-2.975-10.6-5.366c-2.25-2.42-3.773-3.9-6.64-3.9s-4.389,1.483-6.64,3.9c-2.224,2.391-4.99,5.366-10.6,5.366S11.19,9.383,8.967,6.992c-2.25-2.42-3.773-3.9-6.64-3.9C1.042,3.089,0,2.4,0,1.545S1.042,0,2.327,0c5.6,0,8.372,2.977,10.6,5.368,2.248,2.418,3.773,3.9,6.64,3.9s4.389-1.483,6.64-3.9C28.425,2.977,31.194,0,36.8,0S45.168,2.977,47.39,5.366c2.25,2.42,3.773,3.9,6.642,3.9s4.392-1.483,6.642-3.9C62.9,2.977,65.666,0,71.272,0s8.374,2.977,10.6,5.366c2.248,2.42,3.773,3.9,6.645,3.9s4.392-1.483,6.642-3.9C97.381,2.977,100.152,0,105.758,0s8.38,2.977,10.6,5.366c2.253,2.42,3.779,3.9,6.647,3.9s4.4-1.483,6.65-3.9C131.883,2.977,134.654,0,140.262,0c1.285,0,2.324.692,2.324,1.545s-1.039,1.545-2.324,1.545c-2.872,0-4.4,1.483-6.65,3.9C131.388,9.383,128.62,12.358,123.009,12.358Z" transform="translate(0 26.927)" fill="#0a3699"/><path d="M123.009,12.358c-5.608,0-8.377-2.975-10.6-5.366-2.253-2.42-3.779-3.9-6.65-3.9s-4.395,1.483-6.642,3.9c-2.224,2.391-4.992,5.366-10.6,5.366s-8.377-2.975-10.6-5.366c-2.25-2.42-3.776-3.9-6.645-3.9s-4.392,1.483-6.642,3.9c-2.224,2.391-4.992,5.366-10.6,5.366s-8.374-2.975-10.6-5.366c-2.25-2.42-3.773-3.9-6.64-3.9s-4.389,1.483-6.64,3.9c-2.224,2.391-4.99,5.366-10.6,5.366S11.19,9.383,8.967,6.992c-2.25-2.42-3.773-3.9-6.64-3.9C1.042,3.089,0,2.4,0,1.545S1.042,0,2.327,0c5.6,0,8.372,2.977,10.6,5.368,2.248,2.418,3.773,3.9,6.64,3.9s4.389-1.483,6.64-3.9C28.425,2.977,31.194,0,36.8,0S45.168,2.977,47.39,5.366c2.25,2.42,3.773,3.9,6.642,3.9s4.392-1.483,6.642-3.9C62.9,2.977,65.666,0,71.272,0s8.374,2.977,10.6,5.366c2.248,2.42,3.773,3.9,6.645,3.9s4.392-1.483,6.642-3.9C97.381,2.977,100.152,0,105.758,0s8.38,2.977,10.6,5.366c2.253,2.42,3.779,3.9,6.647,3.9s4.4-1.483,6.65-3.9C131.883,2.977,134.654,0,140.262,0c1.285,0,2.324.692,2.324,1.545s-1.039,1.545-2.324,1.545c-2.872,0-4.4,1.483-6.65,3.9C131.388,9.383,128.62,12.358,123.009,12.358Z" transform="translate(0 40.39)" fill="#0a3699"/><path d="M123.009,12.358c-5.608,0-8.377-2.975-10.6-5.366-2.253-2.42-3.779-3.9-6.65-3.9s-4.395,1.483-6.642,3.9c-2.224,2.391-4.992,5.366-10.6,5.366s-8.377-2.975-10.6-5.366c-2.25-2.42-3.776-3.9-6.645-3.9s-4.392,1.483-6.642,3.9c-2.224,2.391-4.992,5.366-10.6,5.366s-8.374-2.975-10.6-5.366c-2.25-2.42-3.773-3.9-6.64-3.9s-4.389,1.483-6.64,3.9c-2.224,2.391-4.99,5.366-10.6,5.366S11.19,9.383,8.967,6.992c-2.25-2.42-3.773-3.9-6.64-3.9C1.042,3.089,0,2.4,0,1.545S1.042,0,2.327,0c5.6,0,8.372,2.977,10.6,5.368,2.248,2.418,3.773,3.9,6.64,3.9s4.389-1.483,6.64-3.9C28.425,2.977,31.194,0,36.8,0S45.168,2.977,47.39,5.366c2.25,2.42,3.773,3.9,6.642,3.9s4.392-1.483,6.642-3.9C62.9,2.977,65.666,0,71.272,0s8.374,2.977,10.6,5.366c2.248,2.42,3.773,3.9,6.645,3.9s4.392-1.483,6.642-3.9C97.381,2.977,100.152,0,105.758,0s8.38,2.977,10.6,5.366c2.253,2.42,3.779,3.9,6.647,3.9s4.4-1.483,6.65-3.9C131.883,2.977,134.654,0,140.262,0c1.285,0,2.324.692,2.324,1.545s-1.039,1.545-2.324,1.545c-2.872,0-4.4,1.483-6.65,3.9C131.388,9.383,128.62,12.358,123.009,12.358Z" transform="translate(0 53.851)" fill="#0a3699"/></g></svg>