<svg xmlns="http://www.w3.org/2000/svg" width="145.4" height="202.704" viewBox="0 0 145.4 202.704"><g transform="translate(-1043.6 -471.182)"><g transform="translate(4130.862 10777.951)"><path d="M449.968,137.364c-10.243-27.283-69.631-106.1-69.631-106.1s-57.823,78.818-68.04,106.1c-9.988,26.594-4.792,93.152,66.075,96.432v.171c.951,0,1.833-.066,2.745-.088.943.022,1.815.088,2.758.088V233.8c70.872-3.28,76.055-69.838,66.093-96.432" transform="translate(-3395.688 -10338.032)" fill="#fff"/><path d="M365.848,148.044v.132c.737,0,1.415-.047,2.118-.068.733.021,1.4.068,2.13.068v-.132c54.744-2.535,58.736-53.939,51.058-74.476-1.79-4.747-5.5-11.513-10.171-19.144-1.96-1.841-4.116-3.5-7.964-3.5-8.777,0-8.777,8.509-17.542,8.509-8.782,0-8.782-8.509-17.559-8.509s-8.769,8.509-17.546,8.509-8.773-8.509-17.546-8.509c-3.937,0-6.093,1.721-8.079,3.613-4.542,7.584-8.164,14.312-9.932,19.033-7.708,20.538-3.7,71.941,51.033,74.476" transform="translate(-3382.827 -10273.927)" fill="#94c0ff"/><path d="M439.395,129.438c-9.478-25.245-64.43-98.175-64.43-98.175s-53.5,72.93-62.957,98.175c-9.242,24.608-4.434,86.194,61.139,89.229v.158c.88,0,1.7-.061,2.54-.081.872.02,1.68.081,2.552.081v-.158c65.578-3.035,70.374-64.621,61.156-89.229" transform="translate(-3390.394 -10328.621)" fill="#00caf2" opacity="0.329"/><text transform="translate(-3049.817 -10162.563)" fill="#fff" font-size="53" font-family="Roboto-Black, Roboto" font-weight="800" letter-spacing="0.09em"><tspan x="0" y="0">02</tspan></text></g></g></svg>