<svg xmlns="http://www.w3.org/2000/svg" width="85" height="61.558" viewBox="0 0 85 61.558"><g transform="translate(85 61.558) rotate(180)"><path d="M177.828,82.636c-3.343,0-4.994-2.787-6.319-5.028-1.343-2.267-2.253-3.657-3.964-3.657s-2.62,1.39-3.96,3.657c-1.326,2.241-2.976,5.028-6.318,5.028s-4.994-2.787-6.319-5.028c-1.341-2.267-2.251-3.657-3.961-3.657s-2.618,1.39-3.96,3.657c-1.326,2.241-2.976,5.028-6.318,5.028s-4.992-2.789-6.316-5.03c-1.341-2.266-2.249-3.655-3.958-3.655s-2.617,1.39-3.958,3.655c-1.326,2.243-2.974,5.03-6.316,5.03s-4.991-2.787-6.316-5.03c-1.341-2.266-2.249-3.655-3.958-3.655a1.449,1.449,0,0,1,0-2.895c3.34,0,4.991,2.787,6.316,5.028,1.34,2.267,2.249,3.657,3.958,3.657s2.617-1.39,3.958-3.657c1.326-2.241,2.976-5.028,6.316-5.028s4.991,2.787,6.315,5.028c1.341,2.267,2.249,3.657,3.96,3.657s2.618-1.39,3.96-3.657c1.326-2.241,2.976-5.028,6.318-5.028s4.992,2.787,6.319,5.028c1.34,2.267,2.249,3.657,3.961,3.657s2.618-1.39,3.96-3.657c1.324-2.241,2.976-5.028,6.318-5.028s5,2.787,6.321,5.028c1.343,2.267,2.252,3.657,3.963,3.657s2.621-1.39,3.964-3.657c1.326-2.241,2.978-5.028,6.321-5.028a1.449,1.449,0,0,1,0,2.895c-1.712,0-2.621,1.39-3.964,3.657C182.823,79.848,181.173,82.636,177.828,82.636Z" transform="translate(-104.499 -71.056)" fill="#008bfd"/><path d="M177.828,90.3c-3.343,0-4.994-2.789-6.319-5.028-1.343-2.269-2.253-3.658-3.964-3.658s-2.62,1.39-3.96,3.657c-1.326,2.241-2.976,5.03-6.318,5.03s-4.994-2.789-6.319-5.03c-1.341-2.267-2.251-3.657-3.961-3.657s-2.618,1.39-3.96,3.657c-1.326,2.241-2.976,5.03-6.318,5.03s-4.992-2.791-6.316-5.03c-1.341-2.267-2.249-3.657-3.958-3.657s-2.617,1.39-3.958,3.657c-1.326,2.241-2.974,5.03-6.316,5.03s-4.991-2.789-6.316-5.03c-1.341-2.267-2.249-3.657-3.958-3.657a1.449,1.449,0,0,1,0-2.894c3.34,0,4.991,2.789,6.316,5.03,1.34,2.266,2.249,3.655,3.958,3.655s2.617-1.39,3.958-3.655c1.326-2.241,2.976-5.03,6.316-5.03s4.991,2.789,6.315,5.03c1.341,2.266,2.249,3.655,3.96,3.655s2.618-1.39,3.96-3.655c1.326-2.241,2.976-5.03,6.318-5.03s4.992,2.789,6.319,5.03c1.34,2.266,2.249,3.655,3.961,3.655s2.618-1.39,3.96-3.655c1.324-2.241,2.976-5.03,6.318-5.03s5,2.789,6.321,5.03c1.343,2.266,2.252,3.655,3.963,3.655s2.621-1.39,3.964-3.655c1.326-2.241,2.978-5.03,6.321-5.03a1.449,1.449,0,0,1,0,2.894c-1.712,0-2.621,1.39-3.964,3.657C182.823,87.51,181.173,90.3,177.828,90.3Z" transform="translate(-104.499 -66.223)" fill="#008bfd"/><path d="M177.828,97.96c-3.343,0-4.994-2.787-6.319-5.028-1.343-2.267-2.253-3.657-3.964-3.657s-2.62,1.39-3.96,3.657c-1.326,2.241-2.976,5.028-6.318,5.028s-4.994-2.787-6.319-5.028c-1.341-2.267-2.251-3.657-3.961-3.657s-2.618,1.39-3.96,3.657c-1.326,2.241-2.976,5.028-6.318,5.028s-4.992-2.787-6.316-5.028c-1.341-2.267-2.249-3.657-3.958-3.657s-2.617,1.39-3.958,3.657c-1.326,2.241-2.974,5.028-6.316,5.028s-4.991-2.787-6.316-5.028c-1.341-2.267-2.249-3.657-3.958-3.657a1.449,1.449,0,0,1,0-2.895c3.34,0,4.991,2.789,6.316,5.03,1.34,2.266,2.249,3.655,3.958,3.655s2.617-1.39,3.958-3.655c1.326-2.241,2.976-5.03,6.316-5.03s4.991,2.789,6.315,5.028c1.341,2.267,2.249,3.657,3.96,3.657s2.618-1.39,3.96-3.657c1.326-2.239,2.976-5.028,6.318-5.028s4.992,2.789,6.319,5.028c1.34,2.267,2.249,3.657,3.961,3.657s2.618-1.39,3.96-3.657c1.324-2.239,2.976-5.028,6.318-5.028s5,2.789,6.321,5.028c1.343,2.267,2.252,3.657,3.963,3.657s2.621-1.39,3.964-3.657c1.326-2.239,2.978-5.028,6.321-5.028a1.449,1.449,0,0,1,0,2.895c-1.712,0-2.621,1.39-3.964,3.657C182.823,95.172,181.173,97.96,177.828,97.96Z" transform="translate(-104.499 -61.39)" fill="#008bfd"/><path d="M177.828,97.96c-3.343,0-4.994-2.787-6.319-5.028-1.343-2.267-2.253-3.657-3.964-3.657s-2.62,1.39-3.96,3.657c-1.326,2.241-2.976,5.028-6.318,5.028s-4.994-2.787-6.319-5.028c-1.341-2.267-2.251-3.657-3.961-3.657s-2.618,1.39-3.96,3.657c-1.326,2.241-2.976,5.028-6.318,5.028s-4.992-2.787-6.316-5.028c-1.341-2.267-2.249-3.657-3.958-3.657s-2.617,1.39-3.958,3.657c-1.326,2.241-2.974,5.028-6.316,5.028s-4.991-2.787-6.316-5.028c-1.341-2.267-2.249-3.657-3.958-3.657a1.449,1.449,0,0,1,0-2.895c3.34,0,4.991,2.789,6.316,5.03,1.34,2.266,2.249,3.655,3.958,3.655s2.617-1.39,3.958-3.655c1.326-2.241,2.976-5.03,6.316-5.03s4.991,2.789,6.315,5.028c1.341,2.267,2.249,3.657,3.96,3.657s2.618-1.39,3.96-3.657c1.326-2.239,2.976-5.028,6.318-5.028s4.992,2.789,6.319,5.028c1.34,2.267,2.249,3.657,3.961,3.657s2.618-1.39,3.96-3.657c1.324-2.239,2.976-5.028,6.318-5.028s5,2.789,6.321,5.028c1.343,2.267,2.252,3.657,3.963,3.657s2.621-1.39,3.964-3.657c1.326-2.239,2.978-5.028,6.321-5.028a1.449,1.449,0,0,1,0,2.895c-1.712,0-2.621,1.39-3.964,3.657C182.823,95.172,181.173,97.96,177.828,97.96Z" transform="translate(-104.499 -48.895)" fill="#008bfd"/><path d="M177.828,97.96c-3.343,0-4.994-2.787-6.319-5.028-1.343-2.267-2.253-3.657-3.964-3.657s-2.62,1.39-3.96,3.657c-1.326,2.241-2.976,5.028-6.318,5.028s-4.994-2.787-6.319-5.028c-1.341-2.267-2.251-3.657-3.961-3.657s-2.618,1.39-3.96,3.657c-1.326,2.241-2.976,5.028-6.318,5.028s-4.992-2.787-6.316-5.028c-1.341-2.267-2.249-3.657-3.958-3.657s-2.617,1.39-3.958,3.657c-1.326,2.241-2.974,5.028-6.316,5.028s-4.991-2.787-6.316-5.028c-1.341-2.267-2.249-3.657-3.958-3.657a1.449,1.449,0,0,1,0-2.895c3.34,0,4.991,2.789,6.316,5.03,1.34,2.266,2.249,3.655,3.958,3.655s2.617-1.39,3.958-3.655c1.326-2.241,2.976-5.03,6.316-5.03s4.991,2.789,6.315,5.028c1.341,2.267,2.249,3.657,3.96,3.657s2.618-1.39,3.96-3.657c1.326-2.239,2.976-5.028,6.318-5.028s4.992,2.789,6.319,5.028c1.34,2.267,2.249,3.657,3.961,3.657s2.618-1.39,3.96-3.657c1.324-2.239,2.976-5.028,6.318-5.028s5,2.789,6.321,5.028c1.343,2.267,2.252,3.657,3.963,3.657s2.621-1.39,3.964-3.657c1.326-2.239,2.978-5.028,6.321-5.028a1.449,1.449,0,0,1,0,2.895c-1.712,0-2.621,1.39-3.964,3.657C182.823,95.172,181.173,97.96,177.828,97.96Z" transform="translate(-104.499 -36.401)" fill="#008bfd"/></g></svg>