<svg xmlns="http://www.w3.org/2000/svg" width="105" height="105" viewBox="0 0 105 105"><g transform="translate(-319 -4380)"><rect width="105" height="105" transform="translate(319 4380)" fill="none"/><g transform="translate(347.496 4401.524)"><g transform="translate(0 1.143)"><path d="M10.605,6.741l-1.034.285A1.9,1.9,0,0,0,8.247,8.35L7.963,9.384,7.677,8.35A1.9,1.9,0,0,0,6.353,7.027L5.319,6.741l1.034-.286A1.9,1.9,0,0,0,7.677,5.132L7.963,4.1l.285,1.034A1.9,1.9,0,0,0,9.572,6.456Z" transform="translate(-5.319 -4.098)" fill="#e4c95c"/></g><g transform="translate(42.513 58.072)"><path d="M49.884,62.733l-.243.067a.446.446,0,0,0-.311.311l-.067.243-.067-.243a.445.445,0,0,0-.311-.311l-.243-.067.243-.067a.446.446,0,0,0,.311-.311l.067-.243.067.243a.446.446,0,0,0,.311.311Z" transform="translate(-48.642 -62.112)" fill="#e4c95c"/></g><g transform="translate(30.554 58.106)"><path d="M37.628,62.734l-.23.063a.422.422,0,0,0-.294.294l-.063.23-.063-.23a.421.421,0,0,0-.294-.294l-.23-.063.23-.063a.421.421,0,0,0,.294-.294l.063-.23.063.23a.422.422,0,0,0,.294.294Z" transform="translate(-36.455 -62.147)" fill="#e4c95c"/></g><g transform="translate(45.742 3.75)"><path d="M55.752,8.666l-.747.206a1.373,1.373,0,0,0-.957.957l-.206.747-.207-.747a1.37,1.37,0,0,0-.957-.956l-.747-.207.747-.207a1.371,1.371,0,0,0,.957-.956l.207-.747.206.747a1.373,1.373,0,0,0,.957.957Z" transform="translate(-51.932 -6.756)" fill="#e4c95c"/></g><g transform="translate(36.479 0)"><path d="M44.778,4.076l-.447.123a.821.821,0,0,0-.572.572l-.123.447-.124-.447a.82.82,0,0,0-.572-.572l-.447-.124.447-.124a.82.82,0,0,0,.572-.572l.124-.447.123.447a.821.821,0,0,0,.572.572Z" transform="translate(-42.492 -2.934)" fill="#e4c95c"/></g><g transform="translate(37.925 6.576)"><path d="M44.376,9.84l-.08.022a.147.147,0,0,0-.1.1l-.022.08-.022-.08a.147.147,0,0,0-.1-.1l-.08-.022.08-.022a.147.147,0,0,0,.1-.1l.022-.08.022.08a.147.147,0,0,0,.1.1Z" transform="translate(-43.966 -9.635)" fill="#e4c95c"/></g><g transform="translate(16.403 4.539)"><path d="M24.277,8.681l-.438.121a.806.806,0,0,0-.562.562l-.121.438-.121-.438a.8.8,0,0,0-.562-.561l-.438-.121.438-.121A.8.8,0,0,0,23.035,8l.121-.438L23.277,8a.806.806,0,0,0,.562.562Z" transform="translate(-22.034 -7.56)" fill="#e4c95c"/></g></g><g transform="translate(343.533 4401.724)"><path d="M50.182,28.191V61.447a2.41,2.41,0,0,1-2.4,2.414H8.114a2.41,2.41,0,0,1-2.4-2.414V12.46a2.408,2.408,0,0,1,2.4-2.4H47.778a2.408,2.408,0,0,1,2.4,2.4V23.039" transform="translate(-1.363 -3.267)" fill="#4dac4a"/><path d="M9.7,59.376V14.686a.633.633,0,0,1,.633-.633H45.7a.633.633,0,0,1,.633.633v44.69a.633.633,0,0,1-.633.633H10.337a.633.633,0,0,1-.633-.633Z" transform="translate(-1.438 -3.341)" fill="#e8f3ff"/><path d="M38.761,15.335H17.534a.978.978,0,0,1-.978-.978V5.118a.978.978,0,0,1,.978-.978H38.761a.978.978,0,0,1,.978.978v9.238A.978.978,0,0,1,38.761,15.335Z" transform="translate(-1.566 -3.156)" fill="#4dac4a"/><path d="M20.556,9.812A1.672,1.672,0,0,1,22.228,8.14H34.217a1.672,1.672,0,0,1,0,3.344H22.228a1.672,1.672,0,0,1-1.672-1.672Z" transform="translate(-1.641 -3.231)" fill="#fff"/><path d="M62.855,39.67v7.079a19.636,19.636,0,0,1-9.342,16.719l-2.065,1.27-2.065-1.27a19.636,19.636,0,0,1-9.342-16.719V39.67a4.6,4.6,0,0,0,4.594-4.6H58.262A4.6,4.6,0,0,0,62.855,39.67Z" transform="translate(-2.005 -3.734)" fill="#f9f7ec"/><g transform="translate(0 0)"><path d="M65.5,63.353H53.825a20.783,20.783,0,0,0,9.287-17.2V39.073a.984.984,0,0,0-.981-.981,3.623,3.623,0,0,1-3.611-3.621.984.984,0,0,0-.981-.981H51.081V28.061a.981.981,0,1,0-1.963,0v5.428h-1.96V14.482a1.615,1.615,0,0,0-1.614-1.614H40.433v-1.96H47.7a1.424,1.424,0,0,1,1.423,1.423V22.909a.981.981,0,1,0,1.963,0V12.331A3.39,3.39,0,0,0,47.7,8.945H40.433V5.1a1.96,1.96,0,0,0-1.953-1.963H17.245A1.96,1.96,0,0,0,15.292,5.1V8.945H8.031a3.39,3.39,0,0,0-3.386,3.386V61.318a3.368,3.368,0,0,0,.693,2.035H2.262a.981.981,0,1,0,0,1.963H65.5a.981.981,0,0,0,0-1.963ZM61.149,39.966v6.182c0,12.012-10.042,16.464-10.421,16.839-.25-.254-10.431-5.021-10.431-16.839V39.966a5.587,5.587,0,0,0,4.5-4.514H56.644a5.587,5.587,0,0,0,4.5,4.514ZM38.471,5.1v9.234H17.255L17.245,5.1Zm.01,11.2a1.947,1.947,0,0,0,1.884-1.462s0,0,0,0H45.2V33.489H43.907a.984.984,0,0,0-.981.981,3.623,3.623,0,0,1-3.611,3.621.984.984,0,0,0-.981.981v3.454H25.3a.981.981,0,0,0,0,1.963H38.333v1.658a20.812,20.812,0,0,0,.981,6.32H24.88a.981.981,0,1,0,0,1.963H40.051a20.382,20.382,0,0,0,2.628,4.393H10.528V14.831H15.36s0,0,0,0A1.947,1.947,0,0,0,17.245,16.3H38.481ZM6.608,12.331a1.425,1.425,0,0,1,1.423-1.423h7.262v1.96H10.179a1.615,1.615,0,0,0-1.614,1.614v44.69a1.615,1.615,0,0,0,1.614,1.614H44.434l0,0a18.406,18.406,0,0,0,2.314,1.961H8.031a1.429,1.429,0,0,1-1.423-1.433Z" transform="translate(-1.28 -3.137)" fill="#2d346a"/><path d="M14.08,21.391a.982.982,0,0,0,0,1.388l2.54,2.546a.982.982,0,0,0,1.39,0l5.422-5.431a.982.982,0,0,0-1.39-1.387l-4.727,4.735-1.846-1.85a.981.981,0,0,0-1.388,0Z" transform="translate(-1.514 -3.419)" fill="#2d346a"/><path d="M22.041,28.828l-4.727,4.735-1.846-1.85a.982.982,0,0,0-1.39,1.387l2.54,2.546a.982.982,0,0,0,1.39,0l5.422-5.431a.982.982,0,0,0-1.39-1.387Z" transform="translate(-1.514 -3.612)" fill="#2d346a"/><path d="M22.041,39.15l-4.727,4.735-1.846-1.85a.982.982,0,0,0-1.39,1.387l2.54,2.546a.982.982,0,0,0,1.39,0l5.422-5.431a.982.982,0,0,0-1.39-1.387Z" transform="translate(-1.514 -3.805)" fill="#2d346a"/><path d="M22.041,49.472l-4.727,4.735-1.846-1.85a.982.982,0,0,0-1.39,1.387l2.54,2.546a.982.982,0,0,0,1.39,0l5.422-5.431a.982.982,0,0,0-1.39-1.387Z" transform="translate(-1.514 -3.998)" fill="#2d346a"/><path d="M25.739,24.244H41.624a.981.981,0,1,0,0-1.963H25.739a.981.981,0,1,0,0,1.963Z" transform="translate(-1.719 -3.495)" fill="#2d346a"/><path d="M25.739,34.994H41.624a.981.981,0,1,0,0-1.963H25.739a.981.981,0,0,0,0,1.963Z" transform="translate(-1.719 -3.696)" fill="#2d346a"/><path d="M22.209,12.446H34.2a2.654,2.654,0,0,0,0-5.309H22.209a2.654,2.654,0,0,0,0,5.309Zm0-3.346H34.2a.692.692,0,0,1,0,1.384H22.209a.692.692,0,0,1,0-1.384Z" transform="translate(-1.622 -3.212)" fill="#2d346a"/><path d="M44.814,49.854a.977.977,0,0,0,0,1.384l3.709,3.709a.96.96,0,0,0,1.384,0l8.341-8.341a.978.978,0,0,0-1.384-1.384L49.22,52.866,46.2,49.854A.977.977,0,0,0,44.814,49.854Z" transform="translate(-2.089 -3.919)" fill="#2d346a"/></g></g></g></svg>