<svg xmlns="http://www.w3.org/2000/svg" xmlns:xlink="http://www.w3.org/1999/xlink" width="390.917" height="269.279" viewBox="0 0 390.917 269.279"><defs><clipPath id="a"><rect width="390.917" height="269.279" fill="none"/></clipPath><clipPath id="c"><rect width="11.973" height="11.682" fill="#4dac4a"/></clipPath><clipPath id="e"><rect width="55.09" height="24.905" fill="#4dac4a"/></clipPath><clipPath id="f"><rect width="71.272" height="24.354" fill="#4dac4a"/></clipPath><clipPath id="g"><rect width="13.228" height="19.778" fill="#4dac4a"/></clipPath><clipPath id="i"><rect width="292.851" height="14.862" fill="none"/></clipPath><clipPath id="j"><rect width="19.177" height="10.069" fill="none"/></clipPath><clipPath id="k"><rect width="19.176" height="10.069" fill="none"/></clipPath><clipPath id="l"><rect width="12.484" height="6.404" fill="none"/></clipPath><clipPath id="m"><rect width="12.483" height="6.404" fill="none"/></clipPath><clipPath id="n"><rect width="13.124" height="8.767" fill="none"/></clipPath><clipPath id="o"><rect width="8.931" height="8.767" fill="none"/></clipPath><clipPath id="r"><rect width="8.931" height="6.058" fill="none"/></clipPath><clipPath id="s"><rect width="14.703" height="8.767" fill="none"/></clipPath><clipPath id="u"><rect width="9.466" height="2.819" fill="none"/></clipPath><clipPath id="aa"><rect width="13.123" height="8.767" fill="none"/></clipPath><clipPath id="aj"><rect width="12.017" height="11.641" fill="#266524"/></clipPath><clipPath id="ak"><rect width="10.018" height="9.817" fill="#266524"/></clipPath><clipPath id="al"><rect width="19.106" height="29.21" fill="#266524"/></clipPath><clipPath id="am"><rect width="20.5" height="27.48" fill="#266524"/></clipPath><clipPath id="an"><rect width="16.962" height="27.296" fill="#266524"/></clipPath><clipPath id="ap"><rect width="14.055" height="18.964" fill="#2c792a"/></clipPath><clipPath id="aq"><rect width="37.293" height="69.459" fill="none"/></clipPath><clipPath id="ar"><rect width="37.275" height="4.024" fill="#363a3c"/></clipPath><clipPath id="as"><rect width="10.825" height="64.07" fill="none"/></clipPath><clipPath id="at"><rect width="9.898" height="12.53" fill="none"/></clipPath><clipPath id="au"><rect width="9.898" height="11.556" fill="none"/></clipPath><clipPath id="av"><rect width="9.898" height="11.555" fill="none"/></clipPath><clipPath id="aw"><rect width="89.2" height="235.254" fill="none"/></clipPath><clipPath id="ax"><rect width="32.058" height="65.482" fill="none"/></clipPath><clipPath id="ay"><rect width="32.722" height="29.538" fill="none"/></clipPath><clipPath id="az"><rect width="24.898" height="29.538" fill="none"/></clipPath><clipPath id="ba"><rect width="20.99" height="25.629" fill="none"/></clipPath><clipPath id="bb"><rect width="32.211" height="58.367" fill="none"/></clipPath><clipPath id="bc"><rect width="22.992" height="58.367" fill="none"/></clipPath><clipPath id="bd"><rect width="17.982" height="8.453" fill="none"/></clipPath><clipPath id="be"><rect width="15.244" height="7.333" fill="none"/></clipPath><clipPath id="bf"><rect width="67.567" height="8.344" fill="none"/></clipPath><clipPath id="bg"><rect width="7.236" height="8.96" fill="none"/></clipPath><clipPath id="bh"><rect width="5.277" height="24.057" fill="none"/></clipPath><clipPath id="bi"><rect width="4.512" height="4.335" fill="none"/></clipPath><clipPath id="bj"><rect width="4.675" height="3.808" fill="none"/></clipPath><clipPath id="bk"><rect width="3.783" height="3.667" fill="none"/></clipPath><clipPath id="bl"><rect width="68.704" height="88.523" fill="none"/></clipPath><clipPath id="bm"><rect width="63.915" height="57.513" fill="none"/></clipPath><clipPath id="bn"><rect width="10.828" height="44.51" fill="none"/></clipPath><clipPath id="bq"><rect width="26.485" height="14.408" fill="none"/></clipPath><clipPath id="br"><rect width="63.915" height="58.001" fill="none"/></clipPath><clipPath id="bs"><rect width="2.938" height="2.938" fill="none"/></clipPath><clipPath id="bt"><rect width="2.938" height="2.939" fill="none"/></clipPath><clipPath id="bu"><rect width="5.252" height="5.252" fill="none"/></clipPath><clipPath id="bw"><rect width="1.933" height="1.933" fill="none"/></clipPath><clipPath id="by"><rect width="3.469" height="3.469" fill="none"/></clipPath><clipPath id="bz"><rect width="3.468" height="3.468" fill="none"/></clipPath><clipPath id="ca"><rect width="3.469" height="3.468" fill="none"/></clipPath><clipPath id="cb"><rect width="2.327" height="2.327" fill="none"/></clipPath><clipPath id="cd"><rect width="7.725" height="7.725" fill="none"/></clipPath><clipPath id="ce"><rect width="1.222" height="1.222" fill="none"/></clipPath><clipPath id="cg"><rect width="1.221" height="1.222" fill="none"/></clipPath><clipPath id="ci"><rect width="2.241" height="2.241" fill="none"/></clipPath><clipPath id="ck"><rect width="0.619" height="0.618" fill="none"/></clipPath><clipPath id="cl"><rect width="15.641" height="83.344" fill="none"/></clipPath><clipPath id="cm"><rect width="14.96" height="11.618" fill="none"/></clipPath></defs><g transform="translate(-284.791 -925.86)"><rect width="390.917" height="0.195" transform="translate(284.791 1159.83)" fill="#ebebeb"/><rect width="25.896" height="0.195" transform="translate(610.643 1172.414)" fill="#ebebeb"/><rect width="6.796" height="0.195" transform="translate(536.953 1174.535)" fill="#ebebeb"/><rect width="15.005" height="0.195" transform="translate(594.855 1165.154)" fill="#ebebeb"/><rect width="33.77" height="0.195" transform="translate(325.805 1166.468)" fill="#ebebeb"/><rect width="4.951" height="0.195" transform="translate(366.536 1166.468)" fill="#ebebeb"/><rect width="73.239" height="0.195" transform="translate(387.579 1169.77)" fill="#ebebeb"/><path d="M85.189,160.981a6.788,6.788,0,0,1-.211-1.4c-.172-2.9-2.938-2.438-5.291-2.831-1.838-.307,3.03-4.951-.677-6.449a3.259,3.259,0,0,1-1.789-1.247,2.105,2.105,0,0,1,.808-2.57,4.982,4.982,0,0,1,2.814-.706c.6-.735.113-1.841-.472-2.592s-1.3-1.6-1.08-2.53c.335-1.4,2.288-1.448,3.7-1.176a10.17,10.17,0,0,0,.765-2.86c.253-.96,1.016-1.967,2-1.847.928.113,1.495,1.161,2.4,1.376,1.057.249,1.972-.686,2.8-1.387s2.279-1.139,2.85-.215c.342.553.138,1.324.493,1.868.616.944,2.076.358,2.983-.311s2.351-1.275,2.989-.346a3.867,3.867,0,0,1,.351.969c.429,1.238,1.767,1.854,2.809,2.648s1.868,2.372.986,3.341c-.435.478-1.2.672-1.417,1.281-.27.761.507,1.442,1.123,1.966,1.024.871,1.21,3.478-.144,4.191-.568.3-1.4.391-1.542,1.018-.125.561.444,1,.822,1.43a2.691,2.691,0,0,1-.824,4.007c-.325.156-.725.283-.845.623a1.274,1.274,0,0,0,.078.757,4,4,0,0,1,.13,1.451.663.663,0,0,1-.177.455.7.7,0,0,1-.429.121c-1.955.087-2.9-.605-4.092,1.1a1.391,1.391,0,0,1-.407.432,1.25,1.25,0,0,1-.539.134c-1.344.111-2.223-.728-3.451-.884-1.7-.217-2.066.661-3.568,1.367-2.362,1.11-3.507.426-3.951-1.183" transform="translate(267.984 896.621)" fill="#4dac4a"/><path d="M113.994,157.869a6.788,6.788,0,0,1-.211-1.4c-.172-2.9-2.938-2.438-5.291-2.831-1.838-.307,3.03-4.951-.677-6.449a3.255,3.255,0,0,1-1.789-1.247,2.105,2.105,0,0,1,.808-2.57,4.975,4.975,0,0,1,2.814-.705c.6-.736.113-1.842-.472-2.593s-1.3-1.6-1.08-2.53c.335-1.4,2.288-1.448,3.7-1.176a10.17,10.17,0,0,0,.765-2.86c.253-.96,1.016-1.967,2-1.847.929.113,1.5,1.161,2.406,1.376,1.057.249,1.972-.686,2.8-1.387s2.279-1.139,2.85-.215c.342.553.137,1.324.493,1.868.616.944,2.076.358,2.983-.311s2.351-1.275,2.989-.346a3.868,3.868,0,0,1,.351.969c.429,1.238,1.767,1.855,2.809,2.648s1.868,2.372.986,3.341c-.435.478-1.2.672-1.417,1.281-.271.761.507,1.443,1.123,1.966,1.024.871,1.21,3.478-.144,4.191-.568.3-1.4.391-1.542,1.019-.125.561.444,1,.822,1.429a2.692,2.692,0,0,1-.824,4.007c-.325.156-.725.283-.845.623a1.274,1.274,0,0,0,.078.757,4,4,0,0,1,.13,1.451.663.663,0,0,1-.177.455.7.7,0,0,1-.429.121c-1.955.087-2.9-.605-4.092,1.1a1.391,1.391,0,0,1-.407.432,1.262,1.262,0,0,1-.539.135c-1.344.11-2.223-.729-3.451-.885-1.7-.217-2.066.661-3.568,1.367-2.362,1.111-3.507.426-3.951-1.183" transform="translate(261.7 897.3)" fill="#4dac4a"/><path d="M116.77,139.525a6.842,6.842,0,0,1-.211-1.4c-.172-2.9-2.938-2.438-5.291-2.831-1.838-.307,3.03-4.951-.677-6.449A3.255,3.255,0,0,1,108.8,127.6a2.105,2.105,0,0,1,.808-2.57,4.982,4.982,0,0,1,2.814-.706c.605-.735.113-1.84-.472-2.592s-1.3-1.6-1.08-2.53c.335-1.4,2.288-1.448,3.7-1.176a10.17,10.17,0,0,0,.765-2.86c.253-.96,1.016-1.967,2-1.847.928.113,1.495,1.161,2.4,1.376,1.057.249,1.972-.686,2.8-1.387s2.279-1.139,2.85-.215c.342.553.138,1.324.493,1.868.616.944,2.076.358,2.983-.311s2.351-1.275,2.989-.346a3.868,3.868,0,0,1,.351.969c.429,1.238,1.767,1.854,2.809,2.648s1.868,2.372.986,3.341c-.435.478-1.2.672-1.417,1.281-.271.761.507,1.443,1.123,1.966,1.024.871,1.21,3.478-.144,4.191-.568.3-1.4.391-1.542,1.018-.124.561.444,1,.823,1.43a2.691,2.691,0,0,1-.824,4.007c-.325.156-.725.283-.845.623a1.274,1.274,0,0,0,.078.757,4,4,0,0,1,.13,1.451.659.659,0,0,1-.177.455.689.689,0,0,1-.428.121c-1.956.087-2.9-.605-4.093,1.1a1.4,1.4,0,0,1-.407.433,1.273,1.273,0,0,1-.539.134c-1.344.11-2.223-.729-3.451-.885-1.7-.217-2.066.661-3.568,1.367-2.362,1.111-3.507.426-3.951-1.183" transform="translate(261.094 901.302)" fill="#4dac4a"/><path d="M135.745,148.662a6.84,6.84,0,0,1-.211-1.4c-.172-2.9-2.938-2.438-5.291-2.831-1.838-.307,3.03-4.951-.677-6.449a3.255,3.255,0,0,1-1.789-1.247,2.105,2.105,0,0,1,.808-2.57,4.975,4.975,0,0,1,2.814-.705c.605-.736.113-1.841-.472-2.593s-1.3-1.6-1.08-2.53c.335-1.4,2.288-1.448,3.7-1.176a10.17,10.17,0,0,0,.765-2.86c.253-.96,1.016-1.967,2-1.847.928.113,1.495,1.161,2.4,1.376,1.057.249,1.972-.686,2.8-1.387s2.279-1.138,2.85-.215c.342.553.138,1.324.493,1.868.616.944,2.077.358,2.983-.311s2.351-1.275,2.989-.346a3.868,3.868,0,0,1,.351.969c.429,1.238,1.767,1.854,2.809,2.648s1.868,2.372.986,3.341c-.435.478-1.2.672-1.417,1.281-.27.761.507,1.443,1.123,1.966,1.024.871,1.21,3.478-.144,4.191-.568.3-1.4.391-1.542,1.018-.124.561.444,1,.822,1.43a2.691,2.691,0,0,1-.824,4.007c-.325.156-.725.283-.845.623a1.28,1.28,0,0,0,.078.757,3.986,3.986,0,0,1,.13,1.451.662.662,0,0,1-.176.455.7.7,0,0,1-.429.121c-1.955.087-2.9-.605-4.093,1.1a1.393,1.393,0,0,1-.407.433,1.258,1.258,0,0,1-.539.134c-1.344.111-2.223-.728-3.451-.884-1.7-.217-2.066.661-3.568,1.367-2.362,1.11-3.507.426-3.951-1.183" transform="translate(256.954 899.309)" fill="#4dac4a"/><path d="M154.922,144.441a6.842,6.842,0,0,1-.211-1.4c-.172-2.9-2.938-2.439-5.291-2.832-1.838-.307,3.03-4.951-.677-6.449a3.255,3.255,0,0,1-1.789-1.247,2.105,2.105,0,0,1,.808-2.57,4.975,4.975,0,0,1,2.814-.705c.605-.736.113-1.841-.472-2.593s-1.3-1.6-1.08-2.53c.335-1.4,2.288-1.448,3.7-1.176a10.17,10.17,0,0,0,.765-2.86c.253-.96,1.016-1.967,2-1.847.928.113,1.495,1.16,2.4,1.375,1.057.249,1.972-.686,2.8-1.387s2.279-1.139,2.85-.215c.342.553.138,1.324.493,1.868.616.944,2.077.358,2.983-.311s2.351-1.275,2.989-.346a3.868,3.868,0,0,1,.351.969c.429,1.238,1.767,1.854,2.809,2.648s1.868,2.372.986,3.341c-.435.478-1.2.672-1.417,1.281-.27.761.507,1.443,1.123,1.966,1.024.871,1.21,3.478-.144,4.191-.568.3-1.4.391-1.542,1.018-.124.561.444,1,.822,1.43a2.691,2.691,0,0,1-.824,4.007c-.325.156-.725.283-.845.623a1.28,1.28,0,0,0,.078.757,4,4,0,0,1,.131,1.451.666.666,0,0,1-.177.455.691.691,0,0,1-.429.121c-1.956.087-2.9-.605-4.093,1.1a1.393,1.393,0,0,1-.407.433,1.258,1.258,0,0,1-.539.134c-1.344.111-2.223-.728-3.451-.884-1.7-.217-2.066.661-3.568,1.367-2.362,1.111-3.507.426-3.951-1.183" transform="translate(252.771 900.229)" fill="#4dac4a"/><path d="M155.657,166.554a5.375,5.375,0,0,1-.167-1.1c-.135-2.281-2.313-1.919-4.166-2.229-1.447-.242,2.385-3.9-.533-5.079a2.565,2.565,0,0,1-1.408-.981,1.658,1.658,0,0,1,.636-2.024,3.917,3.917,0,0,1,2.216-.555c.476-.579.089-1.45-.371-2.041s-1.025-1.264-.851-1.993c.263-1.1,1.8-1.14,2.912-.926a7.985,7.985,0,0,0,.6-2.252c.2-.755.8-1.549,1.576-1.454.73.089,1.177.915,1.894,1.084.833.2,1.553-.54,2.206-1.092s1.794-.9,2.245-.17c.269.435.108,1.042.388,1.471.485.743,1.634.281,2.348-.245s1.851-1,2.353-.273a3.03,3.03,0,0,1,.277.764c.338.974,1.392,1.46,2.212,2.084s1.471,1.869.776,2.631c-.342.377-.945.529-1.115,1.009-.213.6.4,1.136.883,1.548.807.686.953,2.739-.113,3.3-.447.235-1.1.308-1.213.8-.1.442.349.785.647,1.126a2.119,2.119,0,0,1-.649,3.155c-.256.123-.571.224-.665.491a1,1,0,0,0,.061.6,3.13,3.13,0,0,1,.1,1.142.521.521,0,0,1-.138.359.544.544,0,0,1-.339.1c-1.539.069-2.282-.476-3.222.863a1.106,1.106,0,0,1-.321.341,1,1,0,0,1-.425.106c-1.059.088-1.75-.573-2.718-.7-1.342-.171-1.626.521-2.808,1.077-1.86.875-2.761.336-3.111-.931" transform="translate(252.232 894.154)" fill="#ebebeb"/><path d="M165.918,157.869a6.788,6.788,0,0,1-.211-1.4c-.172-2.9-2.938-2.438-5.291-2.831-1.838-.307,3.03-4.951-.677-6.449a3.255,3.255,0,0,1-1.789-1.247,2.105,2.105,0,0,1,.808-2.57,4.975,4.975,0,0,1,2.814-.705c.605-.736.113-1.842-.472-2.593s-1.3-1.6-1.08-2.53c.335-1.4,2.288-1.448,3.7-1.176a10.169,10.169,0,0,0,.765-2.86c.253-.96,1.016-1.967,2-1.847.928.113,1.495,1.161,2.4,1.376,1.057.249,1.972-.686,2.8-1.387s2.279-1.139,2.85-.215c.342.553.138,1.324.493,1.868.616.944,2.076.358,2.983-.311s2.351-1.275,2.989-.346a3.867,3.867,0,0,1,.351.969c.429,1.238,1.767,1.855,2.809,2.648s1.868,2.372.986,3.341c-.435.478-1.2.672-1.417,1.281-.27.761.507,1.443,1.123,1.966,1.024.871,1.21,3.478-.144,4.191-.568.3-1.4.391-1.542,1.019-.124.561.444,1,.822,1.429a2.691,2.691,0,0,1-.824,4.007c-.325.156-.725.283-.845.623a1.274,1.274,0,0,0,.078.757,3.986,3.986,0,0,1,.13,1.451.662.662,0,0,1-.176.455.7.7,0,0,1-.43.121c-1.955.087-2.9-.605-4.092,1.1a1.391,1.391,0,0,1-.407.432,1.263,1.263,0,0,1-.539.135c-1.344.11-2.223-.729-3.451-.885-1.7-.217-2.066.661-3.568,1.367-2.362,1.111-3.507.426-3.951-1.183" transform="translate(250.372 897.3)" fill="#4dac4a"/><path d="M135.745,126.1a6.841,6.841,0,0,1-.211-1.4c-.172-2.9-2.938-2.438-5.291-2.831-1.838-.307,3.03-4.951-.677-6.449a3.255,3.255,0,0,1-1.789-1.247,2.105,2.105,0,0,1,.808-2.57,4.975,4.975,0,0,1,2.814-.705c.605-.736.113-1.841-.472-2.593s-1.3-1.6-1.08-2.53c.335-1.4,2.288-1.448,3.7-1.176a10.17,10.17,0,0,0,.765-2.86c.253-.96,1.016-1.967,2-1.847.928.113,1.495,1.161,2.4,1.376,1.057.249,1.972-.686,2.8-1.387s2.279-1.139,2.85-.215c.342.553.138,1.324.493,1.868.616.944,2.077.358,2.983-.311s2.351-1.275,2.989-.346a3.868,3.868,0,0,1,.351.969c.429,1.238,1.767,1.854,2.809,2.648s1.868,2.372.986,3.341c-.435.478-1.2.672-1.417,1.281-.27.761.507,1.443,1.123,1.966,1.024.871,1.21,3.478-.144,4.191-.568.3-1.4.391-1.542,1.018-.124.561.444,1,.822,1.43a2.691,2.691,0,0,1-.824,4.007c-.325.156-.725.283-.845.623a1.28,1.28,0,0,0,.078.757,3.986,3.986,0,0,1,.13,1.451.662.662,0,0,1-.176.455.691.691,0,0,1-.429.121c-1.955.087-2.9-.605-4.093,1.1a1.393,1.393,0,0,1-.407.433,1.27,1.27,0,0,1-.539.134c-1.344.11-2.223-.729-3.451-.885-1.7-.217-2.066.661-3.568,1.367-2.362,1.111-3.507.426-3.951-1.183" transform="translate(256.954 904.231)" fill="#4dac4a"/><path d="M111.109,127.357a6.788,6.788,0,0,1-.211-1.4c-.172-2.9-2.938-2.438-5.291-2.831-1.838-.307,3.03-4.951-.677-6.449a3.259,3.259,0,0,1-1.789-1.247,2.105,2.105,0,0,1,.808-2.57,4.982,4.982,0,0,1,2.814-.706c.6-.735.113-1.84-.472-2.592s-1.3-1.6-1.08-2.53c.335-1.4,2.288-1.448,3.7-1.176a10.17,10.17,0,0,0,.765-2.86c.253-.96,1.016-1.967,2-1.847.928.113,1.495,1.161,2.4,1.376,1.057.249,1.972-.686,2.8-1.387s2.279-1.138,2.85-.215c.342.553.138,1.324.493,1.868.616.944,2.076.358,2.983-.311s2.351-1.275,2.989-.346a3.868,3.868,0,0,1,.351.969c.429,1.238,1.767,1.854,2.809,2.648s1.868,2.372.986,3.341c-.435.478-1.2.672-1.417,1.281-.27.761.507,1.443,1.123,1.966,1.024.871,1.21,3.478-.144,4.191-.568.3-1.4.391-1.542,1.019-.125.561.444,1,.822,1.429a2.691,2.691,0,0,1-.824,4.007c-.325.156-.725.283-.845.623a1.274,1.274,0,0,0,.078.757,4,4,0,0,1,.13,1.451.659.659,0,0,1-.177.455.69.69,0,0,1-.429.121c-1.955.087-2.9-.605-4.092,1.1a1.4,1.4,0,0,1-.407.433,1.273,1.273,0,0,1-.539.134c-1.344.11-2.223-.729-3.451-.885-1.7-.217-2.066.661-3.568,1.367-2.362,1.11-3.507.426-3.951-1.183" transform="translate(262.329 903.956)" fill="#4dac4a"/><path d="M96.145,137.439a6.788,6.788,0,0,1-.211-1.4c-.172-2.9-2.938-2.438-5.291-2.831-1.838-.307,3.03-4.951-.677-6.449a3.255,3.255,0,0,1-1.789-1.247,2.105,2.105,0,0,1,.808-2.57,4.975,4.975,0,0,1,2.814-.705c.605-.736.113-1.841-.472-2.593s-1.3-1.6-1.08-2.53c.335-1.4,2.288-1.448,3.7-1.176a10.17,10.17,0,0,0,.765-2.86c.253-.96,1.016-1.967,2-1.847.928.113,1.495,1.161,2.4,1.376,1.057.249,1.972-.686,2.8-1.387s2.279-1.139,2.85-.215c.342.553.138,1.324.493,1.868.616.944,2.076.358,2.983-.311s2.351-1.275,2.989-.346a3.867,3.867,0,0,1,.351.969c.429,1.238,1.767,1.855,2.809,2.648s1.868,2.372.986,3.341c-.435.478-1.2.672-1.417,1.281-.27.761.507,1.443,1.123,1.966,1.024.871,1.21,3.478-.144,4.191-.568.3-1.4.391-1.542,1.019-.124.561.444,1,.822,1.429a2.691,2.691,0,0,1-.824,4.007c-.325.156-.725.283-.845.623a1.274,1.274,0,0,0,.078.757,3.986,3.986,0,0,1,.13,1.451.662.662,0,0,1-.176.455.691.691,0,0,1-.429.121c-1.956.087-2.9-.605-4.093,1.1a1.394,1.394,0,0,1-.407.433,1.27,1.27,0,0,1-.539.134c-1.344.11-2.223-.729-3.451-.885-1.7-.217-2.066.661-3.568,1.367-2.362,1.111-3.507.426-3.951-1.183" transform="translate(265.594 901.757)" fill="#4dac4a"/><path d="M102.956,152.932s4.893,6.918,6.58,9.111,10.123,15.86,11.272,24.9c.123.965.243,1.8.361,2.521-3.629,23.95-3.059,67.769-2.932,75.272h11.5c.106-8.459,1.083-85.788,1.442-88.149.382-2.5,5.187-12.012,12.611-15.92s13.838-16.844,13.838-16.844h-2.366s-4.387,7.929-10.629,12.316a23.982,23.982,0,0,1-2.809,1.665,39.86,39.86,0,0,0-2.482-13.982L138.061,145c1.725,7.063,1.5,11.586.976,14.185a25.705,25.705,0,0,0-6.455,4.32c-6.475-8.42-10.116-27.677-10.116-27.677l-1.658.905a98.06,98.06,0,0,0,2.141,11.81c1.213,4.984,4.784,14.369,6.445,18.63a44.12,44.12,0,0,0-4.892,9.182,3.747,3.747,0,0,0-.625-.749c-4.218-3.814-12.147-21.832-12.147-21.832-1.919-4.189,1.012-15.185,1.012-15.185h-2.214l-.992,9.617-5.567-6.074-1.012.844,5.905,7.592,3.037,9.619-7.929-8.775Z" transform="translate(262.329 896.228)" fill="#502626"/><path d="M77.877,291.9h76.415c1.075-3.586-1.705-7.887-4.732-8.492-3.719-.744-7.459-7.29-7.635-11.456s-6.872-16.985-17.287-9.069-7.251,1.166-14.785-1.058S97.564,266,100.871,270.8c0,0-7.569-1.9-10.687,5.17s0,11.458,0,11.458-9.568-.279-12.307,4.474" transform="translate(267.8 869.06)" fill="#e0e0e0"/><path d="M288.271,15.22a3.592,3.592,0,0,1,4.625-3.442A7.605,7.605,0,0,1,301.828,3.2a6.651,6.651,0,0,1,12.333,3.363c.037,0,.074-.005.11-.005a6.13,6.13,0,1,1,0,12.26H291.759l0,0a3.591,3.591,0,0,1-3.492-3.589" transform="translate(221.9 925.86)" fill="#fff"/><path d="M143.684,71.092a3.592,3.592,0,0,1,4.625-3.442,7.605,7.605,0,0,1,8.932-8.582,6.651,6.651,0,0,1,12.333,3.363c.037,0,.074-.006.111-.006a6.13,6.13,0,0,1,0,12.261H147.172l0,0a3.591,3.591,0,0,1-3.492-3.589" transform="translate(253.444 913.671)" fill="#fff"/><path d="M250.743,78.426a2.233,2.233,0,0,1,2.876-2.14,4.73,4.73,0,0,1,5.553-5.335,4.135,4.135,0,0,1,7.668,2.09c.023,0,.045,0,.069,0a3.811,3.811,0,0,1,0,7.623h-14l0,0a2.233,2.233,0,0,1-2.171-2.231" transform="translate(230.087 910.815)" fill="#fff"/><path d="M103.357,37.647a2.233,2.233,0,0,1,2.876-2.14,4.73,4.73,0,0,1,5.553-5.335,4.135,4.135,0,0,1,7.668,2.091c.023,0,.045,0,.069,0a3.811,3.811,0,1,1,0,7.623h-14l0,0a2.233,2.233,0,0,1-2.171-2.231" transform="translate(262.242 919.712)" fill="#fff"/><path d="M377.187,82.369a2.233,2.233,0,0,1,2.876-2.14,4.833,4.833,0,0,1-.05-.686,4.726,4.726,0,0,1,5.6-4.65,4.135,4.135,0,0,1,7.668,2.09c.023,0,.045,0,.069,0a3.811,3.811,0,0,1,0,7.623h-14l0,0a2.233,2.233,0,0,1-2.171-2.231" transform="translate(202.501 909.955)" fill="#fff"/><path d="M391.463,297.477c.177-2.125-.113-4.879-2.594-5.7-4.2-1.387-6.7-4.643-6.559-8.327s-4.285-7.268-7.6-3.815-2.877-2.654-7.3-4.138-8.178,2.116-6.966,5.406-3.155,5.345-8.385,2.547-10.985,2.292-9.878,6.276.2,4.426-3.109,3.1c-2.674-1.073-7.051,1.178-7.538,4.65Z" transform="translate(212.463 865.831)" fill="#e0e0e0"/><path d="M401.963,196.5a5.227,5.227,0,0,0,.162-1.072c.132-2.223,2.255-1.871,4.06-2.173,1.41-.235-2.324-3.8.52-4.948a2.5,2.5,0,0,0,1.372-.956,1.616,1.616,0,0,0-.619-1.973,3.823,3.823,0,0,0-2.159-.541c-.464-.564-.087-1.413.362-1.988s1-1.231.829-1.941c-.257-1.073-1.755-1.111-2.838-.9a7.778,7.778,0,0,1-.586-2.194c-.194-.736-.779-1.51-1.536-1.417-.712.087-1.148.891-1.845,1.055-.812.191-1.514-.526-2.149-1.064s-1.749-.874-2.188-.165c-.262.424-.1,1.016-.378,1.433-.472.724-1.593.274-2.288-.238s-1.8-.979-2.293-.266a2.971,2.971,0,0,0-.27.744c-.329.95-1.356,1.423-2.155,2.032s-1.433,1.82-.757,2.563c.334.367.921.515,1.087.983.207.584-.389,1.107-.862,1.509-.786.668-.928,2.668.111,3.215.436.23,1.076.3,1.183.782.1.43-.341.765-.631,1.1a2.065,2.065,0,0,0,.632,3.074c.249.119.556.217.648.478a.974.974,0,0,1-.059.581,3.074,3.074,0,0,0-.1,1.113.509.509,0,0,0,.136.349.531.531,0,0,0,.329.093c1.5.066,2.224-.464,3.14.841a1.076,1.076,0,0,0,.313.331.971.971,0,0,0,.414.1c1.032.085,1.706-.559,2.648-.679,1.308-.167,1.585.507,2.737,1.049,1.812.852,2.691.327,3.031-.908" transform="translate(200.403 887.503)" fill="#4dac4a"/><path d="M379.862,194.113a5.225,5.225,0,0,0,.162-1.072c.132-2.223,2.254-1.871,4.06-2.172,1.41-.236-2.324-3.8.52-4.949a2.5,2.5,0,0,0,1.372-.956,1.616,1.616,0,0,0-.619-1.972,3.818,3.818,0,0,0-2.159-.542c-.464-.564-.087-1.413.362-1.988s1-1.231.829-1.941c-.257-1.073-1.755-1.111-2.838-.9a7.776,7.776,0,0,1-.586-2.194c-.194-.736-.78-1.51-1.536-1.417-.712.087-1.148.891-1.846,1.055-.811.191-1.513-.526-2.149-1.064s-1.748-.874-2.187-.165c-.262.425-.1,1.016-.378,1.433-.472.724-1.593.274-2.288-.238s-1.8-.979-2.293-.266a2.974,2.974,0,0,0-.27.744c-.329.95-1.356,1.423-2.156,2.032s-1.432,1.82-.756,2.563c.334.367.921.515,1.087.983.207.584-.389,1.107-.862,1.509-.786.668-.928,2.668.111,3.215.436.23,1.076.3,1.183.782.1.43-.341.765-.631,1.1a2.065,2.065,0,0,0,.632,3.074c.249.119.556.217.648.478a.974.974,0,0,1-.059.581,3.075,3.075,0,0,0-.1,1.113.51.51,0,0,0,.136.349.53.53,0,0,0,.329.093c1.5.066,2.224-.464,3.14.841a1.066,1.066,0,0,0,.313.331.96.96,0,0,0,.414.1c1.031.085,1.706-.559,2.648-.679,1.308-.167,1.585.507,2.737,1.049,1.812.852,2.691.327,3.031-.908" transform="translate(205.225 888.023)" fill="#4dac4a"/><path d="M377.732,180.038a5.227,5.227,0,0,0,.162-1.072c.132-2.223,2.254-1.871,4.06-2.172,1.41-.236-2.324-3.8.52-4.949a2.5,2.5,0,0,0,1.372-.956,1.617,1.617,0,0,0-.619-1.973,3.823,3.823,0,0,0-2.159-.541c-.464-.564-.087-1.413.362-1.988s1-1.231.829-1.942c-.257-1.072-1.755-1.11-2.838-.9a7.776,7.776,0,0,1-.586-2.194c-.194-.736-.78-1.51-1.536-1.417-.712.087-1.148.891-1.846,1.055-.811.191-1.513-.526-2.149-1.064s-1.748-.874-2.186-.165c-.263.424-.106,1.016-.378,1.433-.472.724-1.593.274-2.288-.238s-1.8-.979-2.293-.266a2.972,2.972,0,0,0-.27.744c-.329.95-1.356,1.423-2.155,2.031s-1.433,1.821-.757,2.564c.334.367.921.515,1.087.983.207.584-.389,1.107-.862,1.509-.786.668-.928,2.668.111,3.215.436.23,1.076.3,1.183.782.1.43-.341.765-.631,1.1a2.065,2.065,0,0,0,.632,3.074c.249.119.556.217.648.478a.974.974,0,0,1-.059.581,3.074,3.074,0,0,0-.1,1.113.509.509,0,0,0,.136.349.53.53,0,0,0,.329.093c1.5.066,2.224-.464,3.14.841a1.066,1.066,0,0,0,.313.332.971.971,0,0,0,.414.1c1.031.085,1.706-.559,2.648-.679,1.308-.167,1.585.507,2.737,1.049,1.812.852,2.691.327,3.031-.908" transform="translate(205.69 891.095)" fill="#4dac4a"/><path d="M363.173,187.048a5.227,5.227,0,0,0,.162-1.072c.132-2.223,2.255-1.871,4.06-2.173,1.41-.235-2.324-3.8.52-4.948a2.5,2.5,0,0,0,1.372-.956,1.615,1.615,0,0,0-.619-1.972,3.819,3.819,0,0,0-2.159-.542c-.464-.564-.087-1.413.362-1.988s1-1.231.829-1.942c-.256-1.072-1.755-1.11-2.838-.9a7.776,7.776,0,0,1-.586-2.195c-.194-.736-.779-1.509-1.536-1.417-.712.087-1.147.891-1.846,1.055-.811.191-1.513-.526-2.148-1.064s-1.749-.874-2.187-.165c-.263.424-.106,1.016-.378,1.433-.472.724-1.593.274-2.288-.238s-1.8-.979-2.293-.266a2.972,2.972,0,0,0-.27.744c-.329.95-1.356,1.423-2.155,2.032s-1.433,1.82-.757,2.563c.334.367.921.515,1.087.983.207.584-.389,1.107-.862,1.509-.786.668-.928,2.668.111,3.215.436.23,1.076.3,1.183.782.1.43-.341.765-.631,1.1a2.065,2.065,0,0,0,.632,3.074c.249.119.556.217.648.478a.974.974,0,0,1-.059.581,3.074,3.074,0,0,0-.1,1.113.51.51,0,0,0,.136.349.526.526,0,0,0,.329.092c1.5.067,2.224-.464,3.14.842a1.066,1.066,0,0,0,.313.331.971.971,0,0,0,.414.1c1.032.085,1.706-.559,2.648-.679,1.308-.167,1.585.507,2.737,1.049,1.812.852,2.691.327,3.031-.908" transform="translate(208.866 889.565)" fill="#4dac4a"/><path d="M348.459,183.81a5.223,5.223,0,0,0,.162-1.072c.132-2.223,2.255-1.871,4.06-2.173,1.41-.235-2.324-3.8.52-4.948a2.5,2.5,0,0,0,1.372-.956,1.615,1.615,0,0,0-.619-1.972,3.817,3.817,0,0,0-2.159-.542c-.464-.564-.087-1.413.362-1.988s1-1.231.829-1.942c-.256-1.072-1.755-1.11-2.838-.9a7.776,7.776,0,0,1-.586-2.194c-.194-.736-.779-1.51-1.535-1.417-.712.087-1.147.891-1.845,1.055-.812.191-1.514-.526-2.149-1.064s-1.749-.874-2.187-.165c-.263.424-.106,1.016-.378,1.433-.472.724-1.593.274-2.288-.238s-1.8-.979-2.293-.266a2.972,2.972,0,0,0-.27.744c-.329.95-1.356,1.423-2.155,2.032s-1.433,1.82-.757,2.563c.334.367.921.515,1.087.983.207.584-.389,1.107-.862,1.509-.786.668-.928,2.668.111,3.215.436.23,1.076.3,1.183.782.1.43-.341.765-.631,1.1a2.065,2.065,0,0,0,.632,3.075c.249.119.556.217.648.478a.974.974,0,0,1-.059.581,3.074,3.074,0,0,0-.1,1.113.51.51,0,0,0,.136.349.53.53,0,0,0,.329.093c1.5.066,2.224-.464,3.14.841a1.075,1.075,0,0,0,.313.331.971.971,0,0,0,.414.1c1.032.085,1.706-.559,2.648-.679,1.308-.167,1.585.507,2.737,1.049,1.812.852,2.691.327,3.031-.908" transform="translate(212.076 890.271)" fill="#4dac4a"/><path d="M349.166,200.778a4.164,4.164,0,0,0,.127-.844c.1-1.751,1.775-1.474,3.2-1.711,1.11-.186-1.83-2.991.409-3.9a1.969,1.969,0,0,0,1.08-.753,1.272,1.272,0,0,0-.487-1.553,3.009,3.009,0,0,0-1.7-.426c-.365-.445-.068-1.113.285-1.566s.787-.969.652-1.528c-.2-.844-1.382-.875-2.234-.711a6.155,6.155,0,0,1-.462-1.728c-.152-.58-.614-1.188-1.209-1.116-.561.068-.9.7-1.453.83-.638.151-1.191-.414-1.692-.837s-1.377-.688-1.722-.13c-.206.334-.083.8-.3,1.128-.372.57-1.254.217-1.8-.188s-1.421-.771-1.806-.21a2.337,2.337,0,0,0-.212.586c-.259.747-1.067,1.12-1.7,1.6s-1.128,1.433-.595,2.019c.263.288.725.406.855.773.163.46-.306.872-.678,1.188-.619.526-.731,2.1.087,2.532.343.181.847.236.931.615.076.339-.268.6-.5.864a1.625,1.625,0,0,0,.5,2.42c.2.095.438.172.511.377a.769.769,0,0,1-.047.457,2.4,2.4,0,0,0-.078.876.4.4,0,0,0,.106.275.414.414,0,0,0,.26.073c1.181.053,1.751-.365,2.472.663a.856.856,0,0,0,.246.261.764.764,0,0,0,.326.081c.812.067,1.342-.44,2.085-.535,1.03-.131,1.248.4,2.155.826,1.427.671,2.119.257,2.387-.715" transform="translate(211.219 885.61)" fill="#4dac4a"/><path d="M340.022,194.113a5.227,5.227,0,0,0,.162-1.072c.132-2.223,2.255-1.871,4.06-2.172,1.41-.236-2.324-3.8.52-4.949a2.5,2.5,0,0,0,1.372-.956,1.615,1.615,0,0,0-.619-1.972,3.817,3.817,0,0,0-2.159-.542c-.464-.564-.087-1.413.362-1.988s1-1.231.829-1.941c-.256-1.073-1.755-1.111-2.838-.9a7.778,7.778,0,0,1-.586-2.194c-.194-.736-.779-1.51-1.536-1.417-.712.087-1.147.891-1.845,1.055-.812.191-1.514-.526-2.149-1.064s-1.749-.874-2.187-.165c-.263.425-.106,1.016-.378,1.433-.472.724-1.593.274-2.288-.238s-1.8-.979-2.293-.266a2.971,2.971,0,0,0-.27.744c-.329.95-1.356,1.423-2.155,2.032s-1.433,1.82-.757,2.563c.334.367.921.515,1.087.983.207.584-.389,1.107-.862,1.509-.786.668-.928,2.668.111,3.215.436.23,1.076.3,1.183.782.1.43-.341.765-.631,1.1a2.065,2.065,0,0,0,.632,3.074c.249.119.556.217.648.478a.974.974,0,0,1-.059.581,3.076,3.076,0,0,0-.1,1.113.51.51,0,0,0,.136.349.532.532,0,0,0,.329.093c1.5.066,2.224-.464,3.14.841a1.075,1.075,0,0,0,.313.331.96.96,0,0,0,.414.1c1.032.085,1.706-.559,2.648-.679,1.308-.167,1.585.507,2.737,1.049,1.812.852,2.691.327,3.031-.908" transform="translate(213.917 888.023)" fill="#4dac4a"/><path d="M363.173,169.735a5.227,5.227,0,0,0,.162-1.072c.132-2.223,2.255-1.871,4.06-2.173,1.41-.235-2.324-3.8.52-4.948a2.5,2.5,0,0,0,1.372-.956,1.615,1.615,0,0,0-.619-1.972,3.819,3.819,0,0,0-2.159-.542c-.464-.564-.087-1.413.362-1.989s1-1.231.829-1.941c-.256-1.073-1.755-1.111-2.838-.9a7.776,7.776,0,0,1-.586-2.195c-.194-.736-.779-1.509-1.536-1.417-.712.087-1.147.891-1.846,1.055-.811.191-1.513-.526-2.148-1.064s-1.749-.874-2.187-.165c-.263.424-.106,1.016-.378,1.433-.472.724-1.593.274-2.288-.238s-1.8-.979-2.293-.266a2.972,2.972,0,0,0-.27.744c-.329.949-1.356,1.423-2.155,2.032s-1.433,1.82-.757,2.563c.334.367.921.515,1.087.983.207.584-.389,1.107-.862,1.509-.786.668-.928,2.668.111,3.215.436.23,1.076.3,1.183.782.1.43-.341.765-.631,1.1a2.065,2.065,0,0,0,.632,3.074c.249.119.556.217.648.478a.974.974,0,0,1-.059.581,3.074,3.074,0,0,0-.1,1.113.51.51,0,0,0,.136.349.526.526,0,0,0,.329.092c1.5.067,2.224-.464,3.14.842a1.066,1.066,0,0,0,.313.331.971.971,0,0,0,.414.1c1.032.085,1.706-.559,2.648-.679,1.308-.167,1.585.507,2.737,1.049,1.812.852,2.691.327,3.031-.908" transform="translate(208.866 893.342)" fill="#4dac4a"/><path d="M382.076,170.7a5.223,5.223,0,0,0,.162-1.072c.132-2.223,2.255-1.871,4.06-2.172,1.41-.236-2.324-3.8.52-4.949a2.5,2.5,0,0,0,1.372-.956,1.615,1.615,0,0,0-.619-1.972,3.817,3.817,0,0,0-2.159-.542c-.464-.564-.087-1.413.362-1.988s1-1.231.829-1.942c-.256-1.072-1.755-1.11-2.838-.9a7.777,7.777,0,0,1-.586-2.194c-.194-.736-.779-1.51-1.535-1.417-.712.087-1.147.891-1.846,1.055-.811.191-1.513-.526-2.148-1.064s-1.749-.874-2.187-.165c-.263.424-.106,1.016-.378,1.433-.472.724-1.593.274-2.288-.238s-1.8-.979-2.293-.266a2.971,2.971,0,0,0-.27.744c-.329.95-1.356,1.423-2.155,2.032s-1.433,1.82-.757,2.563c.334.367.921.515,1.087.983.207.584-.389,1.107-.862,1.509-.786.668-.928,2.668.111,3.215.436.23,1.076.3,1.183.782.1.43-.341.765-.631,1.1a2.065,2.065,0,0,0,.632,3.074c.249.119.556.217.648.478a.974.974,0,0,1-.059.581,3.074,3.074,0,0,0-.1,1.113.51.51,0,0,0,.136.349.532.532,0,0,0,.329.093c1.5.066,2.224-.464,3.14.841a1.075,1.075,0,0,0,.313.331.971.971,0,0,0,.414.1c1.032.085,1.706-.559,2.648-.679,1.308-.167,1.585.507,2.737,1.049,1.812.852,2.691.327,3.031-.908" transform="translate(204.742 893.131)" fill="#4dac4a"/><path d="M393.558,178.437a5.28,5.28,0,0,0,.161-1.072c.132-2.223,2.255-1.871,4.061-2.172,1.41-.236-2.325-3.8.519-4.949a2.5,2.5,0,0,0,1.372-.956,1.614,1.614,0,0,0-.62-1.972,3.813,3.813,0,0,0-2.159-.542c-.464-.564-.086-1.413.362-1.988s1-1.231.829-1.941c-.257-1.073-1.755-1.111-2.837-.9a7.724,7.724,0,0,1-.586-2.194c-.2-.736-.781-1.51-1.536-1.417-.711.087-1.148.891-1.846,1.055-.81.191-1.513-.526-2.149-1.064s-1.747-.874-2.186-.165c-.263.424-.106,1.016-.378,1.433-.472.724-1.593.274-2.288-.238s-1.8-.979-2.293-.266a3,3,0,0,0-.27.744c-.329.95-1.355,1.423-2.154,2.032s-1.434,1.82-.758,2.563c.334.367.921.515,1.087.983.207.584-.389,1.107-.862,1.509-.785.668-.928,2.668.112,3.215.435.23,1.075.3,1.183.782.095.43-.341.765-.632,1.1a2.065,2.065,0,0,0,.632,3.074c.249.119.556.217.648.478a.974.974,0,0,1-.059.581,3.094,3.094,0,0,0-.1,1.113.516.516,0,0,0,.135.349.528.528,0,0,0,.33.092c1.5.067,2.224-.464,3.141.842a1.063,1.063,0,0,0,.312.332.96.96,0,0,0,.414.1c1.031.085,1.706-.559,2.648-.679,1.308-.167,1.585.507,2.737,1.049,1.812.852,2.691.327,3.032-.908" transform="translate(202.237 891.443)" fill="#4dac4a"/><path d="M382.6,190.325s-3.754,5.308-5.048,6.99-7.768,12.168-8.649,19.1c-.094.74-.187,1.378-.277,1.934,2.784,18.377,2.347,52,2.249,57.754h-8.821c-.081-6.491-.83-65.823-1.107-67.634-.292-1.916-3.98-9.216-9.675-12.215s-10.618-12.924-10.618-12.924h1.815s3.366,6.084,8.156,9.45a18.291,18.291,0,0,0,2.155,1.278,30.571,30.571,0,0,1,1.9-10.728l.98.906c-1.324,5.419-1.149,8.889-.749,10.883a19.71,19.71,0,0,1,4.953,3.315c4.969-6.461,7.762-21.236,7.762-21.236l1.272.7a75.277,75.277,0,0,1-1.643,9.061,150.481,150.481,0,0,1-4.945,14.294,33.877,33.877,0,0,1,3.753,7.045,2.874,2.874,0,0,1,.48-.575c3.236-2.926,9.32-16.751,9.32-16.751,1.471-3.214-.776-11.651-.776-11.651h1.7l.762,7.379,4.272-4.66.776.647-4.531,5.825-2.33,7.38,6.084-6.733Z" transform="translate(210.471 887.201)" fill="#502626"/><rect width="266.235" height="9.025" transform="translate(346.218 1121.978)" fill="#ad9292"/><path d="M84.257,281.531H71.719V225.846l6.269-4.457,6.269,4.457Z" transform="translate(269.144 877.561)" fill="#ad9292"/><path d="M112.634,281.531H100.1V225.846l6.269-4.457,6.269,4.457Z" transform="translate(262.953 877.561)" fill="#ad9292"/><path d="M141.011,281.531H128.474V225.846l6.269-4.457,6.269,4.457Z" transform="translate(256.762 877.561)" fill="#ad9292"/><path d="M169.388,281.531H156.851V225.846l6.269-4.457,6.269,4.457Z" transform="translate(250.571 877.561)" fill="#ad9292"/><path d="M197.765,281.531H185.227V225.846l6.27-4.457,6.269,4.457Z" transform="translate(244.38 877.561)" fill="#ad9292"/><path d="M226.143,281.531H213.605V225.846l6.269-4.457,6.269,4.457Z" transform="translate(238.189 877.561)" fill="#ad9292"/><path d="M254.52,281.531H241.982V225.846l6.269-4.457,6.269,4.457Z" transform="translate(231.999 877.561)" fill="#ad9292"/><path d="M282.9,281.531H270.359V225.846l6.269-4.457,6.269,4.457Z" transform="translate(225.808 877.561)" fill="#ad9292"/><path d="M311.274,281.531H298.736V225.846l6.27-4.457,6.269,4.457Z" transform="translate(219.617 877.561)" fill="#ad9292"/><path d="M339.651,281.531H327.114V225.846l6.269-4.457,6.269,4.457Z" transform="translate(213.426 877.561)" fill="#ad9292"/><path d="M368.028,281.531H355.491V225.846l6.269-4.457,6.269,4.457Z" transform="translate(207.235 877.561)" fill="#ad9292"/><path d="M396.405,281.531H383.868V225.846l6.269-4.457,6.269,4.457Z" transform="translate(201.043 877.561)" fill="#ad9292"/><path d="M424.783,281.531H412.245V225.846l6.269-4.457,6.269,4.457Z" transform="translate(194.853 877.561)" fill="#ad9292"/><rect width="390.917" height="269.279" transform="translate(284.791 925.86)" fill="none"/><g transform="translate(284.791 925.86)"><g clip-path="url(#a)"><path d="M359.289,330.627c0,4.89-67.869,8.853-151.589,8.853s-151.589-3.963-151.589-8.853,67.869-8.853,151.589-8.853,151.589,3.964,151.589,8.853" transform="translate(-12.241 -70.2)" fill="#f5f5f5"/></g></g><g transform="translate(284.791 925.86)"><g clip-path="url(#a)"><path d="M422.22,296.842s7.069-6.22,4.951-7.272-4.693,4.7-4.951,3.835,1.382-8.766-2.541-8.218,0,8.218,0,8.218-2.907-3.146-3.923-2.653,3.092,6.09,3.092,6.09Z" transform="translate(-90.668 -62.212)" fill="#407bff"/><g transform="translate(324.926 222.948)"><g clip-path="url(#c)"><path d="M422.22,296.842s7.069-6.22,4.951-7.272-4.693,4.7-4.951,3.835,1.382-8.766-2.541-8.218,0,8.218,0,8.218-2.907-3.146-3.923-2.653,3.092,6.09,3.092,6.09Z" transform="translate(-415.594 -285.16)" fill="#4dac4a"/></g></g><path d="M217.813,296.842s-7.069-6.22-4.951-7.272,4.693,4.7,4.951,3.835-1.382-8.766,2.541-8.218,0,8.218,0,8.218,2.907-3.146,3.923-2.653-3.092,6.09-3.092,6.09Z" transform="translate(-46.353 -62.212)" fill="#407bff"/><path d="M302.223,294.946s1.908-6.391-1.951-7.664-6.148-4.261-6.019-7.642-3.933-6.669-6.979-3.5-2.64-2.436-6.7-3.8-7.506,1.942-6.393,4.961-2.9,4.906-7.7,2.338-10.08,2.1-9.065,5.76.184,4.062-2.853,2.844-8.47,2.234-6.566,6.7,54.223,0,54.223,0" transform="translate(-54.019 -59.347)" fill="#407bff"/><path d="M170.661,296.305c3.426-2.324.342-6.273-3.084-6.739s-6.87-4.553-7.033-7.156-6.33-10.609-15.923-5.665-6.678.729-13.618-.661-11.317,2.607-8.272,5.6c0,0-6.972-1.184-9.843,3.23s0,7.157,0,7.157-13.111-.263-11.932,5.236,69.7-1.007,69.7-1.007" transform="translate(-22.009 -60.032)" fill="#407bff"/><path d="M362.307,293.192s-6.216-12.132-4.653-13.32,4.65,10.135,4.653,9.255-.174-16.306,2.7-15.695,0,14.814,0,14.814,3.865-7.257,5.379-6.709-4.466,9.179-4.466,9.179,3.57-2.159,4.466-1.993-4.466,4.469-4.466,4.469Z" transform="translate(-77.973 -59.65)" fill="#407bff"/><path d="M73.147,295.083s6.216-12.132,4.653-13.32-4.651,10.135-4.653,9.255.174-16.306-2.7-15.695,0,14.814,0,14.814-3.865-7.257-5.379-6.709,4.466,9.179,4.466,9.179-3.57-2.159-4.466-1.993,4.466,4.469,4.466,4.469Z" transform="translate(-14.142 -60.062)" fill="#407bff"/><g transform="translate(166.113 222.948)"><g clip-path="url(#c)"><path d="M217.813,296.842s-7.069-6.22-4.951-7.272,4.693,4.7,4.951,3.835-1.382-8.766,2.541-8.218,0,8.218,0,8.218,2.907-3.146,3.923-2.653-3.092,6.09-3.092,6.09Z" transform="translate(-212.466 -285.16)" fill="#4dac4a"/></g></g><g transform="translate(193.586 212.679)"><g clip-path="url(#e)"><path d="M302.223,294.946s1.908-6.391-1.951-7.664-6.148-4.261-6.019-7.642-3.933-6.669-6.979-3.5-2.64-2.436-6.7-3.8-7.506,1.942-6.393,4.961-2.9,4.906-7.7,2.338-10.08,2.1-9.065,5.76.184,4.062-2.853,2.844-8.47,2.234-6.566,6.7,54.223,0,54.223,0" transform="translate(-247.605 -272.026)" fill="#4dac4a"/></g></g><g transform="translate(78.873 215.134)"><g clip-path="url(#f)"><path d="M170.661,296.305c3.426-2.324.342-6.273-3.084-6.739s-6.87-4.553-7.033-7.156-6.33-10.609-15.923-5.665-6.678.729-13.618-.661-11.317,2.607-8.272,5.6c0,0-6.972-1.184-9.843,3.23s0,7.157,0,7.157-13.111-.263-11.932,5.236,69.7-1.007,69.7-1.007" transform="translate(-100.882 -275.166)" fill="#4dac4a"/></g></g><g transform="translate(279.429 213.765)"><g clip-path="url(#g)"><path d="M362.307,293.192s-6.216-12.132-4.653-13.32,4.65,10.135,4.653,9.255-.174-16.306,2.7-15.695,0,14.814,0,14.814,3.865-7.257,5.379-6.709-4.466,9.179-4.466,9.179,3.57-2.159,4.466-1.993-4.466,4.469-4.466,4.469Z" transform="translate(-357.402 -273.414)" fill="#4dac4a"/></g></g><g transform="translate(50.682 215.243)"><g clip-path="url(#g)"><path d="M73.147,295.083s6.216-12.132,4.653-13.32-4.651,10.135-4.653,9.255.174-16.306-2.7-15.695,0,14.814,0,14.814-3.865-7.257-5.379-6.709,4.466,9.179,4.466,9.179-3.57-2.159-4.466-1.993,4.466,4.469,4.466,4.469Z" transform="translate(-64.824 -275.305)" fill="#4dac4a"/></g></g><path d="M351.8,297.472H61.9a1.479,1.479,0,0,0-1.479,1.479v13.383H353.277V298.951a1.479,1.479,0,0,0-1.479-1.479" transform="translate(-13.183 -64.898)" fill="#263238"/><g transform="translate(47.243 232.574)" opacity="0.8"><g clip-path="url(#i)"><path d="M351.8,297.472H61.9a1.479,1.479,0,0,0-1.479,1.479v13.383H353.277V298.951a1.479,1.479,0,0,0-1.479-1.479" transform="translate(-60.425 -297.472)" fill="#fff"/></g></g><g transform="translate(319.474 235.548)" opacity="0.2"><g clip-path="url(#j)"><rect width="19.176" height="10.069" transform="translate(0.001 -0.001)" fill="#fff"/></g></g><g transform="translate(299.27 234.592)" opacity="0.2"><g clip-path="url(#k)"><rect width="19.176" height="10.068" transform="translate(0 0)" fill="#fff"/></g></g><g transform="translate(285.967 238.257)" opacity="0.2"><g clip-path="url(#l)"><rect width="12.483" height="6.403" transform="translate(0.001 0)" fill="#fff"/></g></g><g transform="translate(51.96 239.084)" opacity="0.2"><g clip-path="url(#m)"><rect width="12.483" height="6.403" transform="translate(0 0.001)" fill="#fff"/></g></g><g transform="translate(271.842 235.056)" opacity="0.2"><g clip-path="url(#n)"><rect width="13.123" height="8.767" transform="translate(0.001 0)" fill="#fff"/></g></g><g transform="translate(261.945 233.874)" opacity="0.2"><g clip-path="url(#o)"><rect width="8.931" height="8.767" transform="translate(0 0)" fill="#fff"/></g></g><g transform="translate(65.89 235.548)" opacity="0.2"><g clip-path="url(#o)"><rect width="8.931" height="8.767" transform="translate(0 0)" fill="#fff"/></g></g><g transform="translate(224.318 235.548)" opacity="0.2"><g clip-path="url(#o)"><rect width="8.931" height="8.767" transform="translate(0 0)" fill="#fff"/></g></g><g transform="translate(233.696 233.874)" opacity="0.2"><g clip-path="url(#r)"><rect width="8.931" height="6.058" transform="translate(0 0)" fill="#fff"/></g></g><g transform="translate(246.329 236.2)" opacity="0.2"><g clip-path="url(#s)"><rect width="14.703" height="8.767" transform="translate(0 0)" fill="#fff"/></g></g><g transform="translate(208.599 235.056)" opacity="0.2"><g clip-path="url(#s)"><rect width="14.703" height="8.767" transform="translate(0 0)" fill="#fff"/></g></g><g transform="translate(288.115 234.592)" opacity="0.2"><g clip-path="url(#u)"><rect width="9.466" height="2.819" transform="translate(0 0)" fill="#fff"/></g></g><g transform="translate(51.96 234.79)" opacity="0.2"><g clip-path="url(#u)"><rect width="9.466" height="2.819" transform="translate(0 0)" fill="#fff"/></g></g><g transform="translate(235.135 241.231)" opacity="0.2"><g clip-path="url(#u)"><rect width="9.466" height="2.819" transform="translate(0)" fill="#fff"/></g></g><g transform="translate(188.127 235.548)" opacity="0.2"><g clip-path="url(#k)"><rect width="19.176" height="10.069" transform="translate(0 -0.001)" fill="#fff"/></g></g><g transform="translate(167.922 234.592)" opacity="0.2"><g clip-path="url(#k)"><rect width="19.176" height="10.068" transform="translate(0 0)" fill="#fff"/></g></g><g transform="translate(154.619 238.257)" opacity="0.2"><g clip-path="url(#l)"><rect width="12.483" height="6.403" transform="translate(0.001 0)" fill="#fff"/></g></g><g transform="translate(140.495 235.056)" opacity="0.2"><g clip-path="url(#aa)"><rect width="13.123" height="8.767" transform="translate(0 0)" fill="#fff"/></g></g><g transform="translate(130.597 233.874)" opacity="0.2"><g clip-path="url(#o)"><rect width="8.931" height="8.767" transform="translate(0 0)" fill="#fff"/></g></g><g transform="translate(92.97 235.548)" opacity="0.2"><g clip-path="url(#o)"><rect width="8.931" height="8.767" transform="translate(0 0)" fill="#fff"/></g></g><g transform="translate(102.348 233.874)" opacity="0.2"><g clip-path="url(#r)"><rect width="8.931" height="6.058" transform="translate(0 0)" fill="#fff"/></g></g><g transform="translate(114.98 236.2)" opacity="0.2"><g clip-path="url(#s)"><rect width="14.703" height="8.767" transform="translate(0 0)" fill="#fff"/></g></g><g transform="translate(77.251 235.056)" opacity="0.2"><g clip-path="url(#s)"><rect width="14.703" height="8.767" transform="translate(0 0)" fill="#fff"/></g></g><g transform="translate(156.767 234.592)" opacity="0.2"><g clip-path="url(#u)"><rect width="9.466" height="2.819" transform="translate(0 0)" fill="#fff"/></g></g><g transform="translate(103.787 241.231)" opacity="0.2"><g clip-path="url(#u)"><rect width="9.466" height="2.819" fill="#fff"/></g></g></g></g><g transform="translate(284.791 925.86)"><g clip-path="url(#a)"><path d="M388.863,285.769s-6.062-7.215-9.941-3.85-1.917,10.5,2.557,10.732a11.234,11.234,0,0,0,7.384-2.256Z" transform="translate(-82.215 -61.31)" fill="#407bff"/><g transform="translate(294.631 219.715)" style="isolation:isolate"><g clip-path="url(#aj)"><path d="M388.863,285.769s-6.062-7.215-9.941-3.85-1.917,10.5,2.557,10.732a11.234,11.234,0,0,0,7.384-2.256Z" transform="translate(-376.846 -281.025)" fill="#266524"/></g></g><path d="M423.849,262.425s5.091-5.334,8.243-4.429,2.824,13.647-6.953,8.488Z" transform="translate(-92.469 -56.263)" fill="#407bff"/><g transform="translate(331.38 201.63)" style="isolation:isolate"><g clip-path="url(#ak)"><path d="M423.849,262.425s5.091-5.334,8.243-4.429,2.824,13.647-6.953,8.488Z" transform="translate(-423.849 -257.893)" fill="#266524"/></g></g><path d="M398.227,306.732s-16.73-22.887-3.152-27.524,16,18.415,12.124,24.832-8.972,2.693-8.972,2.693" transform="translate(-85.033 -60.78)" fill="#407bff"/><path d="M405.748,247.717s10.378-24.1-4.994-24.824-17.047,23.893.641,27.464Z" transform="translate(-84.795 -48.624)" fill="#407bff"/><g transform="translate(304.729 217.816)" style="isolation:isolate"><g clip-path="url(#al)"><path d="M398.227,306.732s-16.73-22.887-3.152-27.524,16,18.415,12.124,24.832-8.972,2.693-8.972,2.693" transform="translate(-389.761 -278.596)" fill="#266524"/></g></g><g transform="translate(303.879 174.253)" style="isolation:isolate"><g clip-path="url(#am)"><path d="M405.748,247.717s10.378-24.1-4.994-24.824-17.047,23.893.641,27.464Z" transform="translate(-388.674 -222.877)" fill="#266524"/></g></g><path d="M405.437,273.443s-5.047-21.276,4.652-22.973,19.272,17.526-.79,27.19c0,0-3.442-2.134-3.862-4.216" transform="translate(-88.166 -54.621)" fill="#407bff"/><g transform="translate(315.959 195.743)" style="isolation:isolate"><g clip-path="url(#an)"><path d="M405.437,273.443s-5.047-21.276,4.652-22.973,19.272,17.526-.79,27.19c0,0-3.442-2.134-3.862-4.216" transform="translate(-404.125 -250.364)" fill="#266524"/></g></g><path d="M385.186,310.431h28.089L410.929,328.4h-23.4Z" transform="translate(-84.034 -67.725)" fill="#263238"/><path d="M401.74,247.063c-5.789-4.23-9.8-12.4-6.385-19.29-.136.641-.309,1.338-.464,1.973-1.141,6.534,2.432,12.758,6.849,17.317" transform="translate(-85.979 -49.692)" fill="#133411"/><path d="M399.162,226c6.668,1.35,9.613,8.427,8.843,14.664-.152.876-.278,1.751-.453,2.613a43.148,43.148,0,0,0-.059-5.237c-.417-5.139-3.245-10.154-8.33-12.04" transform="translate(-87.083 -49.305)" fill="#133411"/><path d="M413.342,252.446c3.743,1.326,6.087,5.437,6.1,9.332.026,3.391-1.878,6.473-3.972,9a29.766,29.766,0,0,1-5.2,4.905A44.466,44.466,0,0,0,415,270.406a17.094,17.094,0,0,0,3.66-7.775,10.531,10.531,0,0,0-5.316-10.185" transform="translate(-89.507 -55.075)" fill="#133411"/><path d="M410.022,254.648c1,3.112,1.889,6.838.26,9.9-1.356,1.986-1.5,4.584-1.527,6.955-.021.822.015,1.646.055,2.475a18.744,18.744,0,0,1-.54-4.961,8.971,8.971,0,0,1,1.35-4.884c1.5-2.861.783-6.4.4-9.489" transform="translate(-89.069 -55.555)" fill="#133411"/><path d="M401.784,282.169c3.883,2.013,5.492,15.5,5.331,19.753-.124-.863-.255-1.719-.418-2.572-.744-4.253-1.515-8.519-2.639-12.686-.53-1.561-.866-3.485-2.274-4.495" transform="translate(-87.655 -61.56)" fill="#133411"/><path d="M395.283,283.114a18.816,18.816,0,0,0,3.819,17.913,20.764,20.764,0,0,1-1.761-1.7,14.865,14.865,0,0,1-2.059-16.214" transform="translate(-85.907 -61.766)" fill="#133411"/><path d="M428.9,266.393a9.3,9.3,0,0,0,4.6-2.222c-.322,1.992-2.851,2.93-4.6,2.222" transform="translate(-93.571 -57.633)" fill="#133411"/><path d="M427.57,261.989c.837-1.705,3.693-2.766,4.91-.909-1.711-.746-3.376.188-4.91.909" transform="translate(-93.281 -56.745)" fill="#133411"/><path d="M386.859,287.506c-1.952-1.378-3.974-3.722-6.5-2.5,2.057-2.435,5.517.289,6.5,2.5" transform="translate(-82.98 -61.971)" fill="#133411"/><path d="M386.449,292.3c-2.551.937-7.656,1.01-7.972-2.565,1.463,2.915,5.194,2.274,7.972,2.565" transform="translate(-82.571 -63.209)" fill="#133411"/></g></g><g transform="translate(284.791 925.86)"><g clip-path="url(#a)"><path d="M91.339,303.549s-1.085-7.955-6.173-8.825-3.553-4.716-4.878-6.205-4.787,2.9-1.822,7.159.541,2.918,1.822,6.875,11.516,7.591,11.05,1" transform="translate(-16.864 -62.88)" fill="#263238"/><g transform="translate(60.436 225.342)" opacity="0.2" style="isolation:isolate"><g clip-path="url(#ap)"><path d="M91.339,303.549s-1.085-7.955-6.173-8.825-3.553-4.716-4.878-6.205-4.787,2.9-1.822,7.159.541,2.918,1.822,6.875,11.516,7.591,11.05,1" transform="translate(-77.3 -288.223)" fill="#2c792a"/></g></g><path d="M92.006,289.715a.353.353,0,0,1-.318-.2c-.039-.081-3.922-8.355-1.883-21.536a55.292,55.292,0,0,1,3.121-11.018c2.46-6.709,4.4-12.008-.041-21.689-1.407-3.065-2.845-5.919-4.235-8.68-5.219-10.365-9.341-18.552-6.274-26.843a.352.352,0,1,1,.661.244c-2.96,8,1.1,16.07,6.243,26.281,1.393,2.766,2.833,5.628,4.246,8.7,4.567,9.945,2.479,15.637.062,22.228A53.93,53.93,0,0,0,90.5,268.088c-2,12.948,1.783,21.042,1.822,21.122a.354.354,0,0,1-.318.505" transform="translate(-17.742 -43.528)" fill="#502626"/><path d="M90.92,308.44s-3.288-4.955,1.457-7.5,5.7-.5,8.634-2.328,5.161-6.271,5.661-3.431-2.89,4.461-1.691,5.76S97,310.673,90.92,308.44" transform="translate(-19.594 -64.196)" fill="#2c792a"/><path d="M81.113,202.488s-3.2-9.737,4.081-9.941-.744,8.9-4.081,9.941" transform="translate(-17.543 -42.006)" fill="#263238"/><path d="M89.4,212.816s2.171-8.853,7.343-6.986-2.188,7.15-7.343,6.986" transform="translate(-19.505 -44.849)" fill="#263238"/><path d="M76.04,213.808s.779-7.065-4.708-7.205-3.044,6.065,4.708,7.205" transform="translate(-14.915 -45.073)" fill="#263238"/><path d="M79.914,233.28S72.549,226.715,69.9,231.6s5.555,5.9,10.013,1.679" transform="translate(-15.138 -50.133)" fill="#263238"/><path d="M99.517,230.489s1.385-10.9,7.334-7.484-2.152,8.574-7.334,7.484" transform="translate(-21.711 -48.507)" fill="#263238"/><path d="M105.883,249.976s-4.391-11.018,3.768-9.776,1.991,7.1-3.768,9.776" transform="translate(-22.843 -52.382)" fill="#263238"/><path d="M86.193,256.072s-6.893-8.119-12.159-5.545-.962,10.647,12.159,5.545" transform="translate(-15.674 -54.546)" fill="#263238"/><path d="M98.2,278.1s5.872-13.038,11.093-8.644S105.959,280.423,98.2,278.1" transform="translate(-21.423 -58.589)" fill="#263238"/><path d="M85.125,277.185s1.551-10.114-4.262-9.3-4.286,7,4.262,9.3" transform="translate(-16.884 -58.433)" fill="#263238"/><g transform="translate(53.45 150.538)" opacity="0.2" style="isolation:isolate"><g clip-path="url(#aq)"><path d="M81.113,202.488s-3.2-9.737,4.081-9.941-.744,8.9-4.081,9.941" transform="translate(-70.994 -192.544)" fill="#2c792a"/><path d="M89.4,212.816s2.171-8.853,7.343-6.986-2.188,7.15-7.343,6.986" transform="translate(-72.955 -195.386)" fill="#2d4a3b"/><path d="M76.04,213.808s.779-7.065-4.708-7.205-3.044,6.065,4.708,7.205" transform="translate(-68.366 -195.611)" fill="#2d4a3b"/><path d="M79.914,233.28S72.549,226.715,69.9,231.6s5.555,5.9,10.013,1.679" transform="translate(-68.588 -200.67)" fill="#4dac4a"/><path d="M99.517,230.489s1.385-10.9,7.334-7.484-2.152,8.574-7.334,7.484" transform="translate(-75.162 -199.045)" fill="#4dac4a"/><path d="M105.883,249.976s-4.391-11.018,3.768-9.776,1.991,7.1-3.768,9.776" transform="translate(-76.293 -202.92)" fill="#2c792a"/><path d="M86.193,256.072s-6.893-8.119-12.159-5.545-.962,10.647,12.159,5.545" transform="translate(-69.124 -205.084)" fill="#2c792a"/><path d="M98.2,278.1s5.872-13.038,11.093-8.644S105.959,280.423,98.2,278.1" transform="translate(-74.874 -209.127)" fill="#2c792a"/><path d="M85.125,277.185s1.551-10.114-4.262-9.3-4.286,7,4.262,9.3" transform="translate(-70.334 -208.97)" fill="#2c792a"/></g></g><path d="M83.17,220.168a.351.351,0,0,1-.172-.045,25.613,25.613,0,0,1-7.544-7.169.353.353,0,0,1,.586-.393,25.8,25.8,0,0,0,6.99,6.768c.658-1.22,3.029-5.428,5.008-6.614a.352.352,0,1,1,.362.6c-2.1,1.262-4.888,6.606-4.917,6.66a.35.35,0,0,1-.212.175.339.339,0,0,1-.1.015" transform="translate(-16.448 -46.339)" fill="#502626"/><path d="M89.8,237.032a.35.35,0,0,1-.213-.071c-6.131-4.634-13.973-4.438-14.055-4.441a.37.37,0,0,1-.364-.342.353.353,0,0,1,.341-.364c.081,0,7.9-.2,14.19,4.353.82-1.31,3.974-6.054,8.019-8.435a.353.353,0,1,1,.358.607c-4.462,2.627-7.939,8.46-7.973,8.519a.351.351,0,0,1-.236.167.33.33,0,0,1-.068.007" transform="translate(-16.399 -49.673)" fill="#502626"/><path d="M94.842,258.821a.357.357,0,0,1-.177-.048c-.09-.052-9.053-5.2-15.533-5.332a.353.353,0,0,1-.346-.36.329.329,0,0,1,.36-.346c6.176.121,14.218,4.495,15.659,5.306,4.159-3.508,7.463-12.119,7.5-12.207a.353.353,0,1,1,.66.25c-.141.371-3.506,9.136-7.9,12.658a.346.346,0,0,1-.22.078" transform="translate(-17.189 -53.583)" fill="#502626"/><path d="M90.405,282.988a.357.357,0,0,1-.175-.047c-3.389-1.937-7.765-10.425-7.95-10.785a.353.353,0,0,1,.628-.322c.043.084,4.23,8.206,7.412,10.333a20.171,20.171,0,0,1,9.85-6.294.353.353,0,0,1,.2.677,19.29,19.29,0,0,0-9.679,6.29.354.354,0,0,1-.288.149" transform="translate(-17.942 -59.263)" fill="#502626"/><path d="M88.537,308.675s-2.819-4.488-6-5.126-4.556-4.307-5.731-2.1,2.066,9.52,11.735,7.227" transform="translate(-16.705 -65.613)" fill="#2c792a"/><path d="M72.586,328.119h30.787l2.06-18.99H70.525Z" transform="translate(-15.386 -67.441)" fill="#263238"/><path d="M69.476,312.607h36.345l.464-4.024H69.011Z" transform="translate(-15.056 -67.322)" fill="#407bff"/><g transform="translate(53.955 241.261)"><g clip-path="url(#ar)"><path d="M69.476,312.607h36.345l.464-4.024H69.011Z" transform="translate(-69.011 -308.584)" fill="#363a3c"/></g></g></g></g><path d="M213.746,80.386v64.07h10.825V81.933Z" transform="translate(238.159 908.323)" fill="#407bff"/><g transform="translate(451.904 988.709)" opacity="0.7"><g clip-path="url(#as)"><path d="M213.746,80.386v64.07h10.825V81.933Z" transform="translate(-213.746 -80.386)" fill="#fff"/></g></g><g transform="translate(452.291 1015.825)" opacity="0.3"><g clip-path="url(#at)"><path d="M214.24,119.091s.541-2.087.928-2.242.928,6.14,1.779,6.549,1.7-4.462,2.32-4.462.7,3.944,1.546,3.789,1.469-7.578,2.165-7.655,1.159,2.475,1.159,2.475v1.7s-.618-2.088-1.082-2.32-.851,9.588-2.011,9.742-1.512-4.717-1.993-4.639-.945,5.413-2.1,5.567-1.546-7.5-2.011-7.5-.7,1.7-.7,1.7Z" transform="translate(-214.24 -115.069)" fill="#fff"/></g></g><g transform="translate(452.291 1031.392)" opacity="0.3"><g clip-path="url(#au)"><path d="M214.24,136.526s.851,4.021,1.314,4.407,1.005-3.248,1.779-2.861.808,5.413,1.718,5.645,1.684-6.263,2.38-6.341,1.005,2.4,1.392,2.4,1.314-4.794,1.314-4.794v3.711s-.618,4.1-1.237,4.021-1.237-1.933-1.546-1.933-.971,5.936-2.3,5.751-1.641-6.027-2.1-5.773-.773,2.728-1.238,2.65-1.469-2.65-1.469-2.65Z" transform="translate(-214.24 -134.979)" fill="#fff"/></g></g><g transform="translate(452.291 999.316)" opacity="0.3"><g clip-path="url(#av)"><path d="M214.24,95.5s.851,4.021,1.314,4.407,1.005-3.248,1.779-2.861.808,5.413,1.718,5.645,1.684-6.263,2.38-6.341,1.005,2.4,1.392,2.4,1.314-4.794,1.314-4.794v3.711s-.618,4.1-1.237,4.021-1.237-1.933-1.546-1.933-.971,5.936-2.3,5.752-1.641-6.027-2.1-5.773-.773,2.728-1.238,2.65-1.469-2.65-1.469-2.65Z" transform="translate(-214.24 -93.954)" fill="#fff"/></g></g><path d="M299.869,263.438H284.233V72.784a28.963,28.963,0,0,0-57.927,0v8.453H210.669V72.784a44.6,44.6,0,0,1,89.2,0Z" transform="translate(238.83 919.712)" fill="#263238"/><g transform="translate(449.499 947.896)" opacity="0.6"><g clip-path="url(#aw)"><path d="M299.869,263.438H284.233V72.784a28.963,28.963,0,0,0-57.927,0v8.453H210.669V72.784a44.6,44.6,0,0,1,89.2,0Z" transform="translate(-210.669 -28.184)" fill="#fff"/></g></g><path d="M224.776,96.684H211.543A1.746,1.746,0,0,1,209.8,95.1l-.636-6.868h17.982l-.636,6.868a1.747,1.747,0,0,1-1.74,1.586" transform="translate(239.157 906.611)" fill="#263238"/><path d="M326.316,310.812H294.258V249.2a3.868,3.868,0,0,1,3.868-3.868h24.321a3.868,3.868,0,0,1,3.868,3.868Z" transform="translate(220.594 872.338)" fill="#263238"/><g transform="translate(514.852 1117.668)" opacity="0.5"><g clip-path="url(#ax)"><path d="M326.316,310.812H294.258V249.2a3.868,3.868,0,0,1,3.868-3.868h24.321a3.868,3.868,0,0,1,3.868,3.868Z" transform="translate(-294.258 -245.33)" fill="#fff"/></g></g><path d="M331.005,274.133h-7.823c-6.876,0-12.449,6.612-12.449,14.769s5.573,14.769,12.449,14.769h7.823c6.875,0,12.449-6.612,12.449-14.769s-5.574-14.769-12.449-14.769" transform="translate(216.999 866.054)" fill="#263238"/><g transform="translate(527.732 1140.188)" opacity="0.6"><g clip-path="url(#ay)"><path d="M331.005,274.133h-7.823c-6.876,0-12.449,6.612-12.449,14.769s5.573,14.769,12.449,14.769h7.823c6.875,0,12.449-6.612,12.449-14.769s-5.574-14.769-12.449-14.769" transform="translate(-310.733 -274.133)" fill="#fff"/></g></g><g transform="translate(535.555 1140.188)" opacity="0.2"><g clip-path="url(#az)"><path d="M345.637,288.9c0,8.157-5.574,14.769-12.449,14.769s-12.449-6.612-12.449-14.769,5.574-14.769,12.449-14.769,12.449,6.612,12.449,14.769" transform="translate(-320.739 -274.133)" fill="#fff"/></g></g><g transform="translate(537.51 1142.142)" opacity="0.2"><g clip-path="url(#ba)"><path d="M333.734,302.262c-5.786,0-10.495-5.749-10.495-12.814s4.708-12.814,10.495-12.814,10.495,5.748,10.495,12.814-4.707,12.814-10.495,12.814" transform="translate(-323.239 -276.633)"/></g></g><path d="M348.468,268.06V234.692H333.262V268.06c-4.894,1.46-8.5,6.395-8.5,12.274,0,7.028,5.147,12.725,11.5,12.725h9.219c6.349,0,11.5-5.7,11.5-12.725,0-5.879-3.608-10.814-8.5-12.274" transform="translate(213.939 874.658)" fill="#263238"/><g transform="translate(538.699 1109.352)" opacity="0.6"><g clip-path="url(#bb)"><path d="M348.468,268.06V234.692H333.262V268.06c-4.894,1.46-8.5,6.395-8.5,12.274,0,7.028,5.147,12.725,11.5,12.725h9.219c6.349,0,11.5-5.7,11.5-12.725,0-5.879-3.608-10.814-8.5-12.274" transform="translate(-324.76 -234.693)" fill="#fff"/></g></g><g transform="translate(547.917 1109.352)" opacity="0.3"><g clip-path="url(#bc)"><path d="M351.041,268.06V234.692h-5.988V268.06c-4.894,1.46-8.5,6.395-8.5,12.274,0,7.028,5.147,12.725,11.5,12.725s11.5-5.7,11.5-12.725c0-5.879-3.608-10.814-8.5-12.274" transform="translate(-336.551 -234.693)" fill="#fff"/></g></g><g transform="translate(448.326 994.843)" opacity="0.5"><g clip-path="url(#bd)"><path d="M224.776,96.684H211.543A1.746,1.746,0,0,1,209.8,95.1l-.636-6.868h17.982l-.636,6.868a1.747,1.747,0,0,1-1.74,1.586" transform="translate(-209.169 -88.231)" fill="#fff"/></g></g><path d="M210.915,158.11c.745-.3,1.624,1.579,3.248,1.811s1.469-3.48,3.016-3.48.928,3.269,2.474,3.49,2.242-2.872,2.861-2.33-.928,1.9.387,2.342,1.489-1.1,2.406-1.027-.119,4.33-2.006,3.634a9.331,9.331,0,0,1-8.442.387s-1.455.541-2.854-1.238-2.18-3.156-1.09-3.589" transform="translate(238.888 891.73)" fill="#407bff"/><g transform="translate(449.29 1048.171)" opacity="0.6"><g clip-path="url(#be)"><path d="M210.915,158.11c.745-.3,1.624,1.579,3.248,1.811s1.469-3.48,3.016-3.48.928,3.269,2.474,3.49,2.242-2.872,2.861-2.33-.928,1.9.387,2.342,1.489-1.1,2.406-1.027-.119,4.33-2.006,3.634a9.331,9.331,0,0,1-8.442.387s-1.455.541-2.854-1.238-2.18-3.156-1.09-3.589" transform="translate(-210.402 -156.441)" fill="#fff"/></g></g><path d="M328.726,322.746H281.94a5.927,5.927,0,0,0-4.324,1.872l-6.068,6.471h67.567l-6.067-6.471a5.929,5.929,0,0,0-4.323-1.872" transform="translate(225.548 855.448)" fill="#263238"/><g transform="translate(497.097 1178.194)" opacity="0.6"><g clip-path="url(#bf)"><path d="M328.726,322.746H281.94a5.927,5.927,0,0,0-4.324,1.872l-6.068,6.471h67.567l-6.067-6.471a5.929,5.929,0,0,0-4.323-1.872" transform="translate(-271.549 -322.746)" fill="#fff"/></g></g><path d="M139.592,112c-4.152,6.248-3.676,9.309-2.351,21.634s-3.071,17.5-.941,23.172,17.4,5.2,24.2-6.165-1.764-35.775-8.255-38.157A21.788,21.788,0,0,0,139.592,112" transform="translate(255.184 901.583)" fill="#263238"/><path d="M173.778,147.636A67.084,67.084,0,0,0,186.4,151.52c3.937.173,7.756-1.267,11.7-2.3,2.921-.868,5.878-1.8,8.788-2.754a1.7,1.7,0,0,1,1.359,3.091c-2.767,1.558-5.564,2.956-8.466,4.235-4.489,1.823-9.131,4.03-14.14,3.827-5.212-.589-10.5-1.579-15.208-4.035a3.413,3.413,0,0,1,3.343-5.951" transform="translate(247.989 893.925)" fill="#e9b376"/><path d="M180.62,148.441c-.172,1.415-2,3.667-3.894,5.653-2.166,2.259-4.417,4.183-4.417,4.183a38.412,38.412,0,0,1-2.8-3.034c-2.447-2.94-5.52-7.459-4.754-10.946,4.331-1.689,8.5.5,15.863,4.144" transform="translate(248.873 894.506)" fill="#407bff"/><g transform="translate(418.363 1043.822)" opacity="0.1"><g clip-path="url(#bg)"><path d="M178.081,155.656c-2.166,2.259-4.417,4.183-4.417,4.183a38.412,38.412,0,0,1-2.8-3.034,7.555,7.555,0,0,1,2.541-5.926,10.372,10.372,0,0,1,4.675,4.777" transform="translate(-170.845 -150.879)"/></g></g><path d="M203.35,331.523c-4.173,0-4.724-.064-7.069-.143-2.008-.072-2.489.179-4.1.143-1.349-.029-1.3-1.319-.882-2.8.208-.745.529-2.321.815-3.526l6.113-.443c.86,1.642,2.8,3.983,5.153,4.3,2.244.3,1.634,2.474-.03,2.474" transform="translate(243.112 855.011)" fill="#407bff"/><path d="M191.656,294.945c-.837.766-4.378,1.142-6.388.97,0,0-19.374-34.049-14.792-52.758q-2.181-5.934-3.768-11.172a156.357,156.357,0,0,1-3.964-15.723c-3.745-19.21-.9-27.818-.9-27.818l14.644-2.314s.923,3.518,1.634,8.037c2.705,17.279,2.791,32.563,3.581,44.752,1.134,17.615,6.833,45.034,9.953,56.026" transform="translate(249.708 885.254)" fill="#263238"/><g transform="translate(412.452 1093.18)" opacity="0.3"><g clip-path="url(#bh)"><path d="M167.248,238.066a156.352,156.352,0,0,1-3.964-15.723,22.831,22.831,0,0,1,4.988-8.334s1.11,14.933-1.024,24.057" transform="translate(-163.284 -214.009)"/></g></g><path d="M164.326,331.523c-4.173,0-4.724-.064-7.069-.143-2.008-.072-2.489.179-4.1.143-1.349-.029-1.3-1.319-.882-2.8.208-.745.529-2.321.815-3.526l6.113-.443c.86,1.642,2.8,3.983,5.153,4.3,2.244.3,1.634,2.474-.03,2.474" transform="translate(251.626 855.011)" fill="#407bff"/><path d="M167.284,187.3s-4.461,34.525-7.019,51.141c-2.686,17.449-3.026,45.449-2.355,56.859-.978.568-4.52.173-6.445-.429,0,0-11.582-37.429-3.077-54.707-5.5-40.375,2.461-50.262,2.461-50.262Z" transform="translate(253.098 884.997)" fill="#263238"/><path d="M141.214,153.564c6.231,13.471,8.092,20.492,8.639,26.833l22.243-3.518c-.508-7.349-.891-11.743-1.423-16.192a68.163,68.163,0,0,0-1.47-9.069,10.357,10.357,0,0,0-6.176-7.513,6.1,6.1,0,0,0-2.213-.375c-1.11.023-2.267.063-3.385.141a72.763,72.763,0,0,0-10.1,1.595c-.954.2-1.876.422-2.744.657a4.074,4.074,0,0,0-.547.18,5.252,5.252,0,0,0-2.822,7.263" transform="translate(254.1 894.504)" fill="#407bff"/><path d="M147.786,131.261c1.394,3.111,3.417,8.9,1.647,11.4,0,0,3.006-.949,10.183,2.059,1.463-3.015-.08-3.657-.08-3.657-3.826-.281-4.36-2.954-4.316-5.549Z" transform="translate(252.549 897.224)" fill="#ebb376"/><g transform="translate(403.36 1030.22)" opacity="0.2"><g clip-path="url(#bi)"><path d="M151.662,133.48l4.4,2.514a10.185,10.185,0,0,0,.106,1.822c-1.432.021-3.688-1.18-4.172-2.589a4.9,4.9,0,0,1-.334-1.746" transform="translate(-151.655 -133.48)"/></g></g><path d="M142.791,120.853c1.817,5.092,2.478,7.28,5.871,9.323,5.1,3.074,10.977.091,10.721-5.354-.23-4.9-3.163-12.405-8.846-13.282a6.926,6.926,0,0,0-7.746,9.312" transform="translate(253.736 901.547)" fill="#ebb376"/><path d="M147.757,108.472c3.953,0,9.74,3.639,4.713,4.718.05,1.618-2.905,1.752-5.09.988.355,1.173-1.542,3.6-4.267,2.992,1.589.783,1.872,4.827,0,5.141s-5.781,1.535-5.421-5.141,5.841-8.7,10.065-8.7" transform="translate(254.756 902.195)" fill="#263238"/><path d="M151.651,122.985c.134.434.471.733.751.666s.4-.471.267-.905-.471-.732-.752-.666-.4.471-.266.905" transform="translate(251.717 899.229)" fill="#263238"/><path d="M158.6,121.127c.133.434.47.733.751.666s.4-.471.266-.905-.471-.732-.752-.666-.4.471-.265.905" transform="translate(250.202 899.634)" fill="#263238"/><path d="M158.806,120.141l.94-.543s-.278.938-.94.543" transform="translate(250.145 899.769)" fill="#263238"/><path d="M156.855,123.1a13.332,13.332,0,0,0,2.388,2.41,1.806,1.806,0,0,1-1.442.65Z" transform="translate(250.57 899.004)" fill="#d58745"/><path d="M154.769,129.507a4.247,4.247,0,0,0,.74-.106.121.121,0,0,0,.087-.157.142.142,0,0,0-.166-.1,3.772,3.772,0,0,1-3.191-.692.127.127,0,1,0-.169.188,3.968,3.968,0,0,0,2.7.865" transform="translate(251.625 897.844)" fill="#263238"/><path d="M142.088,128.456a4.332,4.332,0,0,0,3.041,1.321c1.469-.009,1.7-1.522.878-2.784-.744-1.136-2.4-2.5-3.679-1.884a2.061,2.061,0,0,0-.241,3.348" transform="translate(253.952 898.6)" fill="#ebb376"/><path d="M149.469,119.571a.241.241,0,0,0,.17-.107,1.939,1.939,0,0,1,1.595-.921.243.243,0,0,0,.256-.251.287.287,0,0,0-.273-.272,2.425,2.425,0,0,0-2.03,1.14.27.27,0,0,0,.089.365.274.274,0,0,0,.193.046" transform="translate(252.251 900.112)" fill="#263238"/><path d="M159.695,116.7a.247.247,0,0,0,.176-.074.262.262,0,0,0-.024-.371,2.773,2.773,0,0,0-2.328-.8.24.24,0,0,0-.184.307.286.286,0,0,0,.324.206,2.219,2.219,0,0,1,1.837.654.285.285,0,0,0,.2.078" transform="translate(250.468 900.678)" fill="#263238"/><path d="M151.857,122l.94-.543s-.278.938-.94.543" transform="translate(251.661 899.363)" fill="#263238"/><path d="M144.972,146.3a57.03,57.03,0,0,0,5.52,2.494h.008c.485.18.977.36,1.478.524,2.862.962,5.856,1.556,7.99.93a5.241,5.241,0,0,0,3.518-2.83,4.923,4.923,0,0,0,.328-.954,7.2,7.2,0,0,0,.149-2.361,6.1,6.1,0,0,0-2.213-.375c-.25.008-.493.008-.743.023-.328,0-.649.016-.977.023-.555.023-1.118.055-1.665.094a72.763,72.763,0,0,0-10.1,1.595l-.219.047c-.25.055-.5.109-.743.164-.61.141-1.212.289-1.783.446a4.076,4.076,0,0,0-.547.18" transform="translate(253.163 894.504)" fill="#ebb376"/><path d="M147.952,146.173a18.658,18.658,0,0,1,3.19,3.12h.008c.485.18.977.36,1.478.524a15.3,15.3,0,0,0-3.933-3.808c-.25.055-.5.109-.743.164" transform="translate(252.513 894.006)" fill="#263238"/><path d="M164.233,143.782a20.14,20.14,0,0,1,3.456,3.643,4.923,4.923,0,0,0,.328-.954,15.335,15.335,0,0,0-2.807-2.713c-.328,0-.649.016-.977.023" transform="translate(248.96 894.497)" fill="#263238"/><g transform="translate(400.464 1040.016)" opacity="0.2"><g clip-path="url(#bj)"><path d="M147.952,146.173a18.658,18.658,0,0,1,3.19,3.12h.008c.485.18.977.36,1.478.524a15.3,15.3,0,0,0-3.933-3.808c-.25.055-.5.109-.743.164" transform="translate(-147.952 -146.009)" fill="#fff"/></g></g><g transform="translate(413.193 1038.256)" opacity="0.2"><g clip-path="url(#bk)"><path d="M164.233,143.782a20.14,20.14,0,0,1,3.456,3.643,4.923,4.923,0,0,0,.328-.954,15.335,15.335,0,0,0-2.807-2.713c-.328,0-.649.016-.977.023" transform="translate(-164.233 -143.759)" fill="#fff"/></g></g><path d="M225.355,142.1l-.231,1.45a1.707,1.707,0,0,1-.926,1.261l-2.311,1.15a3.185,3.185,0,0,1-2.923-.043l-.563-.3a10.843,10.843,0,0,1,2.245-4.9l.5-.768a1.421,1.421,0,0,1,1.968-.464l1.534.97a1.639,1.639,0,0,1,.707,1.643" transform="translate(237.143 895.478)" fill="#ebb376"/><path d="M246.23,213.259l-57.4-2.83a1.831,1.831,0,0,1-1.741-1.839l.428-82.03a1.831,1.831,0,0,1,1.922-1.819l64.613,3.185a1.832,1.832,0,0,1,1.734,2L248.144,211.6a1.832,1.832,0,0,1-1.914,1.659" transform="translate(243.974 898.646)" fill="#407bff"/><g transform="translate(431.065 1023.385)" opacity="0.5"><g clip-path="url(#bl)"><path d="M246.23,213.259l-57.4-2.83a1.831,1.831,0,0,1-1.741-1.839l.428-82.03a1.831,1.831,0,0,1,1.922-1.819l64.613,3.185a1.832,1.832,0,0,1,1.734,2L248.144,211.6a1.832,1.832,0,0,1-1.914,1.659" transform="translate(-187.091 -124.738)" fill="#fff"/></g></g><g transform="translate(432.237 1053.223)" opacity="0.2"><g clip-path="url(#bm)"><path d="M252.506,164.24l-5.2,55.581a.667.667,0,0,1-.657.594l-57.434-2.83a.657.657,0,0,1-.625-.665l.25-47.754c3.166-7.6,13.064-7.9,21.414-2.955,4.167,2.471,8.522,5.66,13.127,8.029,4.628,2.377,9.515,3.933,14.706,3.088,10.367-1.689,12.6-6.286,14.417-13.088" transform="translate(-188.591 -162.902)" fill="#fff"/></g></g><path d="M224.569,127.945v43.978H213.741v-44.51l3.972.2,2.627.125Z" transform="translate(238.16 898.063)" fill="#407bff"/><g transform="translate(451.9 1025.477)" opacity="0.7"><g clip-path="url(#bn)"><path d="M224.569,127.945v43.978H213.741v-44.51l3.972.2,2.627.125Z" transform="translate(-213.741 -127.413)" fill="#fff"/></g></g><g transform="translate(452.291 1033.036)" opacity="0.3"><g clip-path="url(#at)"><path d="M214.24,141.105s.541-2.088.928-2.242.928,6.14,1.779,6.549,1.7-4.462,2.32-4.462.7,3.944,1.546,3.789,1.469-7.578,2.165-7.655,1.159,2.475,1.159,2.475v1.7s-.618-2.088-1.082-2.32-.851,9.588-2.011,9.742-1.512-4.717-1.993-4.639-.945,5.413-2.1,5.567-1.546-7.5-2.011-7.5-.7,1.7-.7,1.7Z" transform="translate(-214.24 -137.083)" fill="#fff"/></g></g><g transform="translate(452.291 1048.603)" opacity="0.3"><g clip-path="url(#au)"><path d="M214.24,158.539s.851,4.021,1.314,4.407,1.005-3.248,1.779-2.861.808,5.413,1.718,5.645,1.684-6.263,2.38-6.341,1.005,2.4,1.392,2.4,1.314-4.794,1.314-4.794V160.7s-.618,4.1-1.237,4.021-1.237-1.933-1.546-1.933-.971,5.936-2.3,5.752-1.641-6.027-2.1-5.773-.773,2.728-1.238,2.65-1.469-2.65-1.469-2.65Z" transform="translate(-214.24 -156.993)" fill="#fff"/></g></g><path d="M205.754,176.671s2.629-1.624-.464-8.119c-1.5-3.157,1.035-3.247,1.716-1.778s.582,6.727,2.178,6.727.919-4.639,2.611-5.1,1.769,4.02,4.4,4.793,5.973-6.727,7.9-5.876-1.709,4.33.339,5.258,5.45-6.572,6.687-6.186-3.943,5.258-4.02,7.037,2.165,2.629,2.165,2.629-13.687,9.047-23.507.618" transform="translate(240.105 889.677)" fill="#407bff"/><g transform="translate(444.927 1055.531)" opacity="0.8"><g clip-path="url(#bq)"><path d="M205.754,176.671s2.629-1.624-.464-8.119c-1.5-3.157,1.035-3.247,1.716-1.778s.582,6.727,2.178,6.727.919-4.639,2.611-5.1,1.769,4.02,4.4,4.793,5.973-6.727,7.9-5.876-1.709,4.33.339,5.258,5.45-6.572,6.687-6.186-3.943,5.258-4.02,7.037,2.165,2.629,2.165,2.629-13.687,9.047-23.507.618" transform="translate(-204.822 -165.855)" fill="#fff"/></g></g><path d="M252.506,164.1l-5.2,55.581a.667.667,0,0,1-.657.594l-57.434-2.83a.657.657,0,0,1-.625-.665l.25-47.754a4.961,4.961,0,0,1,4.479-.948c5.779,1.751,8.617,9.142,19.812,9.111,3.143-.008,6.669-1.29,10.25-3.088,9.179-4.613,18.714-11.732,23.627-11.821,3.443-.063,5.5.484,5.5,1.822" transform="translate(243.646 890.457)" fill="#407bff"/><g transform="translate(432.237 1052.734)" opacity="0.7"><g clip-path="url(#br)"><path d="M252.506,164.1l-5.2,55.581a.667.667,0,0,1-.657.594l-57.434-2.83a.657.657,0,0,1-.625-.665l.25-47.754a4.961,4.961,0,0,1,4.479-.948c5.779,1.751,8.617,9.142,19.812,9.111,3.143-.008,6.669-1.29,10.25-3.088,9.179-4.613,18.714-11.732,23.627-11.821,3.443-.063,5.5.484,5.5,1.822" transform="translate(-188.591 -162.277)" fill="#fff"/></g></g><g transform="translate(467.046 1072.766)" opacity="0.2"><g clip-path="url(#bs)"><path d="M236.051,189.367a1.469,1.469,0,1,1-1.469-1.469,1.469,1.469,0,0,1,1.469,1.469" transform="translate(-233.113 -187.898)" fill="#fff"/></g></g><g transform="translate(443.458 1101.444)" opacity="0.2"><g clip-path="url(#bt)"><path d="M205.881,226.05a1.469,1.469,0,1,1-1.469-1.469,1.469,1.469,0,0,1,1.469,1.469" transform="translate(-202.943 -224.58)" fill="#fff"/></g></g><g transform="translate(443.385 1074.473)" opacity="0.2"><g clip-path="url(#bu)"><path d="M208.1,192.707a2.626,2.626,0,1,1-2.626-2.626,2.626,2.626,0,0,1,2.626,2.626" transform="translate(-202.849 -190.081)" fill="#fff"/></g></g><g transform="translate(452.918 1096.843)" opacity="0.2"><g clip-path="url(#bu)"><path d="M220.294,221.32a2.626,2.626,0,1,1-2.626-2.626,2.626,2.626,0,0,1,2.626,2.626" transform="translate(-215.042 -218.694)" fill="#fff"/></g></g><g transform="translate(459.623 1093.18)" opacity="0.2"><g clip-path="url(#bw)"><path d="M225.551,214.974a.967.967,0,1,1-.966-.966.966.966,0,0,1,.966.966" transform="translate(-223.618 -214.008)" fill="#fff"/></g></g><g transform="translate(455.813 1104.436)" opacity="0.2"><g clip-path="url(#bw)"><path d="M220.677,229.373a.967.967,0,1,1-.966-.966.966.966,0,0,1,.966.966" transform="translate(-218.745 -228.406)" fill="#fff"/></g></g><g transform="translate(480.81 1062.735)" opacity="0.2"><g clip-path="url(#by)"><path d="M254.186,176.8a1.735,1.735,0,1,1-1.734-1.734,1.735,1.735,0,0,1,1.734,1.734" transform="translate(-250.717 -175.069)" fill="#fff"/></g></g><g transform="translate(453.81 1077.99)" opacity="0.2"><g clip-path="url(#bz)"><path d="M219.651,196.315a1.734,1.734,0,1,1-1.734-1.734,1.734,1.734,0,0,1,1.734,1.734" transform="translate(-216.183 -194.581)" fill="#fff"/></g></g><g transform="translate(448.71 1092.411)" opacity="0.2"><g clip-path="url(#ca)"><path d="M213.13,214.76a1.734,1.734,0,1,1-1.734-1.734,1.735,1.735,0,0,1,1.734,1.734" transform="translate(-209.661 -213.026)" fill="#fff"/></g></g><g transform="translate(458.17 1080.652)" opacity="0.2"><g clip-path="url(#cb)"><path d="M224.087,199.149a1.163,1.163,0,1,1-1.163-1.163,1.163,1.163,0,0,1,1.163,1.163" transform="translate(-221.76 -197.986)" fill="#fff"/></g></g><g transform="translate(436.183 1075.936)" opacity="0.2"><g clip-path="url(#cb)"><path d="M195.964,193.115a1.163,1.163,0,1,1-1.163-1.163,1.163,1.163,0,0,1,1.163,1.163" transform="translate(-193.637 -191.952)" fill="#fff"/></g></g><g transform="translate(450.446 1083.364)" opacity="0.2"><g clip-path="url(#cd)"><path d="M219.6,205.317a3.862,3.862,0,1,1-3.862-3.862,3.863,3.863,0,0,1,3.862,3.862" transform="translate(-211.88 -201.454)" fill="#fff"/></g></g><g transform="translate(464.195 1102.303)" opacity="0.2"><g clip-path="url(#ce)"><path d="M230.688,226.29a.611.611,0,1,1-.611-.611.611.611,0,0,1,.611.611" transform="translate(-229.466 -225.678)" fill="#fff"/></g></g><g transform="translate(436.124 1064.47)" opacity="0.2"><g clip-path="url(#ce)"><path d="M194.784,177.9a.611.611,0,1,1-.611-.611.61.61,0,0,1,.611.611" transform="translate(-193.562 -177.287)" fill="#fff"/></g></g><g transform="translate(456.301 1073.861)" opacity="0.2"><g clip-path="url(#cg)"><path d="M220.591,189.91a.611.611,0,1,1-.611-.611.61.61,0,0,1,.611.611" transform="translate(-219.37 -189.3)" fill="#fff"/></g></g><g transform="translate(442.774 1086.615)" opacity="0.2"><g clip-path="url(#ce)"><path d="M203.29,206.225a.611.611,0,1,1-.611-.611.611.611,0,0,1,.611.611" transform="translate(-202.068 -205.613)" fill="#fff"/></g></g><g transform="translate(464.806 1088.849)" opacity="0.2"><g clip-path="url(#ci)"><path d="M232.488,209.589a1.12,1.12,0,1,1-1.12-1.12,1.121,1.121,0,0,1,1.12,1.12" transform="translate(-230.247 -208.469)" fill="#fff"/></g></g><g transform="translate(442.876 1068.865)" opacity="0.2"><g clip-path="url(#ci)"><path d="M204.439,184.03a1.121,1.121,0,1,1-1.121-1.12,1.121,1.121,0,0,1,1.121,1.12" transform="translate(-202.198 -182.91)" fill="#fff"/></g></g><g transform="translate(447.247 1088.23)" opacity="0.2"><g clip-path="url(#ck)"><path d="M208.408,207.988a.309.309,0,1,1-.31-.31.309.309,0,0,1,.31.31" transform="translate(-207.789 -207.678)" fill="#fff"/></g></g><g transform="translate(478.458 1027.193)" opacity="0.2"><g clip-path="url(#cl)"><path d="M263.347,130.681l-7.639,81.678a.667.667,0,0,1-.657.594l-7.341-.36a.666.666,0,0,0,.07-.242l7.74-82.742,7.2.352a.674.674,0,0,1,.469.227.646.646,0,0,1,.156.493" transform="translate(-247.71 -129.61)" fill="#fff"/></g></g><g transform="translate(395.871 1046.99)" opacity="0.1"><g clip-path="url(#cm)"><path d="M157.037,166.021s-11.713,4.137-14.96-10.76l5.106-.33Z" transform="translate(-142.077 -154.931)"/></g></g><path d="M200.438,163.834l-1.475-.807a1.952,1.952,0,0,0-1.79-.045l-2.659,1.285a3.646,3.646,0,0,0-2.008,2.675l-.122.721c2.353,1.507,6.006,1.4,6.006,1.4l1.045.085a1.626,1.626,0,0,0,1.8-1.457l.2-2.067a1.875,1.875,0,0,0-.991-1.79" transform="translate(242.819 890.346)" fill="#ebb376"/><path d="M148.232,149.954a79.765,79.765,0,0,0,11.527,9.244c2.005,1.192,3.664,2.159,5.854,2.38a56.953,56.953,0,0,0,7.36.168c3.4-.1,6.873-.287,10.312-.474a1.7,1.7,0,0,1,.576,3.327,83.287,83.287,0,0,1-10.392,2.376,38.761,38.761,0,0,1-9.858.567c-6.341-1.139-11.345-5.158-16.157-9.041-1.381-1.192-2.693-2.352-4.027-3.7a3.413,3.413,0,0,1,4.805-4.847" transform="translate(253.719 893.36)" fill="#e9b376"/><path d="M143,147.8c-3.8,2.684-1.048,10.422,5.837,15.15,4.622-.48,8.752-7.692,8.752-7.692S149.912,148.68,143,147.8" transform="translate(253.968 893.615)" fill="#407bff"/><rect width="390.917" height="269.279" transform="translate(284.791 925.86)" fill="none"/><rect width="390.917" height="269.279" transform="translate(284.791 925.86)" fill="none"/></g></svg>